<?xml version="1.0" encoding="UTF-8" standalone="no"?>
<svg width="352.778mm" height="352.778mm"
 viewBox="0 0 1000 1000"
 xmlns="http://www.w3.org/2000/svg" xmlns:xlink="http://www.w3.org/1999/xlink"  version="1.2" baseProfile="tiny">
<title>SVG Generator Example Drawing</title>
<desc>Dessin svg pour une démonstration</desc>
<defs>
</defs>
<g fill="none" stroke="black" vector-effect="non-scaling-stroke" stroke-width="1" fill-rule="evenodd" stroke-linecap="square" stroke-linejoin="bevel" >

<g fill="none" stroke="#000000" stroke-opacity="1" vector-effect="non-scaling-stroke" stroke-width="1" stroke-linecap="square" stroke-linejoin="bevel" transform="matrix(1,0,0,1,0,0)"
font-family="Bitstream Charter" font-size="6" font-weight="400" font-style="normal" 
>
<path fill-rule="evenodd" d="M20,20 L158,20 L158,40 L20,40 L20,20"/>
<text fill="#000000" fill-opacity="1" stroke="none" xml:space="preserve" x="55" y="32" font-family="Bitstream Charter" font-size="6" font-weight="400" font-style="normal" 
 >Repère_fonctionnel.nom</text>
<path fill-rule="evenodd" d="M158,20 L182,20 L182,40 L158,40 L158,20"/>
<text fill="#000000" fill-opacity="1" stroke="none" xml:space="preserve" x="162.5" y="32" font-family="Bitstream Charter" font-size="6" font-weight="400" font-style="normal" 
 >name</text>
<path fill-rule="evenodd" d="M20,50 L218,50 L218,70 L20,70 L20,50"/>
<text fill="#000000" fill-opacity="1" stroke="none" xml:space="preserve" x="70" y="62" font-family="Bitstream Charter" font-size="6" font-weight="400" font-style="normal" 
 >Objet_identifié.catégorie_AP929</text>
<path fill-rule="evenodd" d="M218,50 L272,50 L272,70 L218,70 L218,50"/>
<text fill="#000000" fill-opacity="1" stroke="none" xml:space="preserve" x="233" y="62" font-family="Bitstream Charter" font-size="6" font-weight="400" font-style="normal" 
 >Port.sens</text>
<path fill-rule="evenodd" d="M272,50 L296,50 L296,70 L272,70 L272,50"/>
<text fill="#000000" fill-opacity="1" stroke="none" xml:space="preserve" x="276.5" y="62" font-family="Bitstream Charter" font-size="6" font-weight="400" font-style="normal" 
 >name</text>
<path fill-rule="evenodd" d="M20,116 L98,116 L98,136 L20,136 L20,116"/>
<text fill="#000000" fill-opacity="1" stroke="none" xml:space="preserve" x="41.5" y="128" font-family="Bitstream Charter" font-size="6" font-weight="400" font-style="normal" 
 >Jonction.port</text>
<path fill-rule="evenodd" d="M98,116 L296,116 L296,136 L98,136 L98,116"/>
<text fill="#000000" fill-opacity="1" stroke="none" xml:space="preserve" x="148" y="128" font-family="Bitstream Charter" font-size="6" font-weight="400" font-style="normal" 
 >Objet_identifié.catégorie_AP929</text>
<path fill-rule="evenodd" d="M296,116 L320,116 L320,136 L296,136 L296,116"/>
<text fill="#000000" fill-opacity="1" stroke="none" xml:space="preserve" x="300.5" y="128" font-family="Bitstream Charter" font-size="6" font-weight="400" font-style="normal" 
 >name</text>
<path fill-rule="evenodd" d="M20,161 L266,161 L266,181 L20,181 L20,161"/>
<text fill="#000000" fill-opacity="1" stroke="none" xml:space="preserve" x="80.5" y="173" font-family="Bitstream Charter" font-size="6" font-weight="400" font-style="normal" 
 >Fonction_procédé_principale.équipement</text>
<path fill-rule="evenodd" d="M266,161 L464,161 L464,181 L266,181 L266,161"/>
<text fill="#000000" fill-opacity="1" stroke="none" xml:space="preserve" x="316" y="173" font-family="Bitstream Charter" font-size="6" font-weight="400" font-style="normal" 
 >Objet_identifié.catégorie_AP929</text>
<path fill-rule="evenodd" d="M464,161 L632,161 L632,181 L464,181 L464,161"/>
<text fill="#000000" fill-opacity="1" stroke="none" xml:space="preserve" x="508" y="173" font-family="Bitstream Charter" font-size="6" font-weight="400" font-style="normal" 
 >Objet_identifié.définition</text>
<path fill-rule="evenodd" d="M632,161 L656,161 L656,181 L632,181 L632,161"/>
<text fill="#000000" fill-opacity="1" stroke="none" xml:space="preserve" x="636.5" y="173" font-family="Bitstream Charter" font-size="6" font-weight="400" font-style="normal" 
 >name</text>
<path fill-rule="evenodd" d="M20,183 L146,183 L146,203 L20,203 L20,183"/>
<text fill="#000000" fill-opacity="1" stroke="none" xml:space="preserve" x="51.5" y="195" font-family="Bitstream Charter" font-size="6" font-weight="400" font-style="normal" 
 >Equipement.catégorie</text>
<path fill-rule="evenodd" d="M146,183 L236,183 L236,203 L146,203 L146,183"/>
<text fill="#000000" fill-opacity="1" stroke="none" xml:space="preserve" x="169.5" y="195" font-family="Bitstream Charter" font-size="6" font-weight="400" font-style="normal" 
 >Equipement.port</text>
<path fill-rule="evenodd" d="M236,183 L326,183 L326,203 L236,203 L236,183"/>
<text fill="#000000" fill-opacity="1" stroke="none" xml:space="preserve" x="259.5" y="195" font-family="Bitstream Charter" font-size="6" font-weight="400" font-style="normal" 
 >Equipement.port</text>
<path fill-rule="evenodd" d="M326,183 L524,183 L524,203 L326,203 L326,183"/>
<text fill="#000000" fill-opacity="1" stroke="none" xml:space="preserve" x="376" y="195" font-family="Bitstream Charter" font-size="6" font-weight="400" font-style="normal" 
 >Objet_identifié.catégorie_AP929</text>
<path fill-rule="evenodd" d="M524,183 L548,183 L548,203 L524,203 L524,183"/>
<text fill="#000000" fill-opacity="1" stroke="none" xml:space="preserve" x="528.5" y="195" font-family="Bitstream Charter" font-size="6" font-weight="400" font-style="normal" 
 >name</text>
<path fill-rule="evenodd" d="M20,227 L92,227 L92,247 L20,247 L20,227"/>
<text fill="#000000" fill-opacity="1" stroke="none" xml:space="preserve" x="39.5" y="239" font-family="Bitstream Charter" font-size="6" font-weight="400" font-style="normal" 
 >Capteur.port</text>
<path fill-rule="evenodd" d="M92,227 L254,227 L254,247 L92,247 L92,227"/>
<text fill="#000000" fill-opacity="1" stroke="none" xml:space="preserve" x="135.5" y="239" font-family="Bitstream Charter" font-size="6" font-weight="400" font-style="normal" 
 >Capteur.repère_fonctionnel</text>
<path fill-rule="evenodd" d="M254,227 L452,227 L452,247 L254,247 L254,227"/>
<text fill="#000000" fill-opacity="1" stroke="none" xml:space="preserve" x="304" y="239" font-family="Bitstream Charter" font-size="6" font-weight="400" font-style="normal" 
 >Objet_identifié.catégorie_AP929</text>
<path fill-rule="evenodd" d="M452,227 L476,227 L476,247 L452,247 L452,227"/>
<text fill="#000000" fill-opacity="1" stroke="none" xml:space="preserve" x="456.5" y="239" font-family="Bitstream Charter" font-size="6" font-weight="400" font-style="normal" 
 >name</text>
<path fill-rule="evenodd" d="M20,249 L218,249 L218,269 L20,269 L20,249"/>
<text fill="#000000" fill-opacity="1" stroke="none" xml:space="preserve" x="70" y="261" font-family="Bitstream Charter" font-size="6" font-weight="400" font-style="normal" 
 >Objet_identifié.catégorie_AP929</text>
<path fill-rule="evenodd" d="M218,249 L242,249 L242,269 L218,269 L218,249"/>
<text fill="#000000" fill-opacity="1" stroke="none" xml:space="preserve" x="222.5" y="261" font-family="Bitstream Charter" font-size="6" font-weight="400" font-style="normal" 
 >name</text>
</g>
</g>
</svg>
