<?xml version="1.0" encoding="UTF-8" standalone="no"?>
<svg width="705.556mm" height="184.503mm"
 viewBox="0 0 2000 523"
 xmlns="http://www.w3.org/2000/svg" xmlns:xlink="http://www.w3.org/1999/xlink"  version="1.2" baseProfile="tiny">
<title>SVG Generator Example Drawing</title>
<desc>Dessin svg pour une démonstration</desc>
<defs>
</defs>
<g fill="none" stroke="black" vector-effect="non-scaling-stroke" stroke-width="1" fill-rule="evenodd" stroke-linecap="square" stroke-linejoin="bevel" >

<g fill="none" stroke="none" transform="matrix(1,0,0,1,0,0)"
font-family="Sans" font-size="10" font-weight="400" font-style="normal" 
>
<path fill-rule="evenodd" d="M20,20 L165,20 L165,50 L20,50 L20,20"/>
</g>

<g fill="none" stroke="#000000" stroke-opacity="1" vector-effect="non-scaling-stroke" stroke-width="1" stroke-linecap="square" stroke-linejoin="bevel" transform="matrix(1,0,0,1,0,0)"
font-family="Sans" font-size="10" font-weight="400" font-style="normal" 
>
<path fill-rule="evenodd" d="M20,23 C20,21.3431 21.3431,20 23,20 L162,20 C163.657,20 165,21.3431 165,23 L165,47 C165,48.6569 163.657,50 162,50 L23,50 C21.3431,50 20,48.6569 20,47 L20,23"/>
<polyline fill="none" points="20,35 165,35 " />
</g>

<g fill="none" stroke="#ff0000" stroke-opacity="1" vector-effect="non-scaling-stroke" stroke-width="1" stroke-linecap="square" stroke-linejoin="bevel" transform="matrix(1,0,0,1,0,0)"
font-family="Arial" font-size="8" font-weight="700" font-style="normal" 
>
<text fill="#ff0000" fill-opacity="1" stroke="none" xml:space="preserve" x="21" y="32" font-family="Arial" font-size="8" font-weight="700" font-style="normal" 
 >Equipement</text>
</g>

<g fill="none" stroke="#ff0000" stroke-opacity="1" vector-effect="non-scaling-stroke" stroke-width="1" stroke-linecap="square" stroke-linejoin="bevel" transform="matrix(1,0,0,1,0,0)"
font-family="Arial" font-size="8" font-weight="700" font-style="normal" 
>
<text fill="#ff0000" fill-opacity="1" stroke="none" xml:space="preserve" x="90" y="32" font-family="Arial" font-size="8" font-weight="700" font-style="normal" 
 >dom.eq.PTR022PO</text>
</g>

<g fill="none" stroke="#000000" stroke-opacity="1" vector-effect="non-scaling-stroke" stroke-width="1" stroke-linecap="square" stroke-linejoin="bevel" transform="matrix(1,0,0,1,0,0)"
font-family="Arial" font-size="8" font-weight="700" font-style="normal" 
>
<text fill="#000000" fill-opacity="1" stroke="none" xml:space="preserve" x="21" y="47" font-family="Arial" font-size="8" font-weight="700" font-style="normal" 
 >catégorie : </text>
</g>

<g fill="none" stroke="#000000" stroke-opacity="1" vector-effect="non-scaling-stroke" stroke-width="1" stroke-linecap="square" stroke-linejoin="bevel" transform="matrix(1,0,0,1,0,0)"
font-family="Arial" font-size="8" font-weight="400" font-style="normal" 
>
<text fill="#000000" fill-opacity="1" stroke="none" xml:space="preserve" x="90" y="47" font-family="Arial" font-size="8" font-weight="400" font-style="normal" 
 >Pompe</text>
</g>

<g fill="none" stroke="none" transform="matrix(1,0,0,1,0,0)"
font-family="Arial" font-size="8" font-weight="400" font-style="normal" 
>
<path fill-rule="evenodd" d="M20,79 L165,79 L165,109 L20,109 L20,79"/>
</g>

<g fill="none" stroke="#000000" stroke-opacity="1" vector-effect="non-scaling-stroke" stroke-width="1" stroke-linecap="square" stroke-linejoin="bevel" transform="matrix(1,0,0,1,0,0)"
font-family="Arial" font-size="8" font-weight="400" font-style="normal" 
>
<path fill-rule="evenodd" d="M20,82 C20,80.3431 21.3431,79 23,79 L162,79 C163.657,79 165,80.3431 165,82 L165,106 C165,107.657 163.657,109 162,109 L23,109 C21.3431,109 20,107.657 20,106 L20,82"/>
<polyline fill="none" points="20,94 165,94 " />
</g>

<g fill="none" stroke="#ff0000" stroke-opacity="1" vector-effect="non-scaling-stroke" stroke-width="1" stroke-linecap="square" stroke-linejoin="bevel" transform="matrix(1,0,0,1,0,0)"
font-family="Arial" font-size="8" font-weight="700" font-style="normal" 
>
<text fill="#ff0000" fill-opacity="1" stroke="none" xml:space="preserve" x="21" y="91" font-family="Arial" font-size="8" font-weight="700" font-style="normal" 
 >Equipement</text>
</g>

<g fill="none" stroke="#ff0000" stroke-opacity="1" vector-effect="non-scaling-stroke" stroke-width="1" stroke-linecap="square" stroke-linejoin="bevel" transform="matrix(1,0,0,1,0,0)"
font-family="Arial" font-size="8" font-weight="700" font-style="normal" 
>
<text fill="#ff0000" fill-opacity="1" stroke="none" xml:space="preserve" x="90" y="91" font-family="Arial" font-size="8" font-weight="700" font-style="normal" 
 >dom.eq.PTR021PO</text>
</g>

<g fill="none" stroke="#000000" stroke-opacity="1" vector-effect="non-scaling-stroke" stroke-width="1" stroke-linecap="square" stroke-linejoin="bevel" transform="matrix(1,0,0,1,0,0)"
font-family="Arial" font-size="8" font-weight="700" font-style="normal" 
>
<text fill="#000000" fill-opacity="1" stroke="none" xml:space="preserve" x="21" y="106" font-family="Arial" font-size="8" font-weight="700" font-style="normal" 
 >catégorie : </text>
</g>

<g fill="none" stroke="#000000" stroke-opacity="1" vector-effect="non-scaling-stroke" stroke-width="1" stroke-linecap="square" stroke-linejoin="bevel" transform="matrix(1,0,0,1,0,0)"
font-family="Arial" font-size="8" font-weight="400" font-style="normal" 
>
<text fill="#000000" fill-opacity="1" stroke="none" xml:space="preserve" x="90" y="106" font-family="Arial" font-size="8" font-weight="400" font-style="normal" 
 >Pompe</text>
</g>

<g fill="none" stroke="none" transform="matrix(1,0,0,1,0,0)"
font-family="Arial" font-size="8" font-weight="400" font-style="normal" 
>
<path fill-rule="evenodd" d="M185,20 L460,20 L460,125 L185,125 L185,20"/>
</g>

<g fill="none" stroke="#000000" stroke-opacity="1" vector-effect="non-scaling-stroke" stroke-width="1" stroke-linecap="square" stroke-linejoin="bevel" transform="matrix(1,0,0,1,0,0)"
font-family="Arial" font-size="8" font-weight="400" font-style="normal" 
>
<path fill-rule="evenodd" d="M185,23 C185,21.3431 186.343,20 188,20 L457,20 C458.657,20 460,21.3431 460,23 L460,122 C460,123.657 458.657,125 457,125 L188,125 C186.343,125 185,123.657 185,122 L185,23"/>
<polyline fill="none" points="185,35 460,35 " />
</g>

<g fill="none" stroke="#ff0000" stroke-opacity="1" vector-effect="non-scaling-stroke" stroke-width="1" stroke-linecap="square" stroke-linejoin="bevel" transform="matrix(1,0,0,1,0,0)"
font-family="Arial" font-size="8" font-weight="700" font-style="normal" 
>
<text fill="#ff0000" fill-opacity="1" stroke="none" xml:space="preserve" x="186" y="32" font-family="Arial" font-size="8" font-weight="700" font-style="normal" 
 >Contexte_de_service</text>
</g>

<g fill="none" stroke="#000000" stroke-opacity="1" vector-effect="non-scaling-stroke" stroke-width="1" stroke-linecap="square" stroke-linejoin="bevel" transform="matrix(1,0,0,1,0,0)"
font-family="Arial" font-size="8" font-weight="700" font-style="normal" 
>
<text fill="#000000" fill-opacity="1" stroke="none" xml:space="preserve" x="186" y="47" font-family="Arial" font-size="8" font-weight="700" font-style="normal" 
 >terrain : </text>
</g>

<g fill="none" stroke="#000000" stroke-opacity="1" vector-effect="non-scaling-stroke" stroke-width="1" stroke-linecap="square" stroke-linejoin="bevel" transform="matrix(1,0,0,1,0,0)"
font-family="Arial" font-size="8" font-weight="400" font-style="normal" 
>
<text fill="#000000" fill-opacity="1" stroke="none" xml:space="preserve" x="310" y="47" font-family="Arial" font-size="8" font-weight="400" font-style="normal" 
 >true</text>
</g>

<g fill="none" stroke="#ff0000" stroke-opacity="1" vector-effect="non-scaling-stroke" stroke-width="1" stroke-linecap="square" stroke-linejoin="bevel" transform="matrix(1,0,0,1,0,0)"
font-family="Arial" font-size="8" font-weight="700" font-style="normal" 
>
<text fill="#ff0000" fill-opacity="1" stroke="none" xml:space="preserve" x="310" y="32" font-family="Arial" font-size="8" font-weight="700" font-style="normal" 
 >ctx.cs.DiagPTR021PO</text>
</g>

<g fill="none" stroke="#000000" stroke-opacity="1" vector-effect="non-scaling-stroke" stroke-width="1" stroke-linecap="square" stroke-linejoin="bevel" transform="matrix(1,0,0,1,0,0)"
font-family="Arial" font-size="8" font-weight="700" font-style="normal" 
>
<text fill="#000000" fill-opacity="1" stroke="none" xml:space="preserve" x="186" y="62" font-family="Arial" font-size="8" font-weight="700" font-style="normal" 
 >métier : </text>
</g>

<g fill="none" stroke="#000000" stroke-opacity="1" vector-effect="non-scaling-stroke" stroke-width="1" stroke-linecap="square" stroke-linejoin="bevel" transform="matrix(1,0,0,1,0,0)"
font-family="Arial" font-size="8" font-weight="400" font-style="normal" 
>
<text fill="#000000" fill-opacity="1" stroke="none" xml:space="preserve" x="310" y="62" font-family="Arial" font-size="8" font-weight="400" font-style="normal" 
 >chimie</text>
</g>

<g fill="none" stroke="#000000" stroke-opacity="1" vector-effect="non-scaling-stroke" stroke-width="1" stroke-linecap="square" stroke-linejoin="bevel" transform="matrix(1,0,0,1,0,0)"
font-family="Arial" font-size="8" font-weight="700" font-style="normal" 
>
<text fill="#000000" fill-opacity="1" stroke="none" xml:space="preserve" x="186" y="77" font-family="Arial" font-size="8" font-weight="700" font-style="normal" 
 >mode_de_fonctionnement : </text>
</g>

<g fill="none" stroke="#000000" stroke-opacity="1" vector-effect="non-scaling-stroke" stroke-width="1" stroke-linecap="square" stroke-linejoin="bevel" transform="matrix(1,0,0,1,0,0)"
font-family="Arial" font-size="8" font-weight="400" font-style="normal" 
>
<text fill="#000000" fill-opacity="1" stroke="none" xml:space="preserve" x="310" y="77" font-family="Arial" font-size="8" font-weight="400" font-style="normal" 
 >RCD</text>
</g>

<g fill="none" stroke="#000000" stroke-opacity="1" vector-effect="non-scaling-stroke" stroke-width="1" stroke-linecap="square" stroke-linejoin="bevel" transform="matrix(1,0,0,1,0,0)"
font-family="Arial" font-size="8" font-weight="700" font-style="normal" 
>
<text fill="#000000" fill-opacity="1" stroke="none" xml:space="preserve" x="186" y="92" font-family="Arial" font-size="8" font-weight="700" font-style="normal" 
 >définition : </text>
</g>

<g fill="none" stroke="#000000" stroke-opacity="1" vector-effect="non-scaling-stroke" stroke-width="1" stroke-linecap="square" stroke-linejoin="bevel" transform="matrix(1,0,0,1,0,0)"
font-family="Arial" font-size="8" font-weight="400" font-style="normal" 
>
<text fill="#000000" fill-opacity="1" stroke="none" xml:space="preserve" x="310" y="92" font-family="Arial" font-size="8" font-weight="400" font-style="normal" 
 >Mise à disposition de</text>
<text fill="#000000" fill-opacity="1" stroke="none" xml:space="preserve" x="310" y="107" font-family="Arial" font-size="8" font-weight="400" font-style="normal" 
 > diagnostic PTR021PO</text>
</g>

<g fill="none" stroke="#000000" stroke-opacity="1" vector-effect="non-scaling-stroke" stroke-width="1" stroke-linecap="square" stroke-linejoin="bevel" transform="matrix(1,0,0,1,0,0)"
font-family="Arial" font-size="8" font-weight="700" font-style="normal" 
>
<text fill="#000000" fill-opacity="1" stroke="none" xml:space="preserve" x="186" y="122" font-family="Arial" font-size="8" font-weight="700" font-style="normal" 
 >catégorie_AP929 : </text>
</g>

<g fill="none" stroke="#000000" stroke-opacity="1" vector-effect="non-scaling-stroke" stroke-width="1" stroke-linecap="square" stroke-linejoin="bevel" transform="matrix(1,0,0,1,0,0)"
font-family="Arial" font-size="8" font-weight="400" font-style="normal" 
>
<text fill="#000000" fill-opacity="1" stroke="none" xml:space="preserve" x="310" y="122" font-family="Arial" font-size="8" font-weight="400" font-style="normal" 
 >exigence_de_conception</text>
</g>

<g fill="none" stroke="none" transform="matrix(1,0,0,1,0,0)"
font-family="Arial" font-size="8" font-weight="400" font-style="normal" 
>
<path fill-rule="evenodd" d="M185,154 L460,154 L460,244 L185,244 L185,154"/>
</g>

<g fill="none" stroke="#000000" stroke-opacity="1" vector-effect="non-scaling-stroke" stroke-width="1" stroke-linecap="square" stroke-linejoin="bevel" transform="matrix(1,0,0,1,0,0)"
font-family="Arial" font-size="8" font-weight="400" font-style="normal" 
>
<path fill-rule="evenodd" d="M185,157 C185,155.343 186.343,154 188,154 L457,154 C458.657,154 460,155.343 460,157 L460,241 C460,242.657 458.657,244 457,244 L188,244 C186.343,244 185,242.657 185,241 L185,157"/>
<polyline fill="none" points="185,169 460,169 " />
</g>

<g fill="none" stroke="#ff0000" stroke-opacity="1" vector-effect="non-scaling-stroke" stroke-width="1" stroke-linecap="square" stroke-linejoin="bevel" transform="matrix(1,0,0,1,0,0)"
font-family="Arial" font-size="8" font-weight="700" font-style="normal" 
>
<text fill="#ff0000" fill-opacity="1" stroke="none" xml:space="preserve" x="186" y="166" font-family="Arial" font-size="8" font-weight="700" font-style="normal" 
 >Contexte_de_service</text>
</g>

<g fill="none" stroke="#000000" stroke-opacity="1" vector-effect="non-scaling-stroke" stroke-width="1" stroke-linecap="square" stroke-linejoin="bevel" transform="matrix(1,0,0,1,0,0)"
font-family="Arial" font-size="8" font-weight="700" font-style="normal" 
>
<text fill="#000000" fill-opacity="1" stroke="none" xml:space="preserve" x="186" y="181" font-family="Arial" font-size="8" font-weight="700" font-style="normal" 
 >terrain : </text>
</g>

<g fill="none" stroke="#000000" stroke-opacity="1" vector-effect="non-scaling-stroke" stroke-width="1" stroke-linecap="square" stroke-linejoin="bevel" transform="matrix(1,0,0,1,0,0)"
font-family="Arial" font-size="8" font-weight="400" font-style="normal" 
>
<text fill="#000000" fill-opacity="1" stroke="none" xml:space="preserve" x="310" y="181" font-family="Arial" font-size="8" font-weight="400" font-style="normal" 
 >true</text>
</g>

<g fill="none" stroke="#ff0000" stroke-opacity="1" vector-effect="non-scaling-stroke" stroke-width="1" stroke-linecap="square" stroke-linejoin="bevel" transform="matrix(1,0,0,1,0,0)"
font-family="Arial" font-size="8" font-weight="700" font-style="normal" 
>
<text fill="#ff0000" fill-opacity="1" stroke="none" xml:space="preserve" x="310" y="166" font-family="Arial" font-size="8" font-weight="700" font-style="normal" 
 >ctx.cs.DiagPTR022PO</text>
</g>

<g fill="none" stroke="#000000" stroke-opacity="1" vector-effect="non-scaling-stroke" stroke-width="1" stroke-linecap="square" stroke-linejoin="bevel" transform="matrix(1,0,0,1,0,0)"
font-family="Arial" font-size="8" font-weight="700" font-style="normal" 
>
<text fill="#000000" fill-opacity="1" stroke="none" xml:space="preserve" x="186" y="196" font-family="Arial" font-size="8" font-weight="700" font-style="normal" 
 >métier : </text>
</g>

<g fill="none" stroke="#000000" stroke-opacity="1" vector-effect="non-scaling-stroke" stroke-width="1" stroke-linecap="square" stroke-linejoin="bevel" transform="matrix(1,0,0,1,0,0)"
font-family="Arial" font-size="8" font-weight="400" font-style="normal" 
>
<text fill="#000000" fill-opacity="1" stroke="none" xml:space="preserve" x="310" y="196" font-family="Arial" font-size="8" font-weight="400" font-style="normal" 
 >chimie</text>
</g>

<g fill="none" stroke="#000000" stroke-opacity="1" vector-effect="non-scaling-stroke" stroke-width="1" stroke-linecap="square" stroke-linejoin="bevel" transform="matrix(1,0,0,1,0,0)"
font-family="Arial" font-size="8" font-weight="700" font-style="normal" 
>
<text fill="#000000" fill-opacity="1" stroke="none" xml:space="preserve" x="186" y="211" font-family="Arial" font-size="8" font-weight="700" font-style="normal" 
 >mode_de_fonctionnement : </text>
</g>

<g fill="none" stroke="#000000" stroke-opacity="1" vector-effect="non-scaling-stroke" stroke-width="1" stroke-linecap="square" stroke-linejoin="bevel" transform="matrix(1,0,0,1,0,0)"
font-family="Arial" font-size="8" font-weight="400" font-style="normal" 
>
<text fill="#000000" fill-opacity="1" stroke="none" xml:space="preserve" x="310" y="211" font-family="Arial" font-size="8" font-weight="400" font-style="normal" 
 >RCD</text>
</g>

<g fill="none" stroke="#000000" stroke-opacity="1" vector-effect="non-scaling-stroke" stroke-width="1" stroke-linecap="square" stroke-linejoin="bevel" transform="matrix(1,0,0,1,0,0)"
font-family="Arial" font-size="8" font-weight="700" font-style="normal" 
>
<text fill="#000000" fill-opacity="1" stroke="none" xml:space="preserve" x="186" y="226" font-family="Arial" font-size="8" font-weight="700" font-style="normal" 
 >définition : </text>
</g>

<g fill="none" stroke="#000000" stroke-opacity="1" vector-effect="non-scaling-stroke" stroke-width="1" stroke-linecap="square" stroke-linejoin="bevel" transform="matrix(1,0,0,1,0,0)"
font-family="Arial" font-size="8" font-weight="400" font-style="normal" 
>
<text fill="#000000" fill-opacity="1" stroke="none" xml:space="preserve" x="310" y="226" font-family="Arial" font-size="8" font-weight="400" font-style="normal" 
 >Diagnostic PTR022PO</text>
</g>

<g fill="none" stroke="#000000" stroke-opacity="1" vector-effect="non-scaling-stroke" stroke-width="1" stroke-linecap="square" stroke-linejoin="bevel" transform="matrix(1,0,0,1,0,0)"
font-family="Arial" font-size="8" font-weight="700" font-style="normal" 
>
<text fill="#000000" fill-opacity="1" stroke="none" xml:space="preserve" x="186" y="241" font-family="Arial" font-size="8" font-weight="700" font-style="normal" 
 >catégorie_AP929 : </text>
</g>

<g fill="none" stroke="#000000" stroke-opacity="1" vector-effect="non-scaling-stroke" stroke-width="1" stroke-linecap="square" stroke-linejoin="bevel" transform="matrix(1,0,0,1,0,0)"
font-family="Arial" font-size="8" font-weight="400" font-style="normal" 
>
<text fill="#000000" fill-opacity="1" stroke="none" xml:space="preserve" x="310" y="241" font-family="Arial" font-size="8" font-weight="400" font-style="normal" 
 >exigence_de_conception</text>
</g>

<g fill="none" stroke="none" transform="matrix(1,0,0,1,0,0)"
font-family="Arial" font-size="8" font-weight="400" font-style="normal" 
>
<path fill-rule="evenodd" d="M480,20 L685,20 L685,50 L480,50 L480,20"/>
</g>

<g fill="none" stroke="#000000" stroke-opacity="1" vector-effect="non-scaling-stroke" stroke-width="1" stroke-linecap="square" stroke-linejoin="bevel" transform="matrix(1,0,0,1,0,0)"
font-family="Arial" font-size="8" font-weight="400" font-style="normal" 
>
<path fill-rule="evenodd" d="M480,23 C480,21.3431 481.343,20 483,20 L682,20 C683.657,20 685,21.3431 685,23 L685,47 C685,48.6569 683.657,50 682,50 L483,50 C481.343,50 480,48.6569 480,47 L480,23"/>
<polyline fill="none" points="480,35 685,35 " />
</g>

<g fill="none" stroke="#ff0000" stroke-opacity="1" vector-effect="non-scaling-stroke" stroke-width="1" stroke-linecap="square" stroke-linejoin="bevel" transform="matrix(1,0,0,1,0,0)"
font-family="Arial" font-size="8" font-weight="700" font-style="normal" 
>
<text fill="#ff0000" fill-opacity="1" stroke="none" xml:space="preserve" x="481" y="32" font-family="Arial" font-size="8" font-weight="700" font-style="normal" 
 >Tranche</text>
</g>

<g fill="none" stroke="#ff0000" stroke-opacity="1" vector-effect="non-scaling-stroke" stroke-width="1" stroke-linecap="square" stroke-linejoin="bevel" transform="matrix(1,0,0,1,0,0)"
font-family="Arial" font-size="8" font-weight="700" font-style="normal" 
>
<text fill="#ff0000" fill-opacity="1" stroke="none" xml:space="preserve" x="550" y="32" font-family="Arial" font-size="8" font-weight="700" font-style="normal" 
 >dom.tr.LEGO</text>
</g>

<g fill="none" stroke="#000000" stroke-opacity="1" vector-effect="non-scaling-stroke" stroke-width="1" stroke-linecap="square" stroke-linejoin="bevel" transform="matrix(1,0,0,1,0,0)"
font-family="Arial" font-size="8" font-weight="700" font-style="normal" 
>
<text fill="#000000" fill-opacity="1" stroke="none" xml:space="preserve" x="481" y="47" font-family="Arial" font-size="8" font-weight="700" font-style="normal" 
 >définition : </text>
</g>

<g fill="none" stroke="#000000" stroke-opacity="1" vector-effect="non-scaling-stroke" stroke-width="1" stroke-linecap="square" stroke-linejoin="bevel" transform="matrix(1,0,0,1,0,0)"
font-family="Arial" font-size="8" font-weight="400" font-style="normal" 
>
<text fill="#000000" fill-opacity="1" stroke="none" xml:space="preserve" x="550" y="47" font-family="Arial" font-size="8" font-weight="400" font-style="normal" 
 >Centrale simulée CONNEXION</text>
</g>

<g fill="none" stroke="none" transform="matrix(1,0,0,1,0,0)"
font-family="Arial" font-size="8" font-weight="400" font-style="normal" 
>
<path fill-rule="evenodd" d="M705,20 L965,20 L965,65 L705,65 L705,20"/>
</g>

<g fill="none" stroke="#000000" stroke-opacity="1" vector-effect="non-scaling-stroke" stroke-width="1" stroke-linecap="square" stroke-linejoin="bevel" transform="matrix(1,0,0,1,0,0)"
font-family="Arial" font-size="8" font-weight="400" font-style="normal" 
>
<path fill-rule="evenodd" d="M705,23 C705,21.3431 706.343,20 708,20 L962,20 C963.657,20 965,21.3431 965,23 L965,62 C965,63.6569 963.657,65 962,65 L708,65 C706.343,65 705,63.6569 705,62 L705,23"/>
<polyline fill="none" points="705,35 965,35 " />
</g>

<g fill="none" stroke="#ff0000" stroke-opacity="1" vector-effect="non-scaling-stroke" stroke-width="1" stroke-linecap="square" stroke-linejoin="bevel" transform="matrix(1,0,0,1,0,0)"
font-family="Arial" font-size="8" font-weight="700" font-style="normal" 
>
<text fill="#ff0000" fill-opacity="1" stroke="none" xml:space="preserve" x="706" y="32" font-family="Arial" font-size="8" font-weight="700" font-style="normal" 
 >Système_élémentaire</text>
</g>

<g fill="none" stroke="#ff0000" stroke-opacity="1" vector-effect="non-scaling-stroke" stroke-width="1" stroke-linecap="square" stroke-linejoin="bevel" transform="matrix(1,0,0,1,0,0)"
font-family="Arial" font-size="8" font-weight="700" font-style="normal" 
>
<text fill="#ff0000" fill-opacity="1" stroke="none" xml:space="preserve" x="815" y="32" font-family="Arial" font-size="8" font-weight="700" font-style="normal" 
 >dom.se.RCV</text>
</g>

<g fill="none" stroke="#000000" stroke-opacity="1" vector-effect="non-scaling-stroke" stroke-width="1" stroke-linecap="square" stroke-linejoin="bevel" transform="matrix(1,0,0,1,0,0)"
font-family="Arial" font-size="8" font-weight="700" font-style="normal" 
>
<text fill="#000000" fill-opacity="1" stroke="none" xml:space="preserve" x="706" y="47" font-family="Arial" font-size="8" font-weight="700" font-style="normal" 
 >définition : </text>
</g>

<g fill="none" stroke="#000000" stroke-opacity="1" vector-effect="non-scaling-stroke" stroke-width="1" stroke-linecap="square" stroke-linejoin="bevel" transform="matrix(1,0,0,1,0,0)"
font-family="Arial" font-size="8" font-weight="400" font-style="normal" 
>
<text fill="#000000" fill-opacity="1" stroke="none" xml:space="preserve" x="815" y="47" font-family="Arial" font-size="8" font-weight="400" font-style="normal" 
 >Contrôle chimique et</text>
<text fill="#000000" fill-opacity="1" stroke="none" xml:space="preserve" x="815" y="62" font-family="Arial" font-size="8" font-weight="400" font-style="normal" 
 > volumétrique</text>
</g>

<g fill="none" stroke="none" transform="matrix(1,0,0,1,0,0)"
font-family="Arial" font-size="8" font-weight="400" font-style="normal" 
>
<path fill-rule="evenodd" d="M705,94 L965,94 L965,124 L705,124 L705,94"/>
</g>

<g fill="none" stroke="#000000" stroke-opacity="1" vector-effect="non-scaling-stroke" stroke-width="1" stroke-linecap="square" stroke-linejoin="bevel" transform="matrix(1,0,0,1,0,0)"
font-family="Arial" font-size="8" font-weight="400" font-style="normal" 
>
<path fill-rule="evenodd" d="M705,97 C705,95.3431 706.343,94 708,94 L962,94 C963.657,94 965,95.3431 965,97 L965,121 C965,122.657 963.657,124 962,124 L708,124 C706.343,124 705,122.657 705,121 L705,97"/>
<polyline fill="none" points="705,109 965,109 " />
</g>

<g fill="none" stroke="#ff0000" stroke-opacity="1" vector-effect="non-scaling-stroke" stroke-width="1" stroke-linecap="square" stroke-linejoin="bevel" transform="matrix(1,0,0,1,0,0)"
font-family="Arial" font-size="8" font-weight="700" font-style="normal" 
>
<text fill="#ff0000" fill-opacity="1" stroke="none" xml:space="preserve" x="706" y="106" font-family="Arial" font-size="8" font-weight="700" font-style="normal" 
 >Système_élémentaire</text>
</g>

<g fill="none" stroke="#ff0000" stroke-opacity="1" vector-effect="non-scaling-stroke" stroke-width="1" stroke-linecap="square" stroke-linejoin="bevel" transform="matrix(1,0,0,1,0,0)"
font-family="Arial" font-size="8" font-weight="700" font-style="normal" 
>
<text fill="#ff0000" fill-opacity="1" stroke="none" xml:space="preserve" x="815" y="106" font-family="Arial" font-size="8" font-weight="700" font-style="normal" 
 >dom.se.REA</text>
</g>

<g fill="none" stroke="#000000" stroke-opacity="1" vector-effect="non-scaling-stroke" stroke-width="1" stroke-linecap="square" stroke-linejoin="bevel" transform="matrix(1,0,0,1,0,0)"
font-family="Arial" font-size="8" font-weight="700" font-style="normal" 
>
<text fill="#000000" fill-opacity="1" stroke="none" xml:space="preserve" x="706" y="121" font-family="Arial" font-size="8" font-weight="700" font-style="normal" 
 >définition : </text>
</g>

<g fill="none" stroke="#000000" stroke-opacity="1" vector-effect="non-scaling-stroke" stroke-width="1" stroke-linecap="square" stroke-linejoin="bevel" transform="matrix(1,0,0,1,0,0)"
font-family="Arial" font-size="8" font-weight="400" font-style="normal" 
>
<text fill="#000000" fill-opacity="1" stroke="none" xml:space="preserve" x="815" y="121" font-family="Arial" font-size="8" font-weight="400" font-style="normal" 
 >Appoint d'eau au réacteur</text>
</g>

<g fill="none" stroke="none" transform="matrix(1,0,0,1,0,0)"
font-family="Arial" font-size="8" font-weight="400" font-style="normal" 
>
<path fill-rule="evenodd" d="M705,153 L965,153 L965,198 L705,198 L705,153"/>
</g>

<g fill="none" stroke="#000000" stroke-opacity="1" vector-effect="non-scaling-stroke" stroke-width="1" stroke-linecap="square" stroke-linejoin="bevel" transform="matrix(1,0,0,1,0,0)"
font-family="Arial" font-size="8" font-weight="400" font-style="normal" 
>
<path fill-rule="evenodd" d="M705,156 C705,154.343 706.343,153 708,153 L962,153 C963.657,153 965,154.343 965,156 L965,195 C965,196.657 963.657,198 962,198 L708,198 C706.343,198 705,196.657 705,195 L705,156"/>
<polyline fill="none" points="705,168 965,168 " />
</g>

<g fill="none" stroke="#ff0000" stroke-opacity="1" vector-effect="non-scaling-stroke" stroke-width="1" stroke-linecap="square" stroke-linejoin="bevel" transform="matrix(1,0,0,1,0,0)"
font-family="Arial" font-size="8" font-weight="700" font-style="normal" 
>
<text fill="#ff0000" fill-opacity="1" stroke="none" xml:space="preserve" x="706" y="165" font-family="Arial" font-size="8" font-weight="700" font-style="normal" 
 >Système_élémentaire</text>
</g>

<g fill="none" stroke="#ff0000" stroke-opacity="1" vector-effect="non-scaling-stroke" stroke-width="1" stroke-linecap="square" stroke-linejoin="bevel" transform="matrix(1,0,0,1,0,0)"
font-family="Arial" font-size="8" font-weight="700" font-style="normal" 
>
<text fill="#ff0000" fill-opacity="1" stroke="none" xml:space="preserve" x="815" y="165" font-family="Arial" font-size="8" font-weight="700" font-style="normal" 
 >dom.se.PTR</text>
</g>

<g fill="none" stroke="#000000" stroke-opacity="1" vector-effect="non-scaling-stroke" stroke-width="1" stroke-linecap="square" stroke-linejoin="bevel" transform="matrix(1,0,0,1,0,0)"
font-family="Arial" font-size="8" font-weight="700" font-style="normal" 
>
<text fill="#000000" fill-opacity="1" stroke="none" xml:space="preserve" x="706" y="180" font-family="Arial" font-size="8" font-weight="700" font-style="normal" 
 >définition : </text>
</g>

<g fill="none" stroke="#000000" stroke-opacity="1" vector-effect="non-scaling-stroke" stroke-width="1" stroke-linecap="square" stroke-linejoin="bevel" transform="matrix(1,0,0,1,0,0)"
font-family="Arial" font-size="8" font-weight="400" font-style="normal" 
>
<text fill="#000000" fill-opacity="1" stroke="none" xml:space="preserve" x="815" y="180" font-family="Arial" font-size="8" font-weight="400" font-style="normal" 
 >Refroidissement et</text>
<text fill="#000000" fill-opacity="1" stroke="none" xml:space="preserve" x="815" y="195" font-family="Arial" font-size="8" font-weight="400" font-style="normal" 
 > conditionnement des piscines</text>
</g>

<g fill="none" stroke="none" transform="matrix(1,0,0,1,0,0)"
font-family="Arial" font-size="8" font-weight="400" font-style="normal" 
>
<path fill-rule="evenodd" d="M705,227 L965,227 L965,272 L705,272 L705,227"/>
</g>

<g fill="none" stroke="#000000" stroke-opacity="1" vector-effect="non-scaling-stroke" stroke-width="1" stroke-linecap="square" stroke-linejoin="bevel" transform="matrix(1,0,0,1,0,0)"
font-family="Arial" font-size="8" font-weight="400" font-style="normal" 
>
<path fill-rule="evenodd" d="M705,230 C705,228.343 706.343,227 708,227 L962,227 C963.657,227 965,228.343 965,230 L965,269 C965,270.657 963.657,272 962,272 L708,272 C706.343,272 705,270.657 705,269 L705,230"/>
<polyline fill="none" points="705,242 965,242 " />
</g>

<g fill="none" stroke="#ff0000" stroke-opacity="1" vector-effect="non-scaling-stroke" stroke-width="1" stroke-linecap="square" stroke-linejoin="bevel" transform="matrix(1,0,0,1,0,0)"
font-family="Arial" font-size="8" font-weight="700" font-style="normal" 
>
<text fill="#ff0000" fill-opacity="1" stroke="none" xml:space="preserve" x="706" y="239" font-family="Arial" font-size="8" font-weight="700" font-style="normal" 
 >Système_élémentaire</text>
</g>

<g fill="none" stroke="#ff0000" stroke-opacity="1" vector-effect="non-scaling-stroke" stroke-width="1" stroke-linecap="square" stroke-linejoin="bevel" transform="matrix(1,0,0,1,0,0)"
font-family="Arial" font-size="8" font-weight="700" font-style="normal" 
>
<text fill="#ff0000" fill-opacity="1" stroke="none" xml:space="preserve" x="815" y="239" font-family="Arial" font-size="8" font-weight="700" font-style="normal" 
 >dom.se.RRA</text>
</g>

<g fill="none" stroke="#000000" stroke-opacity="1" vector-effect="non-scaling-stroke" stroke-width="1" stroke-linecap="square" stroke-linejoin="bevel" transform="matrix(1,0,0,1,0,0)"
font-family="Arial" font-size="8" font-weight="700" font-style="normal" 
>
<text fill="#000000" fill-opacity="1" stroke="none" xml:space="preserve" x="706" y="254" font-family="Arial" font-size="8" font-weight="700" font-style="normal" 
 >définition : </text>
</g>

<g fill="none" stroke="#000000" stroke-opacity="1" vector-effect="non-scaling-stroke" stroke-width="1" stroke-linecap="square" stroke-linejoin="bevel" transform="matrix(1,0,0,1,0,0)"
font-family="Arial" font-size="8" font-weight="400" font-style="normal" 
>
<text fill="#000000" fill-opacity="1" stroke="none" xml:space="preserve" x="815" y="254" font-family="Arial" font-size="8" font-weight="400" font-style="normal" 
 >Refroidissement du réacteur</text>
<text fill="#000000" fill-opacity="1" stroke="none" xml:space="preserve" x="815" y="269" font-family="Arial" font-size="8" font-weight="400" font-style="normal" 
 > à l'arrêt</text>
</g>

<g fill="none" stroke="none" transform="matrix(1,0,0,1,0,0)"
font-family="Arial" font-size="8" font-weight="400" font-style="normal" 
>
<path fill-rule="evenodd" d="M705,301 L965,301 L965,346 L705,346 L705,301"/>
</g>

<g fill="none" stroke="#000000" stroke-opacity="1" vector-effect="non-scaling-stroke" stroke-width="1" stroke-linecap="square" stroke-linejoin="bevel" transform="matrix(1,0,0,1,0,0)"
font-family="Arial" font-size="8" font-weight="400" font-style="normal" 
>
<path fill-rule="evenodd" d="M705,304 C705,302.343 706.343,301 708,301 L962,301 C963.657,301 965,302.343 965,304 L965,343 C965,344.657 963.657,346 962,346 L708,346 C706.343,346 705,344.657 705,343 L705,304"/>
<polyline fill="none" points="705,316 965,316 " />
</g>

<g fill="none" stroke="#ff0000" stroke-opacity="1" vector-effect="non-scaling-stroke" stroke-width="1" stroke-linecap="square" stroke-linejoin="bevel" transform="matrix(1,0,0,1,0,0)"
font-family="Arial" font-size="8" font-weight="700" font-style="normal" 
>
<text fill="#ff0000" fill-opacity="1" stroke="none" xml:space="preserve" x="706" y="313" font-family="Arial" font-size="8" font-weight="700" font-style="normal" 
 >Système_élémentaire</text>
</g>

<g fill="none" stroke="#ff0000" stroke-opacity="1" vector-effect="non-scaling-stroke" stroke-width="1" stroke-linecap="square" stroke-linejoin="bevel" transform="matrix(1,0,0,1,0,0)"
font-family="Arial" font-size="8" font-weight="700" font-style="normal" 
>
<text fill="#ff0000" fill-opacity="1" stroke="none" xml:space="preserve" x="815" y="313" font-family="Arial" font-size="8" font-weight="700" font-style="normal" 
 >dom.se.TEP</text>
</g>

<g fill="none" stroke="#000000" stroke-opacity="1" vector-effect="non-scaling-stroke" stroke-width="1" stroke-linecap="square" stroke-linejoin="bevel" transform="matrix(1,0,0,1,0,0)"
font-family="Arial" font-size="8" font-weight="700" font-style="normal" 
>
<text fill="#000000" fill-opacity="1" stroke="none" xml:space="preserve" x="706" y="328" font-family="Arial" font-size="8" font-weight="700" font-style="normal" 
 >définition : </text>
</g>

<g fill="none" stroke="#000000" stroke-opacity="1" vector-effect="non-scaling-stroke" stroke-width="1" stroke-linecap="square" stroke-linejoin="bevel" transform="matrix(1,0,0,1,0,0)"
font-family="Arial" font-size="8" font-weight="400" font-style="normal" 
>
<text fill="#000000" fill-opacity="1" stroke="none" xml:space="preserve" x="815" y="328" font-family="Arial" font-size="8" font-weight="400" font-style="normal" 
 >Traitement des effluents</text>
<text fill="#000000" fill-opacity="1" stroke="none" xml:space="preserve" x="815" y="343" font-family="Arial" font-size="8" font-weight="400" font-style="normal" 
 > primaires</text>
</g>

<g fill="none" stroke="#0e32c8" stroke-opacity="1" vector-effect="non-scaling-stroke" stroke-width="1" stroke-linecap="square" stroke-linejoin="bevel" transform="matrix(1,0,0,1,0,0)"
font-family="Arial" font-size="8" font-weight="400" font-style="normal" 
>
<polyline fill="none" points="201,130 83,251 " />
<polyline fill="none" points="339,85 705,101 " />
<polyline fill="none" points="201,130 335,210 " />
<polyline fill="none" points="203,363 236,362 " />
<polyline fill="none" points="511,362 705,101 " />
<polyline fill="none" points="373,310 335,240 " />
</g>
</g>
</svg>
