<?xml version="1.0" encoding="UTF-8" standalone="no"?>
<svg width="705.556mm" height="184.503mm"
 viewBox="0 0 2000 523"
 xmlns="http://www.w3.org/2000/svg" xmlns:xlink="http://www.w3.org/1999/xlink"  version="1.2" baseProfile="tiny">
<title>SVG Generator Example Drawing</title>
<desc>Dessin svg pour une démonstration</desc>
<defs>
</defs>
<g fill="none" stroke="black" stroke-width="1" fill-rule="evenodd" stroke-linecap="square" stroke-linejoin="bevel" >

<g fill="none" stroke="none" transform="matrix(1,0,0,1,0,0)"
font-family=".Helvetica Neue DeskInterface" font-size="13" font-weight="400" font-style="normal" 
>
<path vector-effect="non-scaling-stroke" fill-rule="evenodd" d="M20,20 L165,20 L165,50 L20,50 L20,20"/>
</g>

<g fill="none" stroke="#000000" stroke-opacity="1" stroke-width="1" stroke-linecap="square" stroke-linejoin="bevel" transform="matrix(1,0,0,1,0,0)"
font-family=".Helvetica Neue DeskInterface" font-size="13" font-weight="400" font-style="normal" 
>
<path vector-effect="non-scaling-stroke" fill-rule="evenodd" d="M20,23 C20,21.3431 21.3431,20 23,20 L162,20 C163.657,20 165,21.3431 165,23 L165,47 C165,48.6569 163.657,50 162,50 L23,50 C21.3431,50 20,48.6569 20,47 L20,23"/>
<polyline fill="none" vector-effect="non-scaling-stroke" points="20,35 165,35 " />
</g>

<g fill="none" stroke="#ff0000" stroke-opacity="1" stroke-width="1" stroke-linecap="square" stroke-linejoin="bevel" transform="matrix(1,0,0,1,0,0)"
font-family="Arial" font-size="8" font-weight="700" font-style="normal" 
>
<text fill="#ff0000" fill-opacity="1" stroke="none" xml:space="preserve" x="21" y="32" font-family="Arial" font-size="8" font-weight="700" font-style="normal" 
 >Equipement</text>
</g>

<g fill="none" stroke="#ff0000" stroke-opacity="1" stroke-width="1" stroke-linecap="square" stroke-linejoin="bevel" transform="matrix(1,0,0,1,0,0)"
font-family="Arial" font-size="8" font-weight="700" font-style="normal" 
>
<text fill="#ff0000" fill-opacity="1" stroke="none" xml:space="preserve" x="90" y="32" font-family="Arial" font-size="8" font-weight="700" font-style="normal" 
 >dom.eq.PTR021PO</text>
</g>

<g fill="none" stroke="#000000" stroke-opacity="1" stroke-width="1" stroke-linecap="square" stroke-linejoin="bevel" transform="matrix(1,0,0,1,0,0)"
font-family="Arial" font-size="8" font-weight="700" font-style="normal" 
>
<text fill="#000000" fill-opacity="1" stroke="none" xml:space="preserve" x="21" y="47" font-family="Arial" font-size="8" font-weight="700" font-style="normal" 
 >catégorie : </text>
</g>

<g fill="none" stroke="#000000" stroke-opacity="1" stroke-width="1" stroke-linecap="square" stroke-linejoin="bevel" transform="matrix(1,0,0,1,0,0)"
font-family="Arial" font-size="8" font-weight="400" font-style="normal" 
>
<text fill="#000000" fill-opacity="1" stroke="none" xml:space="preserve" x="90" y="47" font-family="Arial" font-size="8" font-weight="400" font-style="normal" 
 >Pompe</text>
</g>

<g fill="none" stroke="none" transform="matrix(1,0,0,1,0,0)"
font-family="Arial" font-size="8" font-weight="400" font-style="normal" 
>
<path vector-effect="non-scaling-stroke" fill-rule="evenodd" d="M20,79 L165,79 L165,109 L20,109 L20,79"/>
</g>

<g fill="none" stroke="#000000" stroke-opacity="1" stroke-width="1" stroke-linecap="square" stroke-linejoin="bevel" transform="matrix(1,0,0,1,0,0)"
font-family="Arial" font-size="8" font-weight="400" font-style="normal" 
>
<path vector-effect="non-scaling-stroke" fill-rule="evenodd" d="M20,82 C20,80.3431 21.3431,79 23,79 L162,79 C163.657,79 165,80.3431 165,82 L165,106 C165,107.657 163.657,109 162,109 L23,109 C21.3431,109 20,107.657 20,106 L20,82"/>
<polyline fill="none" vector-effect="non-scaling-stroke" points="20,94 165,94 " />
</g>

<g fill="none" stroke="#ff0000" stroke-opacity="1" stroke-width="1" stroke-linecap="square" stroke-linejoin="bevel" transform="matrix(1,0,0,1,0,0)"
font-family="Arial" font-size="8" font-weight="700" font-style="normal" 
>
<text fill="#ff0000" fill-opacity="1" stroke="none" xml:space="preserve" x="21" y="91" font-family="Arial" font-size="8" font-weight="700" font-style="normal" 
 >Equipement</text>
</g>

<g fill="none" stroke="#ff0000" stroke-opacity="1" stroke-width="1" stroke-linecap="square" stroke-linejoin="bevel" transform="matrix(1,0,0,1,0,0)"
font-family="Arial" font-size="8" font-weight="700" font-style="normal" 
>
<text fill="#ff0000" fill-opacity="1" stroke="none" xml:space="preserve" x="90" y="91" font-family="Arial" font-size="8" font-weight="700" font-style="normal" 
 >dom.eq.PTR022PO</text>
</g>

<g fill="none" stroke="#000000" stroke-opacity="1" stroke-width="1" stroke-linecap="square" stroke-linejoin="bevel" transform="matrix(1,0,0,1,0,0)"
font-family="Arial" font-size="8" font-weight="700" font-style="normal" 
>
<text fill="#000000" fill-opacity="1" stroke="none" xml:space="preserve" x="21" y="106" font-family="Arial" font-size="8" font-weight="700" font-style="normal" 
 >catégorie : </text>
</g>

<g fill="none" stroke="#000000" stroke-opacity="1" stroke-width="1" stroke-linecap="square" stroke-linejoin="bevel" transform="matrix(1,0,0,1,0,0)"
font-family="Arial" font-size="8" font-weight="400" font-style="normal" 
>
<text fill="#000000" fill-opacity="1" stroke="none" xml:space="preserve" x="90" y="106" font-family="Arial" font-size="8" font-weight="400" font-style="normal" 
 >Pompe</text>
</g>

<g fill="none" stroke="none" transform="matrix(1,0,0,1,0,0)"
font-family="Arial" font-size="8" font-weight="400" font-style="normal" 
>
<path vector-effect="non-scaling-stroke" fill-rule="evenodd" d="M185,20 L530,20 L530,65 L185,65 L185,20"/>
</g>

<g fill="none" stroke="#000000" stroke-opacity="1" stroke-width="1" stroke-linecap="square" stroke-linejoin="bevel" transform="matrix(1,0,0,1,0,0)"
font-family="Arial" font-size="8" font-weight="400" font-style="normal" 
>
<path vector-effect="non-scaling-stroke" fill-rule="evenodd" d="M185,23 C185,21.3431 186.343,20 188,20 L527,20 C528.657,20 530,21.3431 530,23 L530,62 C530,63.6569 528.657,65 527,65 L188,65 C186.343,65 185,63.6569 185,62 L185,23"/>
<polyline fill="none" vector-effect="non-scaling-stroke" points="185,35 530,35 " />
</g>

<g fill="none" stroke="#ff0000" stroke-opacity="1" stroke-width="1" stroke-linecap="square" stroke-linejoin="bevel" transform="matrix(1,0,0,1,0,0)"
font-family="Arial" font-size="8" font-weight="700" font-style="normal" 
>
<text fill="#ff0000" fill-opacity="1" stroke="none" xml:space="preserve" x="186" y="32" font-family="Arial" font-size="8" font-weight="700" font-style="normal" 
 >Système_élémentaire</text>
</g>

<g fill="none" stroke="#ff0000" stroke-opacity="1" stroke-width="1" stroke-linecap="square" stroke-linejoin="bevel" transform="matrix(1,0,0,1,0,0)"
font-family="Arial" font-size="8" font-weight="700" font-style="normal" 
>
<text fill="#ff0000" fill-opacity="1" stroke="none" xml:space="preserve" x="295" y="32" font-family="Arial" font-size="8" font-weight="700" font-style="normal" 
 >dom.se.TEP</text>
</g>

<g fill="none" stroke="#000000" stroke-opacity="1" stroke-width="1" stroke-linecap="square" stroke-linejoin="bevel" transform="matrix(1,0,0,1,0,0)"
font-family="Arial" font-size="8" font-weight="700" font-style="normal" 
>
<text fill="#000000" fill-opacity="1" stroke="none" xml:space="preserve" x="186" y="47" font-family="Arial" font-size="8" font-weight="700" font-style="normal" 
 >définition : </text>
</g>

<g fill="none" stroke="#000000" stroke-opacity="1" stroke-width="1" stroke-linecap="square" stroke-linejoin="bevel" transform="matrix(1,0,0,1,0,0)"
font-family="Arial" font-size="8" font-weight="400" font-style="normal" 
>
<text fill="#000000" fill-opacity="1" stroke="none" xml:space="preserve" x="295" y="47" font-family="Arial" font-size="8" font-weight="400" font-style="normal" 
 >Traitement des effluents</text>
<text fill="#000000" fill-opacity="1" stroke="none" xml:space="preserve" x="295" y="62" font-family="Arial" font-size="8" font-weight="400" font-style="normal" 
 > primaires</text>
</g>

<g fill="none" stroke="none" transform="matrix(1,0,0,1,0,0)"
font-family="Arial" font-size="8" font-weight="400" font-style="normal" 
>
<path vector-effect="non-scaling-stroke" fill-rule="evenodd" d="M185,94 L530,94 L530,124 L185,124 L185,94"/>
</g>

<g fill="none" stroke="#000000" stroke-opacity="1" stroke-width="1" stroke-linecap="square" stroke-linejoin="bevel" transform="matrix(1,0,0,1,0,0)"
font-family="Arial" font-size="8" font-weight="400" font-style="normal" 
>
<path vector-effect="non-scaling-stroke" fill-rule="evenodd" d="M185,97 C185,95.3431 186.343,94 188,94 L527,94 C528.657,94 530,95.3431 530,97 L530,121 C530,122.657 528.657,124 527,124 L188,124 C186.343,124 185,122.657 185,121 L185,97"/>
<polyline fill="none" vector-effect="non-scaling-stroke" points="185,109 530,109 " />
</g>

<g fill="none" stroke="#ff0000" stroke-opacity="1" stroke-width="1" stroke-linecap="square" stroke-linejoin="bevel" transform="matrix(1,0,0,1,0,0)"
font-family="Arial" font-size="8" font-weight="700" font-style="normal" 
>
<text fill="#ff0000" fill-opacity="1" stroke="none" xml:space="preserve" x="186" y="106" font-family="Arial" font-size="8" font-weight="700" font-style="normal" 
 >Système_élémentaire</text>
</g>

<g fill="none" stroke="#ff0000" stroke-opacity="1" stroke-width="1" stroke-linecap="square" stroke-linejoin="bevel" transform="matrix(1,0,0,1,0,0)"
font-family="Arial" font-size="8" font-weight="700" font-style="normal" 
>
<text fill="#ff0000" fill-opacity="1" stroke="none" xml:space="preserve" x="295" y="106" font-family="Arial" font-size="8" font-weight="700" font-style="normal" 
 >dom.se.REA</text>
</g>

<g fill="none" stroke="#000000" stroke-opacity="1" stroke-width="1" stroke-linecap="square" stroke-linejoin="bevel" transform="matrix(1,0,0,1,0,0)"
font-family="Arial" font-size="8" font-weight="700" font-style="normal" 
>
<text fill="#000000" fill-opacity="1" stroke="none" xml:space="preserve" x="186" y="121" font-family="Arial" font-size="8" font-weight="700" font-style="normal" 
 >définition : </text>
</g>

<g fill="none" stroke="#000000" stroke-opacity="1" stroke-width="1" stroke-linecap="square" stroke-linejoin="bevel" transform="matrix(1,0,0,1,0,0)"
font-family="Arial" font-size="8" font-weight="400" font-style="normal" 
>
<text fill="#000000" fill-opacity="1" stroke="none" xml:space="preserve" x="295" y="121" font-family="Arial" font-size="8" font-weight="400" font-style="normal" 
 >Appoint d'eau au réacteur</text>
</g>

<g fill="none" stroke="none" transform="matrix(1,0,0,1,0,0)"
font-family="Arial" font-size="8" font-weight="400" font-style="normal" 
>
<path vector-effect="non-scaling-stroke" fill-rule="evenodd" d="M185,153 L530,153 L530,198 L185,198 L185,153"/>
</g>

<g fill="none" stroke="#000000" stroke-opacity="1" stroke-width="1" stroke-linecap="square" stroke-linejoin="bevel" transform="matrix(1,0,0,1,0,0)"
font-family="Arial" font-size="8" font-weight="400" font-style="normal" 
>
<path vector-effect="non-scaling-stroke" fill-rule="evenodd" d="M185,156 C185,154.343 186.343,153 188,153 L527,153 C528.657,153 530,154.343 530,156 L530,195 C530,196.657 528.657,198 527,198 L188,198 C186.343,198 185,196.657 185,195 L185,156"/>
<polyline fill="none" vector-effect="non-scaling-stroke" points="185,168 530,168 " />
</g>

<g fill="none" stroke="#ff0000" stroke-opacity="1" stroke-width="1" stroke-linecap="square" stroke-linejoin="bevel" transform="matrix(1,0,0,1,0,0)"
font-family="Arial" font-size="8" font-weight="700" font-style="normal" 
>
<text fill="#ff0000" fill-opacity="1" stroke="none" xml:space="preserve" x="186" y="165" font-family="Arial" font-size="8" font-weight="700" font-style="normal" 
 >Système_élémentaire</text>
</g>

<g fill="none" stroke="#ff0000" stroke-opacity="1" stroke-width="1" stroke-linecap="square" stroke-linejoin="bevel" transform="matrix(1,0,0,1,0,0)"
font-family="Arial" font-size="8" font-weight="700" font-style="normal" 
>
<text fill="#ff0000" fill-opacity="1" stroke="none" xml:space="preserve" x="295" y="165" font-family="Arial" font-size="8" font-weight="700" font-style="normal" 
 >dom.se.PTR</text>
</g>

<g fill="none" stroke="#000000" stroke-opacity="1" stroke-width="1" stroke-linecap="square" stroke-linejoin="bevel" transform="matrix(1,0,0,1,0,0)"
font-family="Arial" font-size="8" font-weight="700" font-style="normal" 
>
<text fill="#000000" fill-opacity="1" stroke="none" xml:space="preserve" x="186" y="180" font-family="Arial" font-size="8" font-weight="700" font-style="normal" 
 >définition : </text>
</g>

<g fill="none" stroke="#000000" stroke-opacity="1" stroke-width="1" stroke-linecap="square" stroke-linejoin="bevel" transform="matrix(1,0,0,1,0,0)"
font-family="Arial" font-size="8" font-weight="400" font-style="normal" 
>
<text fill="#000000" fill-opacity="1" stroke="none" xml:space="preserve" x="295" y="180" font-family="Arial" font-size="8" font-weight="400" font-style="normal" 
 >Refroidissement et</text>
<text fill="#000000" fill-opacity="1" stroke="none" xml:space="preserve" x="295" y="195" font-family="Arial" font-size="8" font-weight="400" font-style="normal" 
 > conditionnement des piscines</text>
</g>

<g fill="none" stroke="none" transform="matrix(1,0,0,1,0,0)"
font-family="Arial" font-size="8" font-weight="400" font-style="normal" 
>
<path vector-effect="non-scaling-stroke" fill-rule="evenodd" d="M185,227 L530,227 L530,272 L185,272 L185,227"/>
</g>

<g fill="none" stroke="#000000" stroke-opacity="1" stroke-width="1" stroke-linecap="square" stroke-linejoin="bevel" transform="matrix(1,0,0,1,0,0)"
font-family="Arial" font-size="8" font-weight="400" font-style="normal" 
>
<path vector-effect="non-scaling-stroke" fill-rule="evenodd" d="M185,230 C185,228.343 186.343,227 188,227 L527,227 C528.657,227 530,228.343 530,230 L530,269 C530,270.657 528.657,272 527,272 L188,272 C186.343,272 185,270.657 185,269 L185,230"/>
<polyline fill="none" vector-effect="non-scaling-stroke" points="185,242 530,242 " />
</g>

<g fill="none" stroke="#ff0000" stroke-opacity="1" stroke-width="1" stroke-linecap="square" stroke-linejoin="bevel" transform="matrix(1,0,0,1,0,0)"
font-family="Arial" font-size="8" font-weight="700" font-style="normal" 
>
<text fill="#ff0000" fill-opacity="1" stroke="none" xml:space="preserve" x="186" y="239" font-family="Arial" font-size="8" font-weight="700" font-style="normal" 
 >Système_élémentaire</text>
</g>

<g fill="none" stroke="#ff0000" stroke-opacity="1" stroke-width="1" stroke-linecap="square" stroke-linejoin="bevel" transform="matrix(1,0,0,1,0,0)"
font-family="Arial" font-size="8" font-weight="700" font-style="normal" 
>
<text fill="#ff0000" fill-opacity="1" stroke="none" xml:space="preserve" x="295" y="239" font-family="Arial" font-size="8" font-weight="700" font-style="normal" 
 >dom.se.RCV</text>
</g>

<g fill="none" stroke="#000000" stroke-opacity="1" stroke-width="1" stroke-linecap="square" stroke-linejoin="bevel" transform="matrix(1,0,0,1,0,0)"
font-family="Arial" font-size="8" font-weight="700" font-style="normal" 
>
<text fill="#000000" fill-opacity="1" stroke="none" xml:space="preserve" x="186" y="254" font-family="Arial" font-size="8" font-weight="700" font-style="normal" 
 >définition : </text>
</g>

<g fill="none" stroke="#000000" stroke-opacity="1" stroke-width="1" stroke-linecap="square" stroke-linejoin="bevel" transform="matrix(1,0,0,1,0,0)"
font-family="Arial" font-size="8" font-weight="400" font-style="normal" 
>
<text fill="#000000" fill-opacity="1" stroke="none" xml:space="preserve" x="295" y="254" font-family="Arial" font-size="8" font-weight="400" font-style="normal" 
 >Contrôle chimique et</text>
<text fill="#000000" fill-opacity="1" stroke="none" xml:space="preserve" x="295" y="269" font-family="Arial" font-size="8" font-weight="400" font-style="normal" 
 > volumétrique</text>
</g>

<g fill="none" stroke="none" transform="matrix(1,0,0,1,0,0)"
font-family="Arial" font-size="8" font-weight="400" font-style="normal" 
>
<path vector-effect="non-scaling-stroke" fill-rule="evenodd" d="M185,301 L530,301 L530,346 L185,346 L185,301"/>
</g>

<g fill="none" stroke="#000000" stroke-opacity="1" stroke-width="1" stroke-linecap="square" stroke-linejoin="bevel" transform="matrix(1,0,0,1,0,0)"
font-family="Arial" font-size="8" font-weight="400" font-style="normal" 
>
<path vector-effect="non-scaling-stroke" fill-rule="evenodd" d="M185,304 C185,302.343 186.343,301 188,301 L527,301 C528.657,301 530,302.343 530,304 L530,343 C530,344.657 528.657,346 527,346 L188,346 C186.343,346 185,344.657 185,343 L185,304"/>
<polyline fill="none" vector-effect="non-scaling-stroke" points="185,316 530,316 " />
</g>

<g fill="none" stroke="#ff0000" stroke-opacity="1" stroke-width="1" stroke-linecap="square" stroke-linejoin="bevel" transform="matrix(1,0,0,1,0,0)"
font-family="Arial" font-size="8" font-weight="700" font-style="normal" 
>
<text fill="#ff0000" fill-opacity="1" stroke="none" xml:space="preserve" x="186" y="313" font-family="Arial" font-size="8" font-weight="700" font-style="normal" 
 >Système_élémentaire</text>
</g>

<g fill="none" stroke="#ff0000" stroke-opacity="1" stroke-width="1" stroke-linecap="square" stroke-linejoin="bevel" transform="matrix(1,0,0,1,0,0)"
font-family="Arial" font-size="8" font-weight="700" font-style="normal" 
>
<text fill="#ff0000" fill-opacity="1" stroke="none" xml:space="preserve" x="295" y="313" font-family="Arial" font-size="8" font-weight="700" font-style="normal" 
 >dom.se.RRA</text>
</g>

<g fill="none" stroke="#000000" stroke-opacity="1" stroke-width="1" stroke-linecap="square" stroke-linejoin="bevel" transform="matrix(1,0,0,1,0,0)"
font-family="Arial" font-size="8" font-weight="700" font-style="normal" 
>
<text fill="#000000" fill-opacity="1" stroke="none" xml:space="preserve" x="186" y="328" font-family="Arial" font-size="8" font-weight="700" font-style="normal" 
 >définition : </text>
</g>

<g fill="none" stroke="#000000" stroke-opacity="1" stroke-width="1" stroke-linecap="square" stroke-linejoin="bevel" transform="matrix(1,0,0,1,0,0)"
font-family="Arial" font-size="8" font-weight="400" font-style="normal" 
>
<text fill="#000000" fill-opacity="1" stroke="none" xml:space="preserve" x="295" y="328" font-family="Arial" font-size="8" font-weight="400" font-style="normal" 
 >Refroidissement du réacteur</text>
<text fill="#000000" fill-opacity="1" stroke="none" xml:space="preserve" x="295" y="343" font-family="Arial" font-size="8" font-weight="400" font-style="normal" 
 > à l'arrêt</text>
</g>

<g fill="none" stroke="none" transform="matrix(1,0,0,1,0,0)"
font-family="Arial" font-size="8" font-weight="400" font-style="normal" 
>
<path vector-effect="non-scaling-stroke" fill-rule="evenodd" d="M550,20 L755,20 L755,50 L550,50 L550,20"/>
</g>

<g fill="none" stroke="#000000" stroke-opacity="1" stroke-width="1" stroke-linecap="square" stroke-linejoin="bevel" transform="matrix(1,0,0,1,0,0)"
font-family="Arial" font-size="8" font-weight="400" font-style="normal" 
>
<path vector-effect="non-scaling-stroke" fill-rule="evenodd" d="M550,23 C550,21.3431 551.343,20 553,20 L752,20 C753.657,20 755,21.3431 755,23 L755,47 C755,48.6569 753.657,50 752,50 L553,50 C551.343,50 550,48.6569 550,47 L550,23"/>
<polyline fill="none" vector-effect="non-scaling-stroke" points="550,35 755,35 " />
</g>

<g fill="none" stroke="#ff0000" stroke-opacity="1" stroke-width="1" stroke-linecap="square" stroke-linejoin="bevel" transform="matrix(1,0,0,1,0,0)"
font-family="Arial" font-size="8" font-weight="700" font-style="normal" 
>
<text fill="#ff0000" fill-opacity="1" stroke="none" xml:space="preserve" x="551" y="32" font-family="Arial" font-size="8" font-weight="700" font-style="normal" 
 >Tranche</text>
</g>

<g fill="none" stroke="#ff0000" stroke-opacity="1" stroke-width="1" stroke-linecap="square" stroke-linejoin="bevel" transform="matrix(1,0,0,1,0,0)"
font-family="Arial" font-size="8" font-weight="700" font-style="normal" 
>
<text fill="#ff0000" fill-opacity="1" stroke="none" xml:space="preserve" x="620" y="32" font-family="Arial" font-size="8" font-weight="700" font-style="normal" 
 >dom.tr.LEGO</text>
</g>

<g fill="none" stroke="#000000" stroke-opacity="1" stroke-width="1" stroke-linecap="square" stroke-linejoin="bevel" transform="matrix(1,0,0,1,0,0)"
font-family="Arial" font-size="8" font-weight="700" font-style="normal" 
>
<text fill="#000000" fill-opacity="1" stroke="none" xml:space="preserve" x="551" y="47" font-family="Arial" font-size="8" font-weight="700" font-style="normal" 
 >définition : </text>
</g>

<g fill="none" stroke="#000000" stroke-opacity="1" stroke-width="1" stroke-linecap="square" stroke-linejoin="bevel" transform="matrix(1,0,0,1,0,0)"
font-family="Arial" font-size="8" font-weight="400" font-style="normal" 
>
<text fill="#000000" fill-opacity="1" stroke="none" xml:space="preserve" x="620" y="47" font-family="Arial" font-size="8" font-weight="400" font-style="normal" 
 >Centrale simulée CONNEXION</text>
</g>

<g fill="none" stroke="none" transform="matrix(1,0,0,1,0,0)"
font-family="Arial" font-size="8" font-weight="400" font-style="normal" 
>
<path vector-effect="non-scaling-stroke" fill-rule="evenodd" d="M775,20 L1110,20 L1110,125 L775,125 L775,20"/>
</g>

<g fill="none" stroke="#000000" stroke-opacity="1" stroke-width="1" stroke-linecap="square" stroke-linejoin="bevel" transform="matrix(1,0,0,1,0,0)"
font-family="Arial" font-size="8" font-weight="400" font-style="normal" 
>
<path vector-effect="non-scaling-stroke" fill-rule="evenodd" d="M775,23 C775,21.3431 776.343,20 778,20 L1107,20 C1108.66,20 1110,21.3431 1110,23 L1110,122 C1110,123.657 1108.66,125 1107,125 L778,125 C776.343,125 775,123.657 775,122 L775,23"/>
<polyline fill="none" vector-effect="non-scaling-stroke" points="775,35 1110,35 " />
</g>

<g fill="none" stroke="#ff0000" stroke-opacity="1" stroke-width="1" stroke-linecap="square" stroke-linejoin="bevel" transform="matrix(1,0,0,1,0,0)"
font-family="Arial" font-size="8" font-weight="700" font-style="normal" 
>
<text fill="#ff0000" fill-opacity="1" stroke="none" xml:space="preserve" x="776" y="32" font-family="Arial" font-size="8" font-weight="700" font-style="normal" 
 >Contexte_de_service</text>
</g>

<g fill="none" stroke="#000000" stroke-opacity="1" stroke-width="1" stroke-linecap="square" stroke-linejoin="bevel" transform="matrix(1,0,0,1,0,0)"
font-family="Arial" font-size="8" font-weight="700" font-style="normal" 
>
<text fill="#000000" fill-opacity="1" stroke="none" xml:space="preserve" x="776" y="47" font-family="Arial" font-size="8" font-weight="700" font-style="normal" 
 >terrain : </text>
</g>

<g fill="none" stroke="#000000" stroke-opacity="1" stroke-width="1" stroke-linecap="square" stroke-linejoin="bevel" transform="matrix(1,0,0,1,0,0)"
font-family="Arial" font-size="8" font-weight="400" font-style="normal" 
>
<text fill="#000000" fill-opacity="1" stroke="none" xml:space="preserve" x="900" y="47" font-family="Arial" font-size="8" font-weight="400" font-style="normal" 
 >true</text>
</g>

<g fill="none" stroke="#ff0000" stroke-opacity="1" stroke-width="1" stroke-linecap="square" stroke-linejoin="bevel" transform="matrix(1,0,0,1,0,0)"
font-family="Arial" font-size="8" font-weight="700" font-style="normal" 
>
<text fill="#ff0000" fill-opacity="1" stroke="none" xml:space="preserve" x="900" y="32" font-family="Arial" font-size="8" font-weight="700" font-style="normal" 
 >ctx.cs.DiagPTR021PO</text>
</g>

<g fill="none" stroke="#000000" stroke-opacity="1" stroke-width="1" stroke-linecap="square" stroke-linejoin="bevel" transform="matrix(1,0,0,1,0,0)"
font-family="Arial" font-size="8" font-weight="700" font-style="normal" 
>
<text fill="#000000" fill-opacity="1" stroke="none" xml:space="preserve" x="776" y="62" font-family="Arial" font-size="8" font-weight="700" font-style="normal" 
 >métier : </text>
</g>

<g fill="none" stroke="#000000" stroke-opacity="1" stroke-width="1" stroke-linecap="square" stroke-linejoin="bevel" transform="matrix(1,0,0,1,0,0)"
font-family="Arial" font-size="8" font-weight="400" font-style="normal" 
>
<text fill="#000000" fill-opacity="1" stroke="none" xml:space="preserve" x="900" y="62" font-family="Arial" font-size="8" font-weight="400" font-style="normal" 
 >chimie</text>
</g>

<g fill="none" stroke="#000000" stroke-opacity="1" stroke-width="1" stroke-linecap="square" stroke-linejoin="bevel" transform="matrix(1,0,0,1,0,0)"
font-family="Arial" font-size="8" font-weight="700" font-style="normal" 
>
<text fill="#000000" fill-opacity="1" stroke="none" xml:space="preserve" x="776" y="77" font-family="Arial" font-size="8" font-weight="700" font-style="normal" 
 >mode_de_fonctionnement : </text>
</g>

<g fill="none" stroke="#000000" stroke-opacity="1" stroke-width="1" stroke-linecap="square" stroke-linejoin="bevel" transform="matrix(1,0,0,1,0,0)"
font-family="Arial" font-size="8" font-weight="400" font-style="normal" 
>
<text fill="#000000" fill-opacity="1" stroke="none" xml:space="preserve" x="900" y="77" font-family="Arial" font-size="8" font-weight="400" font-style="normal" 
 >RCD</text>
</g>

<g fill="none" stroke="#000000" stroke-opacity="1" stroke-width="1" stroke-linecap="square" stroke-linejoin="bevel" transform="matrix(1,0,0,1,0,0)"
font-family="Arial" font-size="8" font-weight="700" font-style="normal" 
>
<text fill="#000000" fill-opacity="1" stroke="none" xml:space="preserve" x="776" y="92" font-family="Arial" font-size="8" font-weight="700" font-style="normal" 
 >définition : </text>
</g>

<g fill="none" stroke="#000000" stroke-opacity="1" stroke-width="1" stroke-linecap="square" stroke-linejoin="bevel" transform="matrix(1,0,0,1,0,0)"
font-family="Arial" font-size="8" font-weight="400" font-style="normal" 
>
<text fill="#000000" fill-opacity="1" stroke="none" xml:space="preserve" x="900" y="92" font-family="Arial" font-size="8" font-weight="400" font-style="normal" 
 >Mise à disposition de</text>
<text fill="#000000" fill-opacity="1" stroke="none" xml:space="preserve" x="900" y="107" font-family="Arial" font-size="8" font-weight="400" font-style="normal" 
 > diagnostic PTR021PO</text>
</g>

<g fill="none" stroke="#000000" stroke-opacity="1" stroke-width="1" stroke-linecap="square" stroke-linejoin="bevel" transform="matrix(1,0,0,1,0,0)"
font-family="Arial" font-size="8" font-weight="700" font-style="normal" 
>
<text fill="#000000" fill-opacity="1" stroke="none" xml:space="preserve" x="776" y="122" font-family="Arial" font-size="8" font-weight="700" font-style="normal" 
 >catégorie_AP929 : </text>
</g>

<g fill="none" stroke="#000000" stroke-opacity="1" stroke-width="1" stroke-linecap="square" stroke-linejoin="bevel" transform="matrix(1,0,0,1,0,0)"
font-family="Arial" font-size="8" font-weight="400" font-style="normal" 
>
<text fill="#000000" fill-opacity="1" stroke="none" xml:space="preserve" x="900" y="122" font-family="Arial" font-size="8" font-weight="400" font-style="normal" 
 >exigence_de_conception</text>
</g>

<g fill="none" stroke="none" transform="matrix(1,0,0,1,0,0)"
font-family="Arial" font-size="8" font-weight="400" font-style="normal" 
>
<path vector-effect="non-scaling-stroke" fill-rule="evenodd" d="M775,154 L1110,154 L1110,244 L775,244 L775,154"/>
</g>

<g fill="none" stroke="#000000" stroke-opacity="1" stroke-width="1" stroke-linecap="square" stroke-linejoin="bevel" transform="matrix(1,0,0,1,0,0)"
font-family="Arial" font-size="8" font-weight="400" font-style="normal" 
>
<path vector-effect="non-scaling-stroke" fill-rule="evenodd" d="M775,157 C775,155.343 776.343,154 778,154 L1107,154 C1108.66,154 1110,155.343 1110,157 L1110,241 C1110,242.657 1108.66,244 1107,244 L778,244 C776.343,244 775,242.657 775,241 L775,157"/>
<polyline fill="none" vector-effect="non-scaling-stroke" points="775,169 1110,169 " />
</g>

<g fill="none" stroke="#ff0000" stroke-opacity="1" stroke-width="1" stroke-linecap="square" stroke-linejoin="bevel" transform="matrix(1,0,0,1,0,0)"
font-family="Arial" font-size="8" font-weight="700" font-style="normal" 
>
<text fill="#ff0000" fill-opacity="1" stroke="none" xml:space="preserve" x="776" y="166" font-family="Arial" font-size="8" font-weight="700" font-style="normal" 
 >Contexte_de_service</text>
</g>

<g fill="none" stroke="#000000" stroke-opacity="1" stroke-width="1" stroke-linecap="square" stroke-linejoin="bevel" transform="matrix(1,0,0,1,0,0)"
font-family="Arial" font-size="8" font-weight="700" font-style="normal" 
>
<text fill="#000000" fill-opacity="1" stroke="none" xml:space="preserve" x="776" y="181" font-family="Arial" font-size="8" font-weight="700" font-style="normal" 
 >terrain : </text>
</g>

<g fill="none" stroke="#000000" stroke-opacity="1" stroke-width="1" stroke-linecap="square" stroke-linejoin="bevel" transform="matrix(1,0,0,1,0,0)"
font-family="Arial" font-size="8" font-weight="400" font-style="normal" 
>
<text fill="#000000" fill-opacity="1" stroke="none" xml:space="preserve" x="900" y="181" font-family="Arial" font-size="8" font-weight="400" font-style="normal" 
 >true</text>
</g>

<g fill="none" stroke="#ff0000" stroke-opacity="1" stroke-width="1" stroke-linecap="square" stroke-linejoin="bevel" transform="matrix(1,0,0,1,0,0)"
font-family="Arial" font-size="8" font-weight="700" font-style="normal" 
>
<text fill="#ff0000" fill-opacity="1" stroke="none" xml:space="preserve" x="900" y="166" font-family="Arial" font-size="8" font-weight="700" font-style="normal" 
 >ctx.cs.DiagPTR022PO</text>
</g>

<g fill="none" stroke="#000000" stroke-opacity="1" stroke-width="1" stroke-linecap="square" stroke-linejoin="bevel" transform="matrix(1,0,0,1,0,0)"
font-family="Arial" font-size="8" font-weight="700" font-style="normal" 
>
<text fill="#000000" fill-opacity="1" stroke="none" xml:space="preserve" x="776" y="196" font-family="Arial" font-size="8" font-weight="700" font-style="normal" 
 >métier : </text>
</g>

<g fill="none" stroke="#000000" stroke-opacity="1" stroke-width="1" stroke-linecap="square" stroke-linejoin="bevel" transform="matrix(1,0,0,1,0,0)"
font-family="Arial" font-size="8" font-weight="400" font-style="normal" 
>
<text fill="#000000" fill-opacity="1" stroke="none" xml:space="preserve" x="900" y="196" font-family="Arial" font-size="8" font-weight="400" font-style="normal" 
 >chimie</text>
</g>

<g fill="none" stroke="#000000" stroke-opacity="1" stroke-width="1" stroke-linecap="square" stroke-linejoin="bevel" transform="matrix(1,0,0,1,0,0)"
font-family="Arial" font-size="8" font-weight="700" font-style="normal" 
>
<text fill="#000000" fill-opacity="1" stroke="none" xml:space="preserve" x="776" y="211" font-family="Arial" font-size="8" font-weight="700" font-style="normal" 
 >mode_de_fonctionnement : </text>
</g>

<g fill="none" stroke="#000000" stroke-opacity="1" stroke-width="1" stroke-linecap="square" stroke-linejoin="bevel" transform="matrix(1,0,0,1,0,0)"
font-family="Arial" font-size="8" font-weight="400" font-style="normal" 
>
<text fill="#000000" fill-opacity="1" stroke="none" xml:space="preserve" x="900" y="211" font-family="Arial" font-size="8" font-weight="400" font-style="normal" 
 >RCD</text>
</g>

<g fill="none" stroke="#000000" stroke-opacity="1" stroke-width="1" stroke-linecap="square" stroke-linejoin="bevel" transform="matrix(1,0,0,1,0,0)"
font-family="Arial" font-size="8" font-weight="700" font-style="normal" 
>
<text fill="#000000" fill-opacity="1" stroke="none" xml:space="preserve" x="776" y="226" font-family="Arial" font-size="8" font-weight="700" font-style="normal" 
 >définition : </text>
</g>

<g fill="none" stroke="#000000" stroke-opacity="1" stroke-width="1" stroke-linecap="square" stroke-linejoin="bevel" transform="matrix(1,0,0,1,0,0)"
font-family="Arial" font-size="8" font-weight="400" font-style="normal" 
>
<text fill="#000000" fill-opacity="1" stroke="none" xml:space="preserve" x="900" y="226" font-family="Arial" font-size="8" font-weight="400" font-style="normal" 
 >Diagnostic PTR022PO</text>
</g>

<g fill="none" stroke="#000000" stroke-opacity="1" stroke-width="1" stroke-linecap="square" stroke-linejoin="bevel" transform="matrix(1,0,0,1,0,0)"
font-family="Arial" font-size="8" font-weight="700" font-style="normal" 
>
<text fill="#000000" fill-opacity="1" stroke="none" xml:space="preserve" x="776" y="241" font-family="Arial" font-size="8" font-weight="700" font-style="normal" 
 >catégorie_AP929 : </text>
</g>

<g fill="none" stroke="#000000" stroke-opacity="1" stroke-width="1" stroke-linecap="square" stroke-linejoin="bevel" transform="matrix(1,0,0,1,0,0)"
font-family="Arial" font-size="8" font-weight="400" font-style="normal" 
>
<text fill="#000000" fill-opacity="1" stroke="none" xml:space="preserve" x="900" y="241" font-family="Arial" font-size="8" font-weight="400" font-style="normal" 
 >exigence_de_conception</text>
</g>

<g fill="none" stroke="#0e32c8" stroke-opacity="1" stroke-width="1" stroke-linecap="square" stroke-linejoin="bevel" transform="matrix(1,0,0,1,0,0)"
font-family="Arial" font-size="8" font-weight="400" font-style="normal" 
>
<polyline fill="none" vector-effect="non-scaling-stroke" points="235,251 92,50 " />
<polyline fill="none" vector-effect="non-scaling-stroke" points="403,303 673,92 " />
<polyline fill="none" vector-effect="non-scaling-stroke" points="403,303 487,431 " />
<polyline fill="none" vector-effect="non-scaling-stroke" points="165,94 295,87 " />
<polyline fill="none" vector-effect="non-scaling-stroke" points="630,87 673,92 " />
<polyline fill="none" vector-effect="non-scaling-stroke" points="462,132 589,416 " />
</g>
</g>
</svg>
