<?xml version="1.0" encoding="UTF-8" standalone="no"?>
<svg width="705.556mm" height="184.503mm"
 viewBox="0 0 2000 523"
 xmlns="http://www.w3.org/2000/svg" xmlns:xlink="http://www.w3.org/1999/xlink"  version="1.2" baseProfile="tiny">
<title>SVG Generator Example Drawing</title>
<desc>Dessin svg pour une démonstration</desc>
<defs>
</defs>
<g fill="none" stroke="black" stroke-width="1" fill-rule="evenodd" stroke-linecap="square" stroke-linejoin="bevel" >

<path vector-effect="non-scaling-stroke" fill-rule="evenodd" d="M20,23 C20,21.3431 21.3431,20 23,20 L225,20 C226.657,20 228,21.3431 228,23 L228,45 C228,46.6569 226.657,48 225,48 L23,48 C21.3431,48 20,46.6569 20,45 L20,23"/>
<g fill="#80bfff" fill-opacity="1" stroke="none" transform="matrix(1,0,0,1,0,0)"
font-family=".Helvetica Neue DeskInterface" font-size="13" font-weight="400" font-style="normal" 
>
<path vector-effect="non-scaling-stroke" fill-rule="evenodd" d="M20,20 L228,20 L228,48 L20,48 L20,20"/>
</g>

<g fill="none" stroke="#000000" stroke-opacity="1" stroke-width="1" stroke-linecap="square" stroke-linejoin="bevel" transform="matrix(1,0,0,1,0,0)"
font-family=".Helvetica Neue DeskInterface" font-size="13" font-weight="400" font-style="normal" 
>
<polyline fill="none" vector-effect="non-scaling-stroke" points="20,34 228,34 " />
</g>

<g fill="none" stroke="#000000" stroke-opacity="1" stroke-width="1" stroke-linecap="square" stroke-linejoin="bevel" transform="matrix(1,0,0,1,0,0)"
font-family="Arial" font-size="8" font-weight="700" font-style="normal" 
>
<text fill="#000000" fill-opacity="1" stroke="none" xml:space="preserve" x="21" y="31" font-family="Arial" font-size="8" font-weight="700" font-style="normal" 
 >Tranche</text>
</g>

<g fill="none" stroke="#000000" stroke-opacity="1" stroke-width="1" stroke-linecap="square" stroke-linejoin="bevel" transform="matrix(1,0,0,1,0,0)"
font-family="Arial" font-size="8" font-weight="700" font-style="normal" 
>
<text fill="#000000" fill-opacity="1" stroke="none" xml:space="preserve" x="91" y="31" font-family="Arial" font-size="8" font-weight="700" font-style="normal" 
 >dom.tr.LEGO</text>
</g>

<g fill="none" stroke="#000000" stroke-opacity="1" stroke-width="1" stroke-linecap="square" stroke-linejoin="bevel" transform="matrix(1,0,0,1,0,0)"
font-family="Arial" font-size="8" font-weight="700" font-style="normal" 
>
<text fill="#000000" fill-opacity="1" stroke="none" xml:space="preserve" x="21" y="45" font-family="Arial" font-size="8" font-weight="700" font-style="normal" 
 >définition : </text>
</g>

<g fill="none" stroke="#000000" stroke-opacity="1" stroke-width="1" stroke-linecap="square" stroke-linejoin="bevel" transform="matrix(1,0,0,1,0,0)"
font-family="Arial" font-size="8" font-weight="400" font-style="normal" 
>
<text fill="#000000" fill-opacity="1" stroke="none" xml:space="preserve" x="91" y="45" font-family="Arial" font-size="8" font-weight="400" font-style="normal" 
 >Centrale simulée CONNEXION</text>
<path vector-effect="non-scaling-stroke" fill-rule="evenodd" d="M248,23 C248,21.3431 249.343,20 251,20 L586,20 C587.657,20 589,21.3431 589,23 L589,101 C589,102.657 587.657,104 586,104 L251,104 C249.343,104 248,102.657 248,101 L248,23"/>
</g>

<g fill="#bf80ff" fill-opacity="1" stroke="none" transform="matrix(1,0,0,1,0,0)"
font-family="Arial" font-size="8" font-weight="400" font-style="normal" 
>
<path vector-effect="non-scaling-stroke" fill-rule="evenodd" d="M248,20 L589,20 L589,104 L248,104 L248,20"/>
</g>

<g fill="none" stroke="#000000" stroke-opacity="1" stroke-width="1" stroke-linecap="square" stroke-linejoin="bevel" transform="matrix(1,0,0,1,0,0)"
font-family="Arial" font-size="8" font-weight="400" font-style="normal" 
>
<polyline fill="none" vector-effect="non-scaling-stroke" points="248,34 589,34 " />
</g>

<g fill="none" stroke="#000000" stroke-opacity="1" stroke-width="1" stroke-linecap="square" stroke-linejoin="bevel" transform="matrix(1,0,0,1,0,0)"
font-family="Arial" font-size="8" font-weight="700" font-style="normal" 
>
<text fill="#000000" fill-opacity="1" stroke="none" xml:space="preserve" x="249" y="31" font-family="Arial" font-size="8" font-weight="700" font-style="normal" 
 >Contexte_de_service</text>
</g>

<g fill="none" stroke="#000000" stroke-opacity="1" stroke-width="1" stroke-linecap="square" stroke-linejoin="bevel" transform="matrix(1,0,0,1,0,0)"
font-family="Arial" font-size="8" font-weight="700" font-style="normal" 
>
<text fill="#000000" fill-opacity="1" stroke="none" xml:space="preserve" x="249" y="45" font-family="Arial" font-size="8" font-weight="700" font-style="normal" 
 >terrain : </text>
</g>

<g fill="none" stroke="#000000" stroke-opacity="1" stroke-width="1" stroke-linecap="square" stroke-linejoin="bevel" transform="matrix(1,0,0,1,0,0)"
font-family="Arial" font-size="8" font-weight="400" font-style="normal" 
>
<text fill="#000000" fill-opacity="1" stroke="none" xml:space="preserve" x="376" y="45" font-family="Arial" font-size="8" font-weight="400" font-style="normal" 
 >true</text>
</g>

<g fill="none" stroke="#000000" stroke-opacity="1" stroke-width="1" stroke-linecap="square" stroke-linejoin="bevel" transform="matrix(1,0,0,1,0,0)"
font-family="Arial" font-size="8" font-weight="700" font-style="normal" 
>
<text fill="#000000" fill-opacity="1" stroke="none" xml:space="preserve" x="376" y="31" font-family="Arial" font-size="8" font-weight="700" font-style="normal" 
 >ctx.cs.DiagPTR022PO</text>
</g>

<g fill="none" stroke="#000000" stroke-opacity="1" stroke-width="1" stroke-linecap="square" stroke-linejoin="bevel" transform="matrix(1,0,0,1,0,0)"
font-family="Arial" font-size="8" font-weight="700" font-style="normal" 
>
<text fill="#000000" fill-opacity="1" stroke="none" xml:space="preserve" x="249" y="59" font-family="Arial" font-size="8" font-weight="700" font-style="normal" 
 >métier : </text>
</g>

<g fill="none" stroke="#000000" stroke-opacity="1" stroke-width="1" stroke-linecap="square" stroke-linejoin="bevel" transform="matrix(1,0,0,1,0,0)"
font-family="Arial" font-size="8" font-weight="400" font-style="normal" 
>
<text fill="#000000" fill-opacity="1" stroke="none" xml:space="preserve" x="376" y="59" font-family="Arial" font-size="8" font-weight="400" font-style="normal" 
 >chimie</text>
</g>

<g fill="none" stroke="#000000" stroke-opacity="1" stroke-width="1" stroke-linecap="square" stroke-linejoin="bevel" transform="matrix(1,0,0,1,0,0)"
font-family="Arial" font-size="8" font-weight="700" font-style="normal" 
>
<text fill="#000000" fill-opacity="1" stroke="none" xml:space="preserve" x="249" y="73" font-family="Arial" font-size="8" font-weight="700" font-style="normal" 
 >mode_de_fonctionnement : </text>
</g>

<g fill="none" stroke="#000000" stroke-opacity="1" stroke-width="1" stroke-linecap="square" stroke-linejoin="bevel" transform="matrix(1,0,0,1,0,0)"
font-family="Arial" font-size="8" font-weight="400" font-style="normal" 
>
<text fill="#000000" fill-opacity="1" stroke="none" xml:space="preserve" x="376" y="73" font-family="Arial" font-size="8" font-weight="400" font-style="normal" 
 >RCD</text>
</g>

<g fill="none" stroke="#000000" stroke-opacity="1" stroke-width="1" stroke-linecap="square" stroke-linejoin="bevel" transform="matrix(1,0,0,1,0,0)"
font-family="Arial" font-size="8" font-weight="700" font-style="normal" 
>
<text fill="#000000" fill-opacity="1" stroke="none" xml:space="preserve" x="249" y="87" font-family="Arial" font-size="8" font-weight="700" font-style="normal" 
 >définition : </text>
</g>

<g fill="none" stroke="#000000" stroke-opacity="1" stroke-width="1" stroke-linecap="square" stroke-linejoin="bevel" transform="matrix(1,0,0,1,0,0)"
font-family="Arial" font-size="8" font-weight="400" font-style="normal" 
>
<text fill="#000000" fill-opacity="1" stroke="none" xml:space="preserve" x="376" y="87" font-family="Arial" font-size="8" font-weight="400" font-style="normal" 
 >Diagnostic PTR022PO</text>
</g>

<g fill="none" stroke="#000000" stroke-opacity="1" stroke-width="1" stroke-linecap="square" stroke-linejoin="bevel" transform="matrix(1,0,0,1,0,0)"
font-family="Arial" font-size="8" font-weight="700" font-style="normal" 
>
<text fill="#000000" fill-opacity="1" stroke="none" xml:space="preserve" x="249" y="101" font-family="Arial" font-size="8" font-weight="700" font-style="normal" 
 >catégorie_AP929 : </text>
</g>

<g fill="none" stroke="#000000" stroke-opacity="1" stroke-width="1" stroke-linecap="square" stroke-linejoin="bevel" transform="matrix(1,0,0,1,0,0)"
font-family="Arial" font-size="8" font-weight="400" font-style="normal" 
>
<text fill="#000000" fill-opacity="1" stroke="none" xml:space="preserve" x="376" y="101" font-family="Arial" font-size="8" font-weight="400" font-style="normal" 
 >exigence_de_conception</text>
<path vector-effect="non-scaling-stroke" fill-rule="evenodd" d="M248,136 C248,134.343 249.343,133 251,133 L586,133 C587.657,133 589,134.343 589,136 L589,214 C589,215.657 587.657,217 586,217 L251,217 C249.343,217 248,215.657 248,214 L248,136"/>
</g>

<g fill="#bf80ff" fill-opacity="1" stroke="none" transform="matrix(1,0,0,1,0,0)"
font-family="Arial" font-size="8" font-weight="400" font-style="normal" 
>
<path vector-effect="non-scaling-stroke" fill-rule="evenodd" d="M248,133 L589,133 L589,217 L248,217 L248,133"/>
</g>

<g fill="none" stroke="#000000" stroke-opacity="1" stroke-width="1" stroke-linecap="square" stroke-linejoin="bevel" transform="matrix(1,0,0,1,0,0)"
font-family="Arial" font-size="8" font-weight="400" font-style="normal" 
>
<polyline fill="none" vector-effect="non-scaling-stroke" points="248,147 589,147 " />
</g>

<g fill="none" stroke="#000000" stroke-opacity="1" stroke-width="1" stroke-linecap="square" stroke-linejoin="bevel" transform="matrix(1,0,0,1,0,0)"
font-family="Arial" font-size="8" font-weight="700" font-style="normal" 
>
<text fill="#000000" fill-opacity="1" stroke="none" xml:space="preserve" x="249" y="144" font-family="Arial" font-size="8" font-weight="700" font-style="normal" 
 >Contexte_de_service</text>
</g>

<g fill="none" stroke="#000000" stroke-opacity="1" stroke-width="1" stroke-linecap="square" stroke-linejoin="bevel" transform="matrix(1,0,0,1,0,0)"
font-family="Arial" font-size="8" font-weight="700" font-style="normal" 
>
<text fill="#000000" fill-opacity="1" stroke="none" xml:space="preserve" x="249" y="158" font-family="Arial" font-size="8" font-weight="700" font-style="normal" 
 >terrain : </text>
</g>

<g fill="none" stroke="#000000" stroke-opacity="1" stroke-width="1" stroke-linecap="square" stroke-linejoin="bevel" transform="matrix(1,0,0,1,0,0)"
font-family="Arial" font-size="8" font-weight="400" font-style="normal" 
>
<text fill="#000000" fill-opacity="1" stroke="none" xml:space="preserve" x="376" y="158" font-family="Arial" font-size="8" font-weight="400" font-style="normal" 
 >true</text>
</g>

<g fill="none" stroke="#000000" stroke-opacity="1" stroke-width="1" stroke-linecap="square" stroke-linejoin="bevel" transform="matrix(1,0,0,1,0,0)"
font-family="Arial" font-size="8" font-weight="700" font-style="normal" 
>
<text fill="#000000" fill-opacity="1" stroke="none" xml:space="preserve" x="376" y="144" font-family="Arial" font-size="8" font-weight="700" font-style="normal" 
 >ctx.cs.DiagPTR021PO</text>
</g>

<g fill="none" stroke="#000000" stroke-opacity="1" stroke-width="1" stroke-linecap="square" stroke-linejoin="bevel" transform="matrix(1,0,0,1,0,0)"
font-family="Arial" font-size="8" font-weight="700" font-style="normal" 
>
<text fill="#000000" fill-opacity="1" stroke="none" xml:space="preserve" x="249" y="172" font-family="Arial" font-size="8" font-weight="700" font-style="normal" 
 >métier : </text>
</g>

<g fill="none" stroke="#000000" stroke-opacity="1" stroke-width="1" stroke-linecap="square" stroke-linejoin="bevel" transform="matrix(1,0,0,1,0,0)"
font-family="Arial" font-size="8" font-weight="400" font-style="normal" 
>
<text fill="#000000" fill-opacity="1" stroke="none" xml:space="preserve" x="376" y="172" font-family="Arial" font-size="8" font-weight="400" font-style="normal" 
 >chimie</text>
</g>

<g fill="none" stroke="#000000" stroke-opacity="1" stroke-width="1" stroke-linecap="square" stroke-linejoin="bevel" transform="matrix(1,0,0,1,0,0)"
font-family="Arial" font-size="8" font-weight="700" font-style="normal" 
>
<text fill="#000000" fill-opacity="1" stroke="none" xml:space="preserve" x="249" y="186" font-family="Arial" font-size="8" font-weight="700" font-style="normal" 
 >mode_de_fonctionnement : </text>
</g>

<g fill="none" stroke="#000000" stroke-opacity="1" stroke-width="1" stroke-linecap="square" stroke-linejoin="bevel" transform="matrix(1,0,0,1,0,0)"
font-family="Arial" font-size="8" font-weight="400" font-style="normal" 
>
<text fill="#000000" fill-opacity="1" stroke="none" xml:space="preserve" x="376" y="186" font-family="Arial" font-size="8" font-weight="400" font-style="normal" 
 >RCD</text>
</g>

<g fill="none" stroke="#000000" stroke-opacity="1" stroke-width="1" stroke-linecap="square" stroke-linejoin="bevel" transform="matrix(1,0,0,1,0,0)"
font-family="Arial" font-size="8" font-weight="700" font-style="normal" 
>
<text fill="#000000" fill-opacity="1" stroke="none" xml:space="preserve" x="249" y="200" font-family="Arial" font-size="8" font-weight="700" font-style="normal" 
 >définition : </text>
</g>

<g fill="none" stroke="#000000" stroke-opacity="1" stroke-width="1" stroke-linecap="square" stroke-linejoin="bevel" transform="matrix(1,0,0,1,0,0)"
font-family="Arial" font-size="8" font-weight="400" font-style="normal" 
>
<text fill="#000000" fill-opacity="1" stroke="none" xml:space="preserve" x="376" y="200" font-family="Arial" font-size="8" font-weight="400" font-style="normal" 
 >Mise à disposition de diagnostic PTR021PO</text>
</g>

<g fill="none" stroke="#000000" stroke-opacity="1" stroke-width="1" stroke-linecap="square" stroke-linejoin="bevel" transform="matrix(1,0,0,1,0,0)"
font-family="Arial" font-size="8" font-weight="700" font-style="normal" 
>
<text fill="#000000" fill-opacity="1" stroke="none" xml:space="preserve" x="249" y="214" font-family="Arial" font-size="8" font-weight="700" font-style="normal" 
 >catégorie_AP929 : </text>
</g>

<g fill="none" stroke="#000000" stroke-opacity="1" stroke-width="1" stroke-linecap="square" stroke-linejoin="bevel" transform="matrix(1,0,0,1,0,0)"
font-family="Arial" font-size="8" font-weight="400" font-style="normal" 
>
<text fill="#000000" fill-opacity="1" stroke="none" xml:space="preserve" x="376" y="214" font-family="Arial" font-size="8" font-weight="400" font-style="normal" 
 >exigence_de_conception</text>
<path vector-effect="non-scaling-stroke" fill-rule="evenodd" d="M609,23 C609,21.3431 610.343,20 612,20 L957,20 C958.657,20 960,21.3431 960,23 L960,45 C960,46.6569 958.657,48 957,48 L612,48 C610.343,48 609,46.6569 609,45 L609,23"/>
</g>

<g fill="#bfff80" fill-opacity="1" stroke="none" transform="matrix(1,0,0,1,0,0)"
font-family="Arial" font-size="8" font-weight="400" font-style="normal" 
>
<path vector-effect="non-scaling-stroke" fill-rule="evenodd" d="M609,20 L960,20 L960,48 L609,48 L609,20"/>
</g>

<g fill="none" stroke="#000000" stroke-opacity="1" stroke-width="1" stroke-linecap="square" stroke-linejoin="bevel" transform="matrix(1,0,0,1,0,0)"
font-family="Arial" font-size="8" font-weight="400" font-style="normal" 
>
<polyline fill="none" vector-effect="non-scaling-stroke" points="609,34 961,34 " />
</g>

<g fill="none" stroke="#000000" stroke-opacity="1" stroke-width="1" stroke-linecap="square" stroke-linejoin="bevel" transform="matrix(1,0,0,1,0,0)"
font-family="Arial" font-size="8" font-weight="700" font-style="normal" 
>
<text fill="#000000" fill-opacity="1" stroke="none" xml:space="preserve" x="610" y="31" font-family="Arial" font-size="8" font-weight="700" font-style="normal" 
 >Système_élémentaire</text>
</g>

<g fill="none" stroke="#000000" stroke-opacity="1" stroke-width="1" stroke-linecap="square" stroke-linejoin="bevel" transform="matrix(1,0,0,1,0,0)"
font-family="Arial" font-size="8" font-weight="700" font-style="normal" 
>
<text fill="#000000" fill-opacity="1" stroke="none" xml:space="preserve" x="721" y="31" font-family="Arial" font-size="8" font-weight="700" font-style="normal" 
 >dom.se.REA</text>
</g>

<g fill="none" stroke="#000000" stroke-opacity="1" stroke-width="1" stroke-linecap="square" stroke-linejoin="bevel" transform="matrix(1,0,0,1,0,0)"
font-family="Arial" font-size="8" font-weight="700" font-style="normal" 
>
<text fill="#000000" fill-opacity="1" stroke="none" xml:space="preserve" x="610" y="45" font-family="Arial" font-size="8" font-weight="700" font-style="normal" 
 >définition : </text>
</g>

<g fill="none" stroke="#000000" stroke-opacity="1" stroke-width="1" stroke-linecap="square" stroke-linejoin="bevel" transform="matrix(1,0,0,1,0,0)"
font-family="Arial" font-size="8" font-weight="400" font-style="normal" 
>
<text fill="#000000" fill-opacity="1" stroke="none" xml:space="preserve" x="721" y="45" font-family="Arial" font-size="8" font-weight="400" font-style="normal" 
 >Appoint d'eau au réacteur</text>
<path vector-effect="non-scaling-stroke" fill-rule="evenodd" d="M609,80 C609,78.3431 610.343,77 612,77 L957,77 C958.657,77 960,78.3431 960,80 L960,102 C960,103.657 958.657,105 957,105 L612,105 C610.343,105 609,103.657 609,102 L609,80"/>
</g>

<g fill="#bfff80" fill-opacity="1" stroke="none" transform="matrix(1,0,0,1,0,0)"
font-family="Arial" font-size="8" font-weight="400" font-style="normal" 
>
<path vector-effect="non-scaling-stroke" fill-rule="evenodd" d="M609,77 L960,77 L960,105 L609,105 L609,77"/>
</g>

<g fill="none" stroke="#000000" stroke-opacity="1" stroke-width="1" stroke-linecap="square" stroke-linejoin="bevel" transform="matrix(1,0,0,1,0,0)"
font-family="Arial" font-size="8" font-weight="400" font-style="normal" 
>
<polyline fill="none" vector-effect="non-scaling-stroke" points="609,91 961,91 " />
</g>

<g fill="none" stroke="#000000" stroke-opacity="1" stroke-width="1" stroke-linecap="square" stroke-linejoin="bevel" transform="matrix(1,0,0,1,0,0)"
font-family="Arial" font-size="8" font-weight="700" font-style="normal" 
>
<text fill="#000000" fill-opacity="1" stroke="none" xml:space="preserve" x="610" y="88" font-family="Arial" font-size="8" font-weight="700" font-style="normal" 
 >Système_élémentaire</text>
</g>

<g fill="none" stroke="#000000" stroke-opacity="1" stroke-width="1" stroke-linecap="square" stroke-linejoin="bevel" transform="matrix(1,0,0,1,0,0)"
font-family="Arial" font-size="8" font-weight="700" font-style="normal" 
>
<text fill="#000000" fill-opacity="1" stroke="none" xml:space="preserve" x="721" y="88" font-family="Arial" font-size="8" font-weight="700" font-style="normal" 
 >dom.se.TEP</text>
</g>

<g fill="none" stroke="#000000" stroke-opacity="1" stroke-width="1" stroke-linecap="square" stroke-linejoin="bevel" transform="matrix(1,0,0,1,0,0)"
font-family="Arial" font-size="8" font-weight="700" font-style="normal" 
>
<text fill="#000000" fill-opacity="1" stroke="none" xml:space="preserve" x="610" y="102" font-family="Arial" font-size="8" font-weight="700" font-style="normal" 
 >définition : </text>
</g>

<g fill="none" stroke="#000000" stroke-opacity="1" stroke-width="1" stroke-linecap="square" stroke-linejoin="bevel" transform="matrix(1,0,0,1,0,0)"
font-family="Arial" font-size="8" font-weight="400" font-style="normal" 
>
<text fill="#000000" fill-opacity="1" stroke="none" xml:space="preserve" x="721" y="102" font-family="Arial" font-size="8" font-weight="400" font-style="normal" 
 >Traitement des effluents primaires</text>
<path vector-effect="non-scaling-stroke" fill-rule="evenodd" d="M609,137 C609,135.343 610.343,134 612,134 L957,134 C958.657,134 960,135.343 960,137 L960,159 C960,160.657 958.657,162 957,162 L612,162 C610.343,162 609,160.657 609,159 L609,137"/>
</g>

<g fill="#bfff80" fill-opacity="1" stroke="none" transform="matrix(1,0,0,1,0,0)"
font-family="Arial" font-size="8" font-weight="400" font-style="normal" 
>
<path vector-effect="non-scaling-stroke" fill-rule="evenodd" d="M609,134 L960,134 L960,162 L609,162 L609,134"/>
</g>

<g fill="none" stroke="#000000" stroke-opacity="1" stroke-width="1" stroke-linecap="square" stroke-linejoin="bevel" transform="matrix(1,0,0,1,0,0)"
font-family="Arial" font-size="8" font-weight="400" font-style="normal" 
>
<polyline fill="none" vector-effect="non-scaling-stroke" points="609,148 961,148 " />
</g>

<g fill="none" stroke="#000000" stroke-opacity="1" stroke-width="1" stroke-linecap="square" stroke-linejoin="bevel" transform="matrix(1,0,0,1,0,0)"
font-family="Arial" font-size="8" font-weight="700" font-style="normal" 
>
<text fill="#000000" fill-opacity="1" stroke="none" xml:space="preserve" x="610" y="145" font-family="Arial" font-size="8" font-weight="700" font-style="normal" 
 >Système_élémentaire</text>
</g>

<g fill="none" stroke="#000000" stroke-opacity="1" stroke-width="1" stroke-linecap="square" stroke-linejoin="bevel" transform="matrix(1,0,0,1,0,0)"
font-family="Arial" font-size="8" font-weight="700" font-style="normal" 
>
<text fill="#000000" fill-opacity="1" stroke="none" xml:space="preserve" x="721" y="145" font-family="Arial" font-size="8" font-weight="700" font-style="normal" 
 >dom.se.RCV</text>
</g>

<g fill="none" stroke="#000000" stroke-opacity="1" stroke-width="1" stroke-linecap="square" stroke-linejoin="bevel" transform="matrix(1,0,0,1,0,0)"
font-family="Arial" font-size="8" font-weight="700" font-style="normal" 
>
<text fill="#000000" fill-opacity="1" stroke="none" xml:space="preserve" x="610" y="159" font-family="Arial" font-size="8" font-weight="700" font-style="normal" 
 >définition : </text>
</g>

<g fill="none" stroke="#000000" stroke-opacity="1" stroke-width="1" stroke-linecap="square" stroke-linejoin="bevel" transform="matrix(1,0,0,1,0,0)"
font-family="Arial" font-size="8" font-weight="400" font-style="normal" 
>
<text fill="#000000" fill-opacity="1" stroke="none" xml:space="preserve" x="721" y="159" font-family="Arial" font-size="8" font-weight="400" font-style="normal" 
 >Contrôle chimique et volumétrique</text>
<path vector-effect="non-scaling-stroke" fill-rule="evenodd" d="M609,194 C609,192.343 610.343,191 612,191 L957,191 C958.657,191 960,192.343 960,194 L960,216 C960,217.657 958.657,219 957,219 L612,219 C610.343,219 609,217.657 609,216 L609,194"/>
</g>

<g fill="#bfff80" fill-opacity="1" stroke="none" transform="matrix(1,0,0,1,0,0)"
font-family="Arial" font-size="8" font-weight="400" font-style="normal" 
>
<path vector-effect="non-scaling-stroke" fill-rule="evenodd" d="M609,191 L960,191 L960,219 L609,219 L609,191"/>
</g>

<g fill="none" stroke="#000000" stroke-opacity="1" stroke-width="1" stroke-linecap="square" stroke-linejoin="bevel" transform="matrix(1,0,0,1,0,0)"
font-family="Arial" font-size="8" font-weight="400" font-style="normal" 
>
<polyline fill="none" vector-effect="non-scaling-stroke" points="609,205 961,205 " />
</g>

<g fill="none" stroke="#000000" stroke-opacity="1" stroke-width="1" stroke-linecap="square" stroke-linejoin="bevel" transform="matrix(1,0,0,1,0,0)"
font-family="Arial" font-size="8" font-weight="700" font-style="normal" 
>
<text fill="#000000" fill-opacity="1" stroke="none" xml:space="preserve" x="610" y="202" font-family="Arial" font-size="8" font-weight="700" font-style="normal" 
 >Système_élémentaire</text>
</g>

<g fill="none" stroke="#000000" stroke-opacity="1" stroke-width="1" stroke-linecap="square" stroke-linejoin="bevel" transform="matrix(1,0,0,1,0,0)"
font-family="Arial" font-size="8" font-weight="700" font-style="normal" 
>
<text fill="#000000" fill-opacity="1" stroke="none" xml:space="preserve" x="721" y="202" font-family="Arial" font-size="8" font-weight="700" font-style="normal" 
 >dom.se.RRA</text>
</g>

<g fill="none" stroke="#000000" stroke-opacity="1" stroke-width="1" stroke-linecap="square" stroke-linejoin="bevel" transform="matrix(1,0,0,1,0,0)"
font-family="Arial" font-size="8" font-weight="700" font-style="normal" 
>
<text fill="#000000" fill-opacity="1" stroke="none" xml:space="preserve" x="610" y="216" font-family="Arial" font-size="8" font-weight="700" font-style="normal" 
 >définition : </text>
</g>

<g fill="none" stroke="#000000" stroke-opacity="1" stroke-width="1" stroke-linecap="square" stroke-linejoin="bevel" transform="matrix(1,0,0,1,0,0)"
font-family="Arial" font-size="8" font-weight="400" font-style="normal" 
>
<text fill="#000000" fill-opacity="1" stroke="none" xml:space="preserve" x="721" y="216" font-family="Arial" font-size="8" font-weight="400" font-style="normal" 
 >Refroidissement du réacteur à l'arrêt</text>
<path vector-effect="non-scaling-stroke" fill-rule="evenodd" d="M609,251 C609,249.343 610.343,248 612,248 L957,248 C958.657,248 960,249.343 960,251 L960,273 C960,274.657 958.657,276 957,276 L612,276 C610.343,276 609,274.657 609,273 L609,251"/>
</g>

<g fill="#bfff80" fill-opacity="1" stroke="none" transform="matrix(1,0,0,1,0,0)"
font-family="Arial" font-size="8" font-weight="400" font-style="normal" 
>
<path vector-effect="non-scaling-stroke" fill-rule="evenodd" d="M609,248 L960,248 L960,276 L609,276 L609,248"/>
</g>

<g fill="none" stroke="#000000" stroke-opacity="1" stroke-width="1" stroke-linecap="square" stroke-linejoin="bevel" transform="matrix(1,0,0,1,0,0)"
font-family="Arial" font-size="8" font-weight="400" font-style="normal" 
>
<polyline fill="none" vector-effect="non-scaling-stroke" points="609,262 961,262 " />
</g>

<g fill="none" stroke="#000000" stroke-opacity="1" stroke-width="1" stroke-linecap="square" stroke-linejoin="bevel" transform="matrix(1,0,0,1,0,0)"
font-family="Arial" font-size="8" font-weight="700" font-style="normal" 
>
<text fill="#000000" fill-opacity="1" stroke="none" xml:space="preserve" x="610" y="259" font-family="Arial" font-size="8" font-weight="700" font-style="normal" 
 >Système_élémentaire</text>
</g>

<g fill="none" stroke="#000000" stroke-opacity="1" stroke-width="1" stroke-linecap="square" stroke-linejoin="bevel" transform="matrix(1,0,0,1,0,0)"
font-family="Arial" font-size="8" font-weight="700" font-style="normal" 
>
<text fill="#000000" fill-opacity="1" stroke="none" xml:space="preserve" x="721" y="259" font-family="Arial" font-size="8" font-weight="700" font-style="normal" 
 >dom.se.PTR</text>
</g>

<g fill="none" stroke="#000000" stroke-opacity="1" stroke-width="1" stroke-linecap="square" stroke-linejoin="bevel" transform="matrix(1,0,0,1,0,0)"
font-family="Arial" font-size="8" font-weight="700" font-style="normal" 
>
<text fill="#000000" fill-opacity="1" stroke="none" xml:space="preserve" x="610" y="273" font-family="Arial" font-size="8" font-weight="700" font-style="normal" 
 >définition : </text>
</g>

<g fill="none" stroke="#000000" stroke-opacity="1" stroke-width="1" stroke-linecap="square" stroke-linejoin="bevel" transform="matrix(1,0,0,1,0,0)"
font-family="Arial" font-size="8" font-weight="400" font-style="normal" 
>
<text fill="#000000" fill-opacity="1" stroke="none" xml:space="preserve" x="721" y="273" font-family="Arial" font-size="8" font-weight="400" font-style="normal" 
 >Refroidissement et conditionnement des piscines</text>
<path vector-effect="non-scaling-stroke" fill-rule="evenodd" d="M981,23 C981,21.3431 982.343,20 984,20 L1125,20 C1126.66,20 1128,21.3431 1128,23 L1128,45 C1128,46.6569 1126.66,48 1125,48 L984,48 C982.343,48 981,46.6569 981,45 L981,23"/>
</g>

<g fill="#ffff80" fill-opacity="1" stroke="none" transform="matrix(1,0,0,1,0,0)"
font-family="Arial" font-size="8" font-weight="400" font-style="normal" 
>
<path vector-effect="non-scaling-stroke" fill-rule="evenodd" d="M981,20 L1128,20 L1128,48 L981,48 L981,20"/>
</g>

<g fill="none" stroke="#000000" stroke-opacity="1" stroke-width="1" stroke-linecap="square" stroke-linejoin="bevel" transform="matrix(1,0,0,1,0,0)"
font-family="Arial" font-size="8" font-weight="400" font-style="normal" 
>
<polyline fill="none" vector-effect="non-scaling-stroke" points="981,34 1128,34 " />
</g>

<g fill="none" stroke="#000000" stroke-opacity="1" stroke-width="1" stroke-linecap="square" stroke-linejoin="bevel" transform="matrix(1,0,0,1,0,0)"
font-family="Arial" font-size="8" font-weight="700" font-style="normal" 
>
<text fill="#000000" fill-opacity="1" stroke="none" xml:space="preserve" x="982" y="31" font-family="Arial" font-size="8" font-weight="700" font-style="normal" 
 >Equipement</text>
</g>

<g fill="none" stroke="#000000" stroke-opacity="1" stroke-width="1" stroke-linecap="square" stroke-linejoin="bevel" transform="matrix(1,0,0,1,0,0)"
font-family="Arial" font-size="8" font-weight="700" font-style="normal" 
>
<text fill="#000000" fill-opacity="1" stroke="none" xml:space="preserve" x="1052" y="31" font-family="Arial" font-size="8" font-weight="700" font-style="normal" 
 >dom.eq.PTR021PO</text>
</g>

<g fill="none" stroke="#000000" stroke-opacity="1" stroke-width="1" stroke-linecap="square" stroke-linejoin="bevel" transform="matrix(1,0,0,1,0,0)"
font-family="Arial" font-size="8" font-weight="700" font-style="normal" 
>
<text fill="#000000" fill-opacity="1" stroke="none" xml:space="preserve" x="982" y="45" font-family="Arial" font-size="8" font-weight="700" font-style="normal" 
 >catégorie : </text>
</g>

<g fill="none" stroke="#000000" stroke-opacity="1" stroke-width="1" stroke-linecap="square" stroke-linejoin="bevel" transform="matrix(1,0,0,1,0,0)"
font-family="Arial" font-size="8" font-weight="400" font-style="normal" 
>
<text fill="#000000" fill-opacity="1" stroke="none" xml:space="preserve" x="1052" y="45" font-family="Arial" font-size="8" font-weight="400" font-style="normal" 
 >Pompe</text>
<path vector-effect="non-scaling-stroke" fill-rule="evenodd" d="M981,80 C981,78.3431 982.343,77 984,77 L1125,77 C1126.66,77 1128,78.3431 1128,80 L1128,102 C1128,103.657 1126.66,105 1125,105 L984,105 C982.343,105 981,103.657 981,102 L981,80"/>
</g>

<g fill="#ffff80" fill-opacity="1" stroke="none" transform="matrix(1,0,0,1,0,0)"
font-family="Arial" font-size="8" font-weight="400" font-style="normal" 
>
<path vector-effect="non-scaling-stroke" fill-rule="evenodd" d="M981,77 L1128,77 L1128,105 L981,105 L981,77"/>
</g>

<g fill="none" stroke="#000000" stroke-opacity="1" stroke-width="1" stroke-linecap="square" stroke-linejoin="bevel" transform="matrix(1,0,0,1,0,0)"
font-family="Arial" font-size="8" font-weight="400" font-style="normal" 
>
<polyline fill="none" vector-effect="non-scaling-stroke" points="981,91 1128,91 " />
</g>

<g fill="none" stroke="#000000" stroke-opacity="1" stroke-width="1" stroke-linecap="square" stroke-linejoin="bevel" transform="matrix(1,0,0,1,0,0)"
font-family="Arial" font-size="8" font-weight="700" font-style="normal" 
>
<text fill="#000000" fill-opacity="1" stroke="none" xml:space="preserve" x="982" y="88" font-family="Arial" font-size="8" font-weight="700" font-style="normal" 
 >Equipement</text>
</g>

<g fill="none" stroke="#000000" stroke-opacity="1" stroke-width="1" stroke-linecap="square" stroke-linejoin="bevel" transform="matrix(1,0,0,1,0,0)"
font-family="Arial" font-size="8" font-weight="700" font-style="normal" 
>
<text fill="#000000" fill-opacity="1" stroke="none" xml:space="preserve" x="1052" y="88" font-family="Arial" font-size="8" font-weight="700" font-style="normal" 
 >dom.eq.PTR022PO</text>
</g>

<g fill="none" stroke="#000000" stroke-opacity="1" stroke-width="1" stroke-linecap="square" stroke-linejoin="bevel" transform="matrix(1,0,0,1,0,0)"
font-family="Arial" font-size="8" font-weight="700" font-style="normal" 
>
<text fill="#000000" fill-opacity="1" stroke="none" xml:space="preserve" x="982" y="102" font-family="Arial" font-size="8" font-weight="700" font-style="normal" 
 >catégorie : </text>
</g>

<g fill="none" stroke="#000000" stroke-opacity="1" stroke-width="1" stroke-linecap="square" stroke-linejoin="bevel" transform="matrix(1,0,0,1,0,0)"
font-family="Arial" font-size="8" font-weight="400" font-style="normal" 
>
<text fill="#000000" fill-opacity="1" stroke="none" xml:space="preserve" x="1052" y="102" font-family="Arial" font-size="8" font-weight="400" font-style="normal" 
 >Pompe</text>
</g>

<g fill="none" stroke="#0e32c8" stroke-opacity="1" stroke-width="1" stroke-linecap="square" stroke-linejoin="bevel" transform="matrix(1,0,0,1,0,0)"
font-family="Arial" font-size="8" font-weight="400" font-style="normal" 
>
<polyline fill="none" vector-effect="non-scaling-stroke" points="589,62 981,91 " />
<polyline fill="none" vector-effect="non-scaling-stroke" points="589,62 609,262 " />
<polyline fill="none" vector-effect="non-scaling-stroke" points="228,34 248,62 " />
<polyline fill="none" vector-effect="non-scaling-stroke" points="589,175 981,34 " />
<polyline fill="none" vector-effect="non-scaling-stroke" points="589,175 609,262 " />
<polyline fill="none" vector-effect="non-scaling-stroke" points="228,34 248,175 " />
</g>
</g>
</svg>
