<?xml version="1.0" encoding="UTF-8" standalone="no"?>
<svg width="380.294mm" height="373.239mm"
 viewBox="0 0 1078 1058"
 xmlns="http://www.w3.org/2000/svg" xmlns:xlink="http://www.w3.org/1999/xlink"  version="1.2" baseProfile="tiny">
<title>SVG Generator Example Drawing</title>
<desc>Dessin svg pour une démonstration</desc>
<defs>
</defs>
<g fill="none" stroke="black" stroke-width="1" fill-rule="evenodd" stroke-linecap="square" stroke-linejoin="bevel" >

<g fill="none" stroke="#000000" stroke-opacity="1" stroke-width="1" stroke-linecap="square" stroke-linejoin="bevel" transform="matrix(1,0,0,1,0,0)"
font-family="Arial" font-size="10" font-weight="700" font-style="normal" 
>
<text fill="#000000" fill-opacity="1" stroke="none" xml:space="preserve" x="20" y="33" font-family="Arial" font-size="10" font-weight="700" font-style="normal" 
 >Contexte_de_service</text>
</g>

<g fill="none" stroke="#000000" stroke-opacity="1" stroke-width="1" stroke-linecap="square" stroke-linejoin="bevel" transform="matrix(1,0,0,1,0,0)"
font-family="Arial" font-size="10" font-weight="400" font-style="normal" 
>
<path vector-effect="non-scaling-stroke" fill-rule="evenodd" d="M20,47 L153,47 L153,74 L20,74 L20,47"/>
</g>

<g fill="#a0a0a4" fill-opacity="1" stroke="none" transform="matrix(1,0,0,1,0,0)"
font-family="Arial" font-size="10" font-weight="400" font-style="normal" 
>
<path vector-effect="non-scaling-stroke" fill-rule="evenodd" d="M20,47 L153,47 L153,74 L20,74 L20,47"/>
</g>

<g fill="none" stroke="#000000" stroke-opacity="1" stroke-width="1" stroke-linecap="square" stroke-linejoin="bevel" transform="matrix(1,0,0,1,0,0)"
font-family="Arial" font-size="10" font-weight="400" font-style="normal" 
>
<text fill="#000000" fill-opacity="1" stroke="none" xml:space="preserve" x="82.6094" y="63.0469" font-family="Arial" font-size="10" font-weight="400" font-style="normal" 
 >id</text>
<path vector-effect="non-scaling-stroke" fill-rule="evenodd" d="M20,128 L153,128 L153,209 L20,209 L20,128"/>
<text fill="#000000" fill-opacity="1" stroke="none" xml:space="preserve" x="36.5625" y="171.047" font-family="Arial" font-size="10" font-weight="400" font-style="normal" 
 >ctx.cs.DiagPTR021PO</text>
<path vector-effect="non-scaling-stroke" fill-rule="evenodd" d="M20,74 L153,74 L153,128 L20,128 L20,74"/>
<text fill="#000000" fill-opacity="1" stroke="none" xml:space="preserve" x="36.5625" y="104.047" font-family="Arial" font-size="10" font-weight="400" font-style="normal" 
 >ctx.cs.DiagPTR022PO</text>
<path vector-effect="non-scaling-stroke" fill-rule="evenodd" d="M153,47 L202,47 L202,74 L153,74 L153,47"/>
</g>

<g fill="#a0a0a4" fill-opacity="1" stroke="none" transform="matrix(1,0,0,1,0,0)"
font-family="Arial" font-size="10" font-weight="400" font-style="normal" 
>
<path vector-effect="non-scaling-stroke" fill-rule="evenodd" d="M153,47 L202,47 L202,74 L153,74 L153,47"/>
</g>

<g fill="none" stroke="#000000" stroke-opacity="1" stroke-width="1" stroke-linecap="square" stroke-linejoin="bevel" transform="matrix(1,0,0,1,0,0)"
font-family="Arial" font-size="10" font-weight="400" font-style="normal" 
>
<text fill="#000000" fill-opacity="1" stroke="none" xml:space="preserve" x="163.359" y="63.0469" font-family="Arial" font-size="10" font-weight="400" font-style="normal" 
 >terrain</text>
<path vector-effect="non-scaling-stroke" fill-rule="evenodd" d="M153,128 L202,128 L202,209 L153,209 L153,128"/>
<text fill="#000000" fill-opacity="1" stroke="none" xml:space="preserve" x="168.906" y="171.047" font-family="Arial" font-size="10" font-weight="400" font-style="normal" 
 >true</text>
<path vector-effect="non-scaling-stroke" fill-rule="evenodd" d="M153,74 L202,74 L202,128 L153,128 L153,74"/>
<text fill="#000000" fill-opacity="1" stroke="none" xml:space="preserve" x="168.906" y="104.047" font-family="Arial" font-size="10" font-weight="400" font-style="normal" 
 >true</text>
<path vector-effect="non-scaling-stroke" fill-rule="evenodd" d="M202,47 L251,47 L251,74 L202,74 L202,47"/>
</g>

<g fill="#a0a0a4" fill-opacity="1" stroke="none" transform="matrix(1,0,0,1,0,0)"
font-family="Arial" font-size="10" font-weight="400" font-style="normal" 
>
<path vector-effect="non-scaling-stroke" fill-rule="evenodd" d="M202,47 L251,47 L251,74 L202,74 L202,47"/>
</g>

<g fill="none" stroke="#000000" stroke-opacity="1" stroke-width="1" stroke-linecap="square" stroke-linejoin="bevel" transform="matrix(1,0,0,1,0,0)"
font-family="Arial" font-size="10" font-weight="400" font-style="normal" 
>
<text fill="#000000" fill-opacity="1" stroke="none" xml:space="preserve" x="212.625" y="63.0469" font-family="Arial" font-size="10" font-weight="400" font-style="normal" 
 >métier</text>
<path vector-effect="non-scaling-stroke" fill-rule="evenodd" d="M202,128 L251,128 L251,209 L202,209 L202,128"/>
<text fill="#000000" fill-opacity="1" stroke="none" xml:space="preserve" x="212.062" y="171.047" font-family="Arial" font-size="10" font-weight="400" font-style="normal" 
 >chimie</text>
<path vector-effect="non-scaling-stroke" fill-rule="evenodd" d="M202,74 L251,74 L251,128 L202,128 L202,74"/>
<text fill="#000000" fill-opacity="1" stroke="none" xml:space="preserve" x="212.062" y="104.047" font-family="Arial" font-size="10" font-weight="400" font-style="normal" 
 >chimie</text>
<path vector-effect="non-scaling-stroke" fill-rule="evenodd" d="M251,47 L405,47 L405,74 L251,74 L251,47"/>
</g>

<g fill="#a0a0a4" fill-opacity="1" stroke="none" transform="matrix(1,0,0,1,0,0)"
font-family="Arial" font-size="10" font-weight="400" font-style="normal" 
>
<path vector-effect="non-scaling-stroke" fill-rule="evenodd" d="M251,47 L405,47 L405,74 L251,74 L251,47"/>
</g>

<g fill="none" stroke="#000000" stroke-opacity="1" stroke-width="1" stroke-linecap="square" stroke-linejoin="bevel" transform="matrix(1,0,0,1,0,0)"
font-family="Arial" font-size="10" font-weight="400" font-style="normal" 
>
<text fill="#000000" fill-opacity="1" stroke="none" xml:space="preserve" x="270.312" y="63.0469" font-family="Arial" font-size="10" font-weight="400" font-style="normal" 
 >mode_de_fonctionnement</text>
<path vector-effect="non-scaling-stroke" fill-rule="evenodd" d="M251,128 L405,128 L405,209 L251,209 L251,128"/>
<text fill="#000000" fill-opacity="1" stroke="none" xml:space="preserve" x="317.172" y="171.047" font-family="Arial" font-size="10" font-weight="400" font-style="normal" 
 >RCD</text>
<path vector-effect="non-scaling-stroke" fill-rule="evenodd" d="M251,74 L405,74 L405,128 L251,128 L251,74"/>
<text fill="#000000" fill-opacity="1" stroke="none" xml:space="preserve" x="317.172" y="104.047" font-family="Arial" font-size="10" font-weight="400" font-style="normal" 
 >RCD</text>
<path vector-effect="non-scaling-stroke" fill-rule="evenodd" d="M405,47 L545,47 L545,74 L405,74 L405,47"/>
</g>

<g fill="#a0a0a4" fill-opacity="1" stroke="none" transform="matrix(1,0,0,1,0,0)"
font-family="Arial" font-size="10" font-weight="400" font-style="normal" 
>
<path vector-effect="non-scaling-stroke" fill-rule="evenodd" d="M405,47 L545,47 L545,74 L405,74 L405,47"/>
</g>

<g fill="none" stroke="#000000" stroke-opacity="1" stroke-width="1" stroke-linecap="square" stroke-linejoin="bevel" transform="matrix(1,0,0,1,0,0)"
font-family="Arial" font-size="10" font-weight="400" font-style="normal" 
>
<text fill="#000000" fill-opacity="1" stroke="none" xml:space="preserve" x="455.031" y="63.0469" font-family="Arial" font-size="10" font-weight="400" font-style="normal" 
 >définition</text>
<path vector-effect="non-scaling-stroke" fill-rule="evenodd" d="M405,128 L545,128 L545,209 L405,209 L405,128"/>
<text fill="#000000" fill-opacity="1" stroke="none" xml:space="preserve" x="435.328" y="144.047" font-family="Arial" font-size="10" font-weight="400" font-style="normal" 
 >Mise à disposition</text>
<text fill="#000000" fill-opacity="1" stroke="none" xml:space="preserve" x="444.219" y="171.047" font-family="Arial" font-size="10" font-weight="400" font-style="normal" 
 > de diagnostic</text>
<text fill="#000000" fill-opacity="1" stroke="none" xml:space="preserve" x="448.094" y="198.047" font-family="Arial" font-size="10" font-weight="400" font-style="normal" 
 > PTR021PO</text>
<path vector-effect="non-scaling-stroke" fill-rule="evenodd" d="M405,74 L545,74 L545,128 L405,128 L405,74"/>
<text fill="#000000" fill-opacity="1" stroke="none" xml:space="preserve" x="424.797" y="104.047" font-family="Arial" font-size="10" font-weight="400" font-style="normal" 
 >Diagnostic PTR022PO</text>
<path vector-effect="non-scaling-stroke" fill-rule="evenodd" d="M545,47 L685,47 L685,74 L545,74 L545,47"/>
</g>

<g fill="#a0a0a4" fill-opacity="1" stroke="none" transform="matrix(1,0,0,1,0,0)"
font-family="Arial" font-size="10" font-weight="400" font-style="normal" 
>
<path vector-effect="non-scaling-stroke" fill-rule="evenodd" d="M545,47 L685,47 L685,74 L545,74 L545,47"/>
</g>

<g fill="none" stroke="#000000" stroke-opacity="1" stroke-width="1" stroke-linecap="square" stroke-linejoin="bevel" transform="matrix(1,0,0,1,0,0)"
font-family="Arial" font-size="10" font-weight="400" font-style="normal" 
>
<text fill="#000000" fill-opacity="1" stroke="none" xml:space="preserve" x="576.719" y="63.0469" font-family="Arial" font-size="10" font-weight="400" font-style="normal" 
 >catégorie_AP929</text>
<path vector-effect="non-scaling-stroke" fill-rule="evenodd" d="M545,128 L685,128 L685,209 L545,209 L545,128"/>
<text fill="#000000" fill-opacity="1" stroke="none" xml:space="preserve" x="565.344" y="144.047" font-family="Arial" font-size="10" font-weight="400" font-style="normal" 
 >exigence_de_concepti</text>
<text fill="#000000" fill-opacity="1" stroke="none" xml:space="preserve" x="609.453" y="171.047" font-family="Arial" font-size="10" font-weight="400" font-style="normal" 
 >on</text>
<path vector-effect="non-scaling-stroke" fill-rule="evenodd" d="M545,74 L685,74 L685,128 L545,128 L545,74"/>
<text fill="#000000" fill-opacity="1" stroke="none" xml:space="preserve" x="565.344" y="90.0469" font-family="Arial" font-size="10" font-weight="400" font-style="normal" 
 >exigence_de_concepti</text>
<text fill="#000000" fill-opacity="1" stroke="none" xml:space="preserve" x="609.453" y="117.047" font-family="Arial" font-size="10" font-weight="400" font-style="normal" 
 >on</text>
</g>

<g fill="none" stroke="#000000" stroke-opacity="1" stroke-width="1" stroke-linecap="square" stroke-linejoin="bevel" transform="matrix(1,0,0,1,0,0)"
font-family="Arial" font-size="10" font-weight="700" font-style="normal" 
>
<text fill="#000000" fill-opacity="1" stroke="none" xml:space="preserve" x="20" y="258" font-family="Arial" font-size="10" font-weight="700" font-style="normal" 
 >Equipement</text>
</g>

<g fill="none" stroke="#000000" stroke-opacity="1" stroke-width="1" stroke-linecap="square" stroke-linejoin="bevel" transform="matrix(1,0,0,1,0,0)"
font-family="Arial" font-size="10" font-weight="400" font-style="normal" 
>
<path vector-effect="non-scaling-stroke" fill-rule="evenodd" d="M20,272 L125,272 L125,299 L20,299 L20,272"/>
</g>

<g fill="#a0a0a4" fill-opacity="1" stroke="none" transform="matrix(1,0,0,1,0,0)"
font-family="Arial" font-size="10" font-weight="400" font-style="normal" 
>
<path vector-effect="non-scaling-stroke" fill-rule="evenodd" d="M20,272 L125,272 L125,299 L20,299 L20,272"/>
</g>

<g fill="none" stroke="#000000" stroke-opacity="1" stroke-width="1" stroke-linecap="square" stroke-linejoin="bevel" transform="matrix(1,0,0,1,0,0)"
font-family="Arial" font-size="10" font-weight="400" font-style="normal" 
>
<text fill="#000000" fill-opacity="1" stroke="none" xml:space="preserve" x="68.6094" y="288.047" font-family="Arial" font-size="10" font-weight="400" font-style="normal" 
 >id</text>
<path vector-effect="non-scaling-stroke" fill-rule="evenodd" d="M20,299 L125,299 L125,326 L20,326 L20,299"/>
<text fill="#000000" fill-opacity="1" stroke="none" xml:space="preserve" x="28.9531" y="315.047" font-family="Arial" font-size="10" font-weight="400" font-style="normal" 
 >dom.eq.PTR021PO</text>
<path vector-effect="non-scaling-stroke" fill-rule="evenodd" d="M20,326 L125,326 L125,353 L20,353 L20,326"/>
<text fill="#000000" fill-opacity="1" stroke="none" xml:space="preserve" x="28.9531" y="342.047" font-family="Arial" font-size="10" font-weight="400" font-style="normal" 
 >dom.eq.PTR022PO</text>
<path vector-effect="non-scaling-stroke" fill-rule="evenodd" d="M125,272 L195,272 L195,299 L125,299 L125,272"/>
</g>

<g fill="#a0a0a4" fill-opacity="1" stroke="none" transform="matrix(1,0,0,1,0,0)"
font-family="Arial" font-size="10" font-weight="400" font-style="normal" 
>
<path vector-effect="non-scaling-stroke" fill-rule="evenodd" d="M125,272 L195,272 L195,299 L125,299 L125,272"/>
</g>

<g fill="none" stroke="#000000" stroke-opacity="1" stroke-width="1" stroke-linecap="square" stroke-linejoin="bevel" transform="matrix(1,0,0,1,0,0)"
font-family="Arial" font-size="10" font-weight="400" font-style="normal" 
>
<text fill="#000000" fill-opacity="1" stroke="none" xml:space="preserve" x="139.469" y="288.047" font-family="Arial" font-size="10" font-weight="400" font-style="normal" 
 >catégorie</text>
<path vector-effect="non-scaling-stroke" fill-rule="evenodd" d="M125,299 L195,299 L195,326 L125,326 L125,299"/>
<text fill="#000000" fill-opacity="1" stroke="none" xml:space="preserve" x="144.188" y="315.047" font-family="Arial" font-size="10" font-weight="400" font-style="normal" 
 >Pompe</text>
<path vector-effect="non-scaling-stroke" fill-rule="evenodd" d="M125,326 L195,326 L195,353 L125,353 L125,326"/>
<text fill="#000000" fill-opacity="1" stroke="none" xml:space="preserve" x="144.188" y="342.047" font-family="Arial" font-size="10" font-weight="400" font-style="normal" 
 >Pompe</text>
</g>

<g fill="none" stroke="#000000" stroke-opacity="1" stroke-width="1" stroke-linecap="square" stroke-linejoin="bevel" transform="matrix(1,0,0,1,0,0)"
font-family="Arial" font-size="10" font-weight="700" font-style="normal" 
>
<text fill="#000000" fill-opacity="1" stroke="none" xml:space="preserve" x="20" y="402" font-family="Arial" font-size="10" font-weight="700" font-style="normal" 
 >Système_élémentaire</text>
</g>

<g fill="none" stroke="#000000" stroke-opacity="1" stroke-width="1" stroke-linecap="square" stroke-linejoin="bevel" transform="matrix(1,0,0,1,0,0)"
font-family="Arial" font-size="10" font-weight="400" font-style="normal" 
>
<path vector-effect="non-scaling-stroke" fill-rule="evenodd" d="M20,416 L90,416 L90,443 L20,443 L20,416"/>
</g>

<g fill="#a0a0a4" fill-opacity="1" stroke="none" transform="matrix(1,0,0,1,0,0)"
font-family="Arial" font-size="10" font-weight="400" font-style="normal" 
>
<path vector-effect="non-scaling-stroke" fill-rule="evenodd" d="M20,416 L90,416 L90,443 L20,443 L20,416"/>
</g>

<g fill="none" stroke="#000000" stroke-opacity="1" stroke-width="1" stroke-linecap="square" stroke-linejoin="bevel" transform="matrix(1,0,0,1,0,0)"
font-family="Arial" font-size="10" font-weight="400" font-style="normal" 
>
<text fill="#000000" fill-opacity="1" stroke="none" xml:space="preserve" x="51.1094" y="432.047" font-family="Arial" font-size="10" font-weight="400" font-style="normal" 
 >id</text>
<path vector-effect="non-scaling-stroke" fill-rule="evenodd" d="M20,632 L90,632 L90,713 L20,713 L20,632"/>
<text fill="#000000" fill-opacity="1" stroke="none" xml:space="preserve" x="27.2656" y="675.047" font-family="Arial" font-size="10" font-weight="400" font-style="normal" 
 >dom.se.PTR</text>
<path vector-effect="non-scaling-stroke" fill-rule="evenodd" d="M20,524 L90,524 L90,578 L20,578 L20,524"/>
<text fill="#000000" fill-opacity="1" stroke="none" xml:space="preserve" x="26.7031" y="554.047" font-family="Arial" font-size="10" font-weight="400" font-style="normal" 
 >dom.se.RCV</text>
<path vector-effect="non-scaling-stroke" fill-rule="evenodd" d="M20,578 L90,578 L90,632 L20,632 L20,578"/>
<text fill="#000000" fill-opacity="1" stroke="none" xml:space="preserve" x="26.9844" y="608.047" font-family="Arial" font-size="10" font-weight="400" font-style="normal" 
 >dom.se.REA</text>
<path vector-effect="non-scaling-stroke" fill-rule="evenodd" d="M20,443 L90,443 L90,524 L20,524 L20,443"/>
<text fill="#000000" fill-opacity="1" stroke="none" xml:space="preserve" x="26.7031" y="486.047" font-family="Arial" font-size="10" font-weight="400" font-style="normal" 
 >dom.se.RRA</text>
<path vector-effect="non-scaling-stroke" fill-rule="evenodd" d="M20,713 L90,713 L90,767 L20,767 L20,713"/>
<text fill="#000000" fill-opacity="1" stroke="none" xml:space="preserve" x="27.5469" y="743.047" font-family="Arial" font-size="10" font-weight="400" font-style="normal" 
 >dom.se.TEP</text>
<path vector-effect="non-scaling-stroke" fill-rule="evenodd" d="M90,416 L230,416 L230,443 L90,443 L90,416"/>
</g>

<g fill="#a0a0a4" fill-opacity="1" stroke="none" transform="matrix(1,0,0,1,0,0)"
font-family="Arial" font-size="10" font-weight="400" font-style="normal" 
>
<path vector-effect="non-scaling-stroke" fill-rule="evenodd" d="M90,416 L230,416 L230,443 L90,443 L90,416"/>
</g>

<g fill="none" stroke="#000000" stroke-opacity="1" stroke-width="1" stroke-linecap="square" stroke-linejoin="bevel" transform="matrix(1,0,0,1,0,0)"
font-family="Arial" font-size="10" font-weight="400" font-style="normal" 
>
<text fill="#000000" fill-opacity="1" stroke="none" xml:space="preserve" x="140.031" y="432.047" font-family="Arial" font-size="10" font-weight="400" font-style="normal" 
 >définition</text>
<path vector-effect="non-scaling-stroke" fill-rule="evenodd" d="M90,632 L230,632 L230,713 L90,713 L90,632"/>
<text fill="#000000" fill-opacity="1" stroke="none" xml:space="preserve" x="118.391" y="648.047" font-family="Arial" font-size="10" font-weight="400" font-style="normal" 
 >Refroidissement et</text>
<text fill="#000000" fill-opacity="1" stroke="none" xml:space="preserve" x="122" y="675.047" font-family="Arial" font-size="10" font-weight="400" font-style="normal" 
 > conditionnement</text>
<text fill="#000000" fill-opacity="1" stroke="none" xml:space="preserve" x="131.141" y="702.047" font-family="Arial" font-size="10" font-weight="400" font-style="normal" 
 > des piscines</text>
<path vector-effect="non-scaling-stroke" fill-rule="evenodd" d="M90,524 L230,524 L230,578 L90,578 L90,524"/>
<text fill="#000000" fill-opacity="1" stroke="none" xml:space="preserve" x="119.781" y="540.047" font-family="Arial" font-size="10" font-weight="400" font-style="normal" 
 >Contrôle chimique</text>
<text fill="#000000" fill-opacity="1" stroke="none" xml:space="preserve" x="124.5" y="567.047" font-family="Arial" font-size="10" font-weight="400" font-style="normal" 
 > et volumétrique</text>
<path vector-effect="non-scaling-stroke" fill-rule="evenodd" d="M90,578 L230,578 L230,632 L90,632 L90,578"/>
<text fill="#000000" fill-opacity="1" stroke="none" xml:space="preserve" x="122.719" y="594.047" font-family="Arial" font-size="10" font-weight="400" font-style="normal" 
 >Appoint d'eau au</text>
<text fill="#000000" fill-opacity="1" stroke="none" xml:space="preserve" x="140.312" y="621.047" font-family="Arial" font-size="10" font-weight="400" font-style="normal" 
 > réacteur</text>
<path vector-effect="non-scaling-stroke" fill-rule="evenodd" d="M90,443 L230,443 L230,524 L90,524 L90,443"/>
<text fill="#000000" fill-opacity="1" stroke="none" xml:space="preserve" x="117" y="459.047" font-family="Arial" font-size="10" font-weight="400" font-style="normal" 
 >Refroidissement du</text>
<text fill="#000000" fill-opacity="1" stroke="none" xml:space="preserve" x="136.156" y="486.047" font-family="Arial" font-size="10" font-weight="400" font-style="normal" 
 > réacteur à</text>
<text fill="#000000" fill-opacity="1" stroke="none" xml:space="preserve" x="146.297" y="513.047" font-family="Arial" font-size="10" font-weight="400" font-style="normal" 
 > l'arrêt</text>
<path vector-effect="non-scaling-stroke" fill-rule="evenodd" d="M90,713 L230,713 L230,767 L90,767 L90,713"/>
<text fill="#000000" fill-opacity="1" stroke="none" xml:space="preserve" x="126.906" y="729.047" font-family="Arial" font-size="10" font-weight="400" font-style="normal" 
 >Traitement des</text>
<text fill="#000000" fill-opacity="1" stroke="none" xml:space="preserve" x="117.938" y="756.047" font-family="Arial" font-size="10" font-weight="400" font-style="normal" 
 > effluents primaires</text>
</g>

<g fill="none" stroke="#000000" stroke-opacity="1" stroke-width="1" stroke-linecap="square" stroke-linejoin="bevel" transform="matrix(1,0,0,1,0,0)"
font-family="Arial" font-size="10" font-weight="700" font-style="normal" 
>
<text fill="#000000" fill-opacity="1" stroke="none" xml:space="preserve" x="87" y="943" font-family="Arial" font-size="10" font-weight="700" font-style="normal" 
 >Tranche</text>
</g>

<g fill="none" stroke="#000000" stroke-opacity="1" stroke-width="1" stroke-linecap="square" stroke-linejoin="bevel" transform="matrix(1,0,0,1,0,0)"
font-family="Arial" font-size="10" font-weight="400" font-style="normal" 
>
<path vector-effect="non-scaling-stroke" fill-rule="evenodd" d="M87,957 L164,957 L164,984 L87,984 L87,957"/>
</g>

<g fill="#a0a0a4" fill-opacity="1" stroke="none" transform="matrix(1,0,0,1,0,0)"
font-family="Arial" font-size="10" font-weight="400" font-style="normal" 
>
<path vector-effect="non-scaling-stroke" fill-rule="evenodd" d="M87,957 L164,957 L164,984 L87,984 L87,957"/>
</g>

<g fill="none" stroke="#000000" stroke-opacity="1" stroke-width="1" stroke-linecap="square" stroke-linejoin="bevel" transform="matrix(1,0,0,1,0,0)"
font-family="Arial" font-size="10" font-weight="400" font-style="normal" 
>
<text fill="#000000" fill-opacity="1" stroke="none" xml:space="preserve" x="121.609" y="973.047" font-family="Arial" font-size="10" font-weight="400" font-style="normal" 
 >id</text>
<path vector-effect="non-scaling-stroke" fill-rule="evenodd" d="M87,984 L164,984 L164,1038 L87,1038 L87,984"/>
<text fill="#000000" fill-opacity="1" stroke="none" xml:space="preserve" x="96.3906" y="1014.05" font-family="Arial" font-size="10" font-weight="400" font-style="normal" 
 >dom.tr.LEGO</text>
<path vector-effect="non-scaling-stroke" fill-rule="evenodd" d="M164,957 L304,957 L304,984 L164,984 L164,957"/>
</g>

<g fill="#a0a0a4" fill-opacity="1" stroke="none" transform="matrix(1,0,0,1,0,0)"
font-family="Arial" font-size="10" font-weight="400" font-style="normal" 
>
<path vector-effect="non-scaling-stroke" fill-rule="evenodd" d="M164,957 L304,957 L304,984 L164,984 L164,957"/>
</g>

<g fill="none" stroke="#000000" stroke-opacity="1" stroke-width="1" stroke-linecap="square" stroke-linejoin="bevel" transform="matrix(1,0,0,1,0,0)"
font-family="Arial" font-size="10" font-weight="400" font-style="normal" 
>
<text fill="#000000" fill-opacity="1" stroke="none" xml:space="preserve" x="214.031" y="973.047" font-family="Arial" font-size="10" font-weight="400" font-style="normal" 
 >définition</text>
<path vector-effect="non-scaling-stroke" fill-rule="evenodd" d="M164,984 L304,984 L304,1038 L164,1038 L164,984"/>
<text fill="#000000" fill-opacity="1" stroke="none" xml:space="preserve" x="196.547" y="1000.05" font-family="Arial" font-size="10" font-weight="400" font-style="normal" 
 >Centrale simulée</text>
<text fill="#000000" fill-opacity="1" stroke="none" xml:space="preserve" x="202.375" y="1027.05" font-family="Arial" font-size="10" font-weight="400" font-style="normal" 
 > CONNEXION</text>
</g>

<g fill="none" stroke="#0e32c8" stroke-opacity="1" stroke-width="1" stroke-linecap="square" stroke-linejoin="bevel" transform="matrix(1,0,0,1,0,0)"
font-family="Arial" font-size="10" font-weight="400" font-style="normal" 
>
<polyline fill="none" vector-effect="non-scaling-stroke" points="352,209 107,299 " />
<polyline fill="none" vector-effect="non-scaling-stroke" points="352,209 125,632 " />
<polyline fill="none" vector-effect="non-scaling-stroke" points="352,209 195,984 " />
<polyline fill="none" vector-effect="non-scaling-stroke" points="352,128 107,326 " />
<polyline fill="none" vector-effect="non-scaling-stroke" points="352,128 125,632 " />
<polyline fill="none" vector-effect="non-scaling-stroke" points="352,128 195,984 " />
</g>
</g>
</svg>
