<?xml version="1.0" encoding="UTF-8" standalone="no"?>
<svg width="345.017mm" height="337.961mm"
 viewBox="0 0 978 958"
 xmlns="http://www.w3.org/2000/svg" xmlns:xlink="http://www.w3.org/1999/xlink"  version="1.2" baseProfile="tiny">
<title>SVG Generator Example Drawing</title>
<desc>Dessin svg pour une démonstration</desc>
<defs>
</defs>
<g fill="none" stroke="black" stroke-width="1" fill-rule="evenodd" stroke-linecap="square" stroke-linejoin="bevel" >

<g fill="none" stroke="#000000" stroke-opacity="1" stroke-width="1" stroke-linecap="square" stroke-linejoin="bevel" transform="matrix(1,0,0,1,0,0)"
font-family="Arial" font-size="10" font-weight="700" font-style="normal" 
>
<text fill="#000000" fill-opacity="1" stroke="none" xml:space="preserve" x="20" y="33" font-family="Arial" font-size="10" font-weight="700" font-style="normal" 
 >Contexte_de_service</text>
</g>

<g fill="none" stroke="#000000" stroke-opacity="1" stroke-width="1" stroke-linecap="square" stroke-linejoin="bevel" transform="matrix(1,0,0,1,0,0)"
font-family="Arial" font-size="10" font-weight="400" font-style="normal" 
>
<path vector-effect="non-scaling-stroke" fill-rule="evenodd" d="M20,47 L153,47 L153,74 L20,74 L20,47"/>
</g>

<g fill="#a0a0a4" fill-opacity="1" stroke="none" transform="matrix(1,0,0,1,0,0)"
font-family="Arial" font-size="10" font-weight="400" font-style="normal" 
>
<path vector-effect="non-scaling-stroke" fill-rule="evenodd" d="M20,47 L153,47 L153,74 L20,74 L20,47"/>
</g>

<g fill="none" stroke="#000000" stroke-opacity="1" stroke-width="1" stroke-linecap="square" stroke-linejoin="bevel" transform="matrix(1,0,0,1,0,0)"
font-family="Arial" font-size="10" font-weight="400" font-style="normal" 
>
<text fill="#000000" fill-opacity="1" stroke="none" xml:space="preserve" x="82.6094" y="63.0469" font-family="Arial" font-size="10" font-weight="400" font-style="normal" 
 >id</text>
<path vector-effect="non-scaling-stroke" fill-rule="evenodd" d="M20,74 L153,74 L153,128 L20,128 L20,74"/>
<text fill="#000000" fill-opacity="1" stroke="none" xml:space="preserve" x="36.5625" y="104.047" font-family="Arial" font-size="10" font-weight="400" font-style="normal" 
 >ctx.cs.DiagPTR021PO</text>
<path vector-effect="non-scaling-stroke" fill-rule="evenodd" d="M20,128 L153,128 L153,182 L20,182 L20,128"/>
<text fill="#000000" fill-opacity="1" stroke="none" xml:space="preserve" x="36.5625" y="158.047" font-family="Arial" font-size="10" font-weight="400" font-style="normal" 
 >ctx.cs.DiagPTR022PO</text>
<path vector-effect="non-scaling-stroke" fill-rule="evenodd" d="M153,47 L202,47 L202,74 L153,74 L153,47"/>
</g>

<g fill="#a0a0a4" fill-opacity="1" stroke="none" transform="matrix(1,0,0,1,0,0)"
font-family="Arial" font-size="10" font-weight="400" font-style="normal" 
>
<path vector-effect="non-scaling-stroke" fill-rule="evenodd" d="M153,47 L202,47 L202,74 L153,74 L153,47"/>
</g>

<g fill="none" stroke="#000000" stroke-opacity="1" stroke-width="1" stroke-linecap="square" stroke-linejoin="bevel" transform="matrix(1,0,0,1,0,0)"
font-family="Arial" font-size="10" font-weight="400" font-style="normal" 
>
<text fill="#000000" fill-opacity="1" stroke="none" xml:space="preserve" x="163.359" y="63.0469" font-family="Arial" font-size="10" font-weight="400" font-style="normal" 
 >terrain</text>
<path vector-effect="non-scaling-stroke" fill-rule="evenodd" d="M153,74 L202,74 L202,128 L153,128 L153,74"/>
<text fill="#000000" fill-opacity="1" stroke="none" xml:space="preserve" x="168.906" y="104.047" font-family="Arial" font-size="10" font-weight="400" font-style="normal" 
 >true</text>
<path vector-effect="non-scaling-stroke" fill-rule="evenodd" d="M153,128 L202,128 L202,182 L153,182 L153,128"/>
<text fill="#000000" fill-opacity="1" stroke="none" xml:space="preserve" x="168.906" y="158.047" font-family="Arial" font-size="10" font-weight="400" font-style="normal" 
 >true</text>
<path vector-effect="non-scaling-stroke" fill-rule="evenodd" d="M202,47 L251,47 L251,74 L202,74 L202,47"/>
</g>

<g fill="#a0a0a4" fill-opacity="1" stroke="none" transform="matrix(1,0,0,1,0,0)"
font-family="Arial" font-size="10" font-weight="400" font-style="normal" 
>
<path vector-effect="non-scaling-stroke" fill-rule="evenodd" d="M202,47 L251,47 L251,74 L202,74 L202,47"/>
</g>

<g fill="none" stroke="#000000" stroke-opacity="1" stroke-width="1" stroke-linecap="square" stroke-linejoin="bevel" transform="matrix(1,0,0,1,0,0)"
font-family="Arial" font-size="10" font-weight="400" font-style="normal" 
>
<text fill="#000000" fill-opacity="1" stroke="none" xml:space="preserve" x="212.625" y="63.0469" font-family="Arial" font-size="10" font-weight="400" font-style="normal" 
 >métier</text>
<path vector-effect="non-scaling-stroke" fill-rule="evenodd" d="M202,74 L251,74 L251,128 L202,128 L202,74"/>
<text fill="#000000" fill-opacity="1" stroke="none" xml:space="preserve" x="212.062" y="104.047" font-family="Arial" font-size="10" font-weight="400" font-style="normal" 
 >chimie</text>
<path vector-effect="non-scaling-stroke" fill-rule="evenodd" d="M202,128 L251,128 L251,182 L202,182 L202,128"/>
<text fill="#000000" fill-opacity="1" stroke="none" xml:space="preserve" x="212.062" y="158.047" font-family="Arial" font-size="10" font-weight="400" font-style="normal" 
 >chimie</text>
<path vector-effect="non-scaling-stroke" fill-rule="evenodd" d="M251,47 L405,47 L405,74 L251,74 L251,47"/>
</g>

<g fill="#a0a0a4" fill-opacity="1" stroke="none" transform="matrix(1,0,0,1,0,0)"
font-family="Arial" font-size="10" font-weight="400" font-style="normal" 
>
<path vector-effect="non-scaling-stroke" fill-rule="evenodd" d="M251,47 L405,47 L405,74 L251,74 L251,47"/>
</g>

<g fill="none" stroke="#000000" stroke-opacity="1" stroke-width="1" stroke-linecap="square" stroke-linejoin="bevel" transform="matrix(1,0,0,1,0,0)"
font-family="Arial" font-size="10" font-weight="400" font-style="normal" 
>
<text fill="#000000" fill-opacity="1" stroke="none" xml:space="preserve" x="270.312" y="63.0469" font-family="Arial" font-size="10" font-weight="400" font-style="normal" 
 >mode_de_fonctionnement</text>
<path vector-effect="non-scaling-stroke" fill-rule="evenodd" d="M251,74 L405,74 L405,128 L251,128 L251,74"/>
<text fill="#000000" fill-opacity="1" stroke="none" xml:space="preserve" x="317.172" y="104.047" font-family="Arial" font-size="10" font-weight="400" font-style="normal" 
 >RCD</text>
<path vector-effect="non-scaling-stroke" fill-rule="evenodd" d="M251,128 L405,128 L405,182 L251,182 L251,128"/>
<text fill="#000000" fill-opacity="1" stroke="none" xml:space="preserve" x="317.172" y="158.047" font-family="Arial" font-size="10" font-weight="400" font-style="normal" 
 >RCD</text>
<path vector-effect="non-scaling-stroke" fill-rule="evenodd" d="M405,47 L545,47 L545,74 L405,74 L405,47"/>
</g>

<g fill="#a0a0a4" fill-opacity="1" stroke="none" transform="matrix(1,0,0,1,0,0)"
font-family="Arial" font-size="10" font-weight="400" font-style="normal" 
>
<path vector-effect="non-scaling-stroke" fill-rule="evenodd" d="M405,47 L545,47 L545,74 L405,74 L405,47"/>
</g>

<g fill="none" stroke="#000000" stroke-opacity="1" stroke-width="1" stroke-linecap="square" stroke-linejoin="bevel" transform="matrix(1,0,0,1,0,0)"
font-family="Arial" font-size="10" font-weight="400" font-style="normal" 
>
<text fill="#000000" fill-opacity="1" stroke="none" xml:space="preserve" x="455.031" y="63.0469" font-family="Arial" font-size="10" font-weight="400" font-style="normal" 
 >définition</text>
<path vector-effect="non-scaling-stroke" fill-rule="evenodd" d="M405,74 L545,74 L545,128 L405,128 L405,74"/>
<text fill="#000000" fill-opacity="1" stroke="none" xml:space="preserve" x="435.328" y="90.0469" font-family="Arial" font-size="10" font-weight="400" font-style="normal" 
 >Mise à disposition</text>
<text fill="#000000" fill-opacity="1" stroke="none" xml:space="preserve" x="444.219" y="117.047" font-family="Arial" font-size="10" font-weight="400" font-style="normal" 
 > de diagnostic</text>
<text fill="#000000" fill-opacity="1" stroke="none" xml:space="preserve" x="448.094" y="144.047" font-family="Arial" font-size="10" font-weight="400" font-style="normal" 
 > PTR021PO</text>
<path vector-effect="non-scaling-stroke" fill-rule="evenodd" d="M405,128 L545,128 L545,182 L405,182 L405,128"/>
<text fill="#000000" fill-opacity="1" stroke="none" xml:space="preserve" x="424.797" y="158.047" font-family="Arial" font-size="10" font-weight="400" font-style="normal" 
 >Diagnostic PTR022PO</text>
<path vector-effect="non-scaling-stroke" fill-rule="evenodd" d="M545,47 L685,47 L685,74 L545,74 L545,47"/>
</g>

<g fill="#a0a0a4" fill-opacity="1" stroke="none" transform="matrix(1,0,0,1,0,0)"
font-family="Arial" font-size="10" font-weight="400" font-style="normal" 
>
<path vector-effect="non-scaling-stroke" fill-rule="evenodd" d="M545,47 L685,47 L685,74 L545,74 L545,47"/>
</g>

<g fill="none" stroke="#000000" stroke-opacity="1" stroke-width="1" stroke-linecap="square" stroke-linejoin="bevel" transform="matrix(1,0,0,1,0,0)"
font-family="Arial" font-size="10" font-weight="400" font-style="normal" 
>
<text fill="#000000" fill-opacity="1" stroke="none" xml:space="preserve" x="576.719" y="63.0469" font-family="Arial" font-size="10" font-weight="400" font-style="normal" 
 >catégorie_AP929</text>
<path vector-effect="non-scaling-stroke" fill-rule="evenodd" d="M545,74 L685,74 L685,128 L545,128 L545,74"/>
<text fill="#000000" fill-opacity="1" stroke="none" xml:space="preserve" x="565.344" y="90.0469" font-family="Arial" font-size="10" font-weight="400" font-style="normal" 
 >exigence_de_concepti</text>
<text fill="#000000" fill-opacity="1" stroke="none" xml:space="preserve" x="609.453" y="117.047" font-family="Arial" font-size="10" font-weight="400" font-style="normal" 
 >on</text>
<path vector-effect="non-scaling-stroke" fill-rule="evenodd" d="M545,128 L685,128 L685,182 L545,182 L545,128"/>
<text fill="#000000" fill-opacity="1" stroke="none" xml:space="preserve" x="565.344" y="144.047" font-family="Arial" font-size="10" font-weight="400" font-style="normal" 
 >exigence_de_concepti</text>
<text fill="#000000" fill-opacity="1" stroke="none" xml:space="preserve" x="609.453" y="171.047" font-family="Arial" font-size="10" font-weight="400" font-style="normal" 
 >on</text>
</g>

<g fill="none" stroke="#000000" stroke-opacity="1" stroke-width="1" stroke-linecap="square" stroke-linejoin="bevel" transform="matrix(1,0,0,1,0,0)"
font-family="Arial" font-size="10" font-weight="700" font-style="normal" 
>
<text fill="#000000" fill-opacity="1" stroke="none" xml:space="preserve" x="20" y="843" font-family="Arial" font-size="10" font-weight="700" font-style="normal" 
 >Equipement</text>
</g>

<g fill="none" stroke="#000000" stroke-opacity="1" stroke-width="1" stroke-linecap="square" stroke-linejoin="bevel" transform="matrix(1,0,0,1,0,0)"
font-family="Arial" font-size="10" font-weight="400" font-style="normal" 
>
<path vector-effect="non-scaling-stroke" fill-rule="evenodd" d="M20,857 L125,857 L125,884 L20,884 L20,857"/>
</g>

<g fill="#a0a0a4" fill-opacity="1" stroke="none" transform="matrix(1,0,0,1,0,0)"
font-family="Arial" font-size="10" font-weight="400" font-style="normal" 
>
<path vector-effect="non-scaling-stroke" fill-rule="evenodd" d="M20,857 L125,857 L125,884 L20,884 L20,857"/>
</g>

<g fill="none" stroke="#000000" stroke-opacity="1" stroke-width="1" stroke-linecap="square" stroke-linejoin="bevel" transform="matrix(1,0,0,1,0,0)"
font-family="Arial" font-size="10" font-weight="400" font-style="normal" 
>
<text fill="#000000" fill-opacity="1" stroke="none" xml:space="preserve" x="68.6094" y="873.047" font-family="Arial" font-size="10" font-weight="400" font-style="normal" 
 >id</text>
<path vector-effect="non-scaling-stroke" fill-rule="evenodd" d="M20,884 L125,884 L125,911 L20,911 L20,884"/>
<text fill="#000000" fill-opacity="1" stroke="none" xml:space="preserve" x="28.9531" y="900.047" font-family="Arial" font-size="10" font-weight="400" font-style="normal" 
 >dom.eq.PTR021PO</text>
<path vector-effect="non-scaling-stroke" fill-rule="evenodd" d="M20,911 L125,911 L125,938 L20,938 L20,911"/>
<text fill="#000000" fill-opacity="1" stroke="none" xml:space="preserve" x="28.9531" y="927.047" font-family="Arial" font-size="10" font-weight="400" font-style="normal" 
 >dom.eq.PTR022PO</text>
<path vector-effect="non-scaling-stroke" fill-rule="evenodd" d="M125,857 L195,857 L195,884 L125,884 L125,857"/>
</g>

<g fill="#a0a0a4" fill-opacity="1" stroke="none" transform="matrix(1,0,0,1,0,0)"
font-family="Arial" font-size="10" font-weight="400" font-style="normal" 
>
<path vector-effect="non-scaling-stroke" fill-rule="evenodd" d="M125,857 L195,857 L195,884 L125,884 L125,857"/>
</g>

<g fill="none" stroke="#000000" stroke-opacity="1" stroke-width="1" stroke-linecap="square" stroke-linejoin="bevel" transform="matrix(1,0,0,1,0,0)"
font-family="Arial" font-size="10" font-weight="400" font-style="normal" 
>
<text fill="#000000" fill-opacity="1" stroke="none" xml:space="preserve" x="139.469" y="873.047" font-family="Arial" font-size="10" font-weight="400" font-style="normal" 
 >catégorie</text>
<path vector-effect="non-scaling-stroke" fill-rule="evenodd" d="M125,884 L195,884 L195,911 L125,911 L125,884"/>
<text fill="#000000" fill-opacity="1" stroke="none" xml:space="preserve" x="144.188" y="900.047" font-family="Arial" font-size="10" font-weight="400" font-style="normal" 
 >Pompe</text>
<path vector-effect="non-scaling-stroke" fill-rule="evenodd" d="M125,911 L195,911 L195,938 L125,938 L125,911"/>
<text fill="#000000" fill-opacity="1" stroke="none" xml:space="preserve" x="144.188" y="927.047" font-family="Arial" font-size="10" font-weight="400" font-style="normal" 
 >Pompe</text>
</g>

<g fill="none" stroke="#000000" stroke-opacity="1" stroke-width="1" stroke-linecap="square" stroke-linejoin="bevel" transform="matrix(1,0,0,1,0,0)"
font-family="Arial" font-size="10" font-weight="700" font-style="normal" 
>
<text fill="#000000" fill-opacity="1" stroke="none" xml:space="preserve" x="20" y="285" font-family="Arial" font-size="10" font-weight="700" font-style="normal" 
 >Système_élémentaire</text>
</g>

<g fill="none" stroke="#000000" stroke-opacity="1" stroke-width="1" stroke-linecap="square" stroke-linejoin="bevel" transform="matrix(1,0,0,1,0,0)"
font-family="Arial" font-size="10" font-weight="400" font-style="normal" 
>
<path vector-effect="non-scaling-stroke" fill-rule="evenodd" d="M20,299 L90,299 L90,326 L20,326 L20,299"/>
</g>

<g fill="#a0a0a4" fill-opacity="1" stroke="none" transform="matrix(1,0,0,1,0,0)"
font-family="Arial" font-size="10" font-weight="400" font-style="normal" 
>
<path vector-effect="non-scaling-stroke" fill-rule="evenodd" d="M20,299 L90,299 L90,326 L20,326 L20,299"/>
</g>

<g fill="none" stroke="#000000" stroke-opacity="1" stroke-width="1" stroke-linecap="square" stroke-linejoin="bevel" transform="matrix(1,0,0,1,0,0)"
font-family="Arial" font-size="10" font-weight="400" font-style="normal" 
>
<text fill="#000000" fill-opacity="1" stroke="none" xml:space="preserve" x="51.1094" y="315.047" font-family="Arial" font-size="10" font-weight="400" font-style="normal" 
 >id</text>
<path vector-effect="non-scaling-stroke" fill-rule="evenodd" d="M20,407 L90,407 L90,488 L20,488 L20,407"/>
<text fill="#000000" fill-opacity="1" stroke="none" xml:space="preserve" x="27.2656" y="450.047" font-family="Arial" font-size="10" font-weight="400" font-style="normal" 
 >dom.se.PTR</text>
<path vector-effect="non-scaling-stroke" fill-rule="evenodd" d="M20,596 L90,596 L90,650 L20,650 L20,596"/>
<text fill="#000000" fill-opacity="1" stroke="none" xml:space="preserve" x="26.7031" y="626.047" font-family="Arial" font-size="10" font-weight="400" font-style="normal" 
 >dom.se.RCV</text>
<path vector-effect="non-scaling-stroke" fill-rule="evenodd" d="M20,488 L90,488 L90,542 L20,542 L20,488"/>
<text fill="#000000" fill-opacity="1" stroke="none" xml:space="preserve" x="26.9844" y="518.047" font-family="Arial" font-size="10" font-weight="400" font-style="normal" 
 >dom.se.REA</text>
<path vector-effect="non-scaling-stroke" fill-rule="evenodd" d="M20,326 L90,326 L90,407 L20,407 L20,326"/>
<text fill="#000000" fill-opacity="1" stroke="none" xml:space="preserve" x="26.7031" y="369.047" font-family="Arial" font-size="10" font-weight="400" font-style="normal" 
 >dom.se.RRA</text>
<path vector-effect="non-scaling-stroke" fill-rule="evenodd" d="M20,542 L90,542 L90,596 L20,596 L20,542"/>
<text fill="#000000" fill-opacity="1" stroke="none" xml:space="preserve" x="27.5469" y="572.047" font-family="Arial" font-size="10" font-weight="400" font-style="normal" 
 >dom.se.TEP</text>
<path vector-effect="non-scaling-stroke" fill-rule="evenodd" d="M90,299 L230,299 L230,326 L90,326 L90,299"/>
</g>

<g fill="#a0a0a4" fill-opacity="1" stroke="none" transform="matrix(1,0,0,1,0,0)"
font-family="Arial" font-size="10" font-weight="400" font-style="normal" 
>
<path vector-effect="non-scaling-stroke" fill-rule="evenodd" d="M90,299 L230,299 L230,326 L90,326 L90,299"/>
</g>

<g fill="none" stroke="#000000" stroke-opacity="1" stroke-width="1" stroke-linecap="square" stroke-linejoin="bevel" transform="matrix(1,0,0,1,0,0)"
font-family="Arial" font-size="10" font-weight="400" font-style="normal" 
>
<text fill="#000000" fill-opacity="1" stroke="none" xml:space="preserve" x="140.031" y="315.047" font-family="Arial" font-size="10" font-weight="400" font-style="normal" 
 >définition</text>
<path vector-effect="non-scaling-stroke" fill-rule="evenodd" d="M90,407 L230,407 L230,488 L90,488 L90,407"/>
<text fill="#000000" fill-opacity="1" stroke="none" xml:space="preserve" x="118.391" y="423.047" font-family="Arial" font-size="10" font-weight="400" font-style="normal" 
 >Refroidissement et</text>
<text fill="#000000" fill-opacity="1" stroke="none" xml:space="preserve" x="122" y="450.047" font-family="Arial" font-size="10" font-weight="400" font-style="normal" 
 > conditionnement</text>
<text fill="#000000" fill-opacity="1" stroke="none" xml:space="preserve" x="131.141" y="477.047" font-family="Arial" font-size="10" font-weight="400" font-style="normal" 
 > des piscines</text>
<path vector-effect="non-scaling-stroke" fill-rule="evenodd" d="M90,596 L230,596 L230,650 L90,650 L90,596"/>
<text fill="#000000" fill-opacity="1" stroke="none" xml:space="preserve" x="119.781" y="612.047" font-family="Arial" font-size="10" font-weight="400" font-style="normal" 
 >Contrôle chimique</text>
<text fill="#000000" fill-opacity="1" stroke="none" xml:space="preserve" x="124.5" y="639.047" font-family="Arial" font-size="10" font-weight="400" font-style="normal" 
 > et volumétrique</text>
<path vector-effect="non-scaling-stroke" fill-rule="evenodd" d="M90,488 L230,488 L230,542 L90,542 L90,488"/>
<text fill="#000000" fill-opacity="1" stroke="none" xml:space="preserve" x="122.719" y="504.047" font-family="Arial" font-size="10" font-weight="400" font-style="normal" 
 >Appoint d'eau au</text>
<text fill="#000000" fill-opacity="1" stroke="none" xml:space="preserve" x="140.312" y="531.047" font-family="Arial" font-size="10" font-weight="400" font-style="normal" 
 > réacteur</text>
<path vector-effect="non-scaling-stroke" fill-rule="evenodd" d="M90,326 L230,326 L230,407 L90,407 L90,326"/>
<text fill="#000000" fill-opacity="1" stroke="none" xml:space="preserve" x="117" y="342.047" font-family="Arial" font-size="10" font-weight="400" font-style="normal" 
 >Refroidissement du</text>
<text fill="#000000" fill-opacity="1" stroke="none" xml:space="preserve" x="136.156" y="369.047" font-family="Arial" font-size="10" font-weight="400" font-style="normal" 
 > réacteur à</text>
<text fill="#000000" fill-opacity="1" stroke="none" xml:space="preserve" x="146.297" y="396.047" font-family="Arial" font-size="10" font-weight="400" font-style="normal" 
 > l'arrêt</text>
<path vector-effect="non-scaling-stroke" fill-rule="evenodd" d="M90,542 L230,542 L230,596 L90,596 L90,542"/>
<text fill="#000000" fill-opacity="1" stroke="none" xml:space="preserve" x="126.906" y="558.047" font-family="Arial" font-size="10" font-weight="400" font-style="normal" 
 >Traitement des</text>
<text fill="#000000" fill-opacity="1" stroke="none" xml:space="preserve" x="117.938" y="585.047" font-family="Arial" font-size="10" font-weight="400" font-style="normal" 
 > effluents primaires</text>
</g>

<g fill="none" stroke="#000000" stroke-opacity="1" stroke-width="1" stroke-linecap="square" stroke-linejoin="bevel" transform="matrix(1,0,0,1,0,0)"
font-family="Arial" font-size="10" font-weight="700" font-style="normal" 
>
<text fill="#000000" fill-opacity="1" stroke="none" xml:space="preserve" x="20" y="699" font-family="Arial" font-size="10" font-weight="700" font-style="normal" 
 >Tranche</text>
</g>

<g fill="none" stroke="#000000" stroke-opacity="1" stroke-width="1" stroke-linecap="square" stroke-linejoin="bevel" transform="matrix(1,0,0,1,0,0)"
font-family="Arial" font-size="10" font-weight="400" font-style="normal" 
>
<path vector-effect="non-scaling-stroke" fill-rule="evenodd" d="M20,713 L97,713 L97,740 L20,740 L20,713"/>
</g>

<g fill="#a0a0a4" fill-opacity="1" stroke="none" transform="matrix(1,0,0,1,0,0)"
font-family="Arial" font-size="10" font-weight="400" font-style="normal" 
>
<path vector-effect="non-scaling-stroke" fill-rule="evenodd" d="M20,713 L97,713 L97,740 L20,740 L20,713"/>
</g>

<g fill="none" stroke="#000000" stroke-opacity="1" stroke-width="1" stroke-linecap="square" stroke-linejoin="bevel" transform="matrix(1,0,0,1,0,0)"
font-family="Arial" font-size="10" font-weight="400" font-style="normal" 
>
<text fill="#000000" fill-opacity="1" stroke="none" xml:space="preserve" x="54.6094" y="729.047" font-family="Arial" font-size="10" font-weight="400" font-style="normal" 
 >id</text>
<path vector-effect="non-scaling-stroke" fill-rule="evenodd" d="M20,740 L97,740 L97,794 L20,794 L20,740"/>
<text fill="#000000" fill-opacity="1" stroke="none" xml:space="preserve" x="29.3906" y="770.047" font-family="Arial" font-size="10" font-weight="400" font-style="normal" 
 >dom.tr.LEGO</text>
<path vector-effect="non-scaling-stroke" fill-rule="evenodd" d="M97,713 L237,713 L237,740 L97,740 L97,713"/>
</g>

<g fill="#a0a0a4" fill-opacity="1" stroke="none" transform="matrix(1,0,0,1,0,0)"
font-family="Arial" font-size="10" font-weight="400" font-style="normal" 
>
<path vector-effect="non-scaling-stroke" fill-rule="evenodd" d="M97,713 L237,713 L237,740 L97,740 L97,713"/>
</g>

<g fill="none" stroke="#000000" stroke-opacity="1" stroke-width="1" stroke-linecap="square" stroke-linejoin="bevel" transform="matrix(1,0,0,1,0,0)"
font-family="Arial" font-size="10" font-weight="400" font-style="normal" 
>
<text fill="#000000" fill-opacity="1" stroke="none" xml:space="preserve" x="147.031" y="729.047" font-family="Arial" font-size="10" font-weight="400" font-style="normal" 
 >définition</text>
<path vector-effect="non-scaling-stroke" fill-rule="evenodd" d="M97,740 L237,740 L237,794 L97,794 L97,740"/>
<text fill="#000000" fill-opacity="1" stroke="none" xml:space="preserve" x="129.547" y="756.047" font-family="Arial" font-size="10" font-weight="400" font-style="normal" 
 >Centrale simulée</text>
<text fill="#000000" fill-opacity="1" stroke="none" xml:space="preserve" x="135.375" y="783.047" font-family="Arial" font-size="10" font-weight="400" font-style="normal" 
 > CONNEXION</text>
</g>

<g fill="none" stroke="#0e32c8" stroke-opacity="1" stroke-width="1" stroke-linecap="square" stroke-linejoin="bevel" transform="matrix(1,0,0,1,0,0)"
font-family="Arial" font-size="10" font-weight="400" font-style="normal" 
>
<polyline fill="none" vector-effect="non-scaling-stroke" points="352,182 107,911 " />
<polyline fill="none" vector-effect="non-scaling-stroke" points="352,182 125,407 " />
<polyline fill="none" vector-effect="non-scaling-stroke" points="352,182 128,740 " />
<polyline fill="none" vector-effect="non-scaling-stroke" points="352,128 107,884 " />
<polyline fill="none" vector-effect="non-scaling-stroke" points="352,128 125,407 " />
<polyline fill="none" vector-effect="non-scaling-stroke" points="352,128 128,740 " />
</g>
</g>
</svg>
