<?xml version="1.0" encoding="UTF-8" standalone="no"?>
<svg width="705.556mm" height="184.503mm"
 viewBox="0 0 2000 523"
 xmlns="http://www.w3.org/2000/svg" xmlns:xlink="http://www.w3.org/1999/xlink"  version="1.2" baseProfile="tiny">
<title>SVG Generator Example Drawing</title>
<desc>Dessin svg pour une démonstration</desc>
<defs>
</defs>
<g fill="none" stroke="black" stroke-width="1" fill-rule="evenodd" stroke-linecap="square" stroke-linejoin="bevel" >

<path vector-effect="non-scaling-stroke" fill-rule="evenodd" d="M20,23 C20,21.3431 21.3431,20 23,20 L368,20 C369.657,20 371,21.3431 371,23 L371,45 C371,46.6569 369.657,48 368,48 L23,48 C21.3431,48 20,46.6569 20,45 L20,23"/>
<polyline fill="none" vector-effect="non-scaling-stroke" points="20,34 371,34 " />
<g fill="none" stroke="#ff0000" stroke-opacity="1" stroke-width="1" stroke-linecap="square" stroke-linejoin="bevel" transform="matrix(1,0,0,1,0,0)"
font-family="Arial" font-size="8" font-weight="700" font-style="normal" 
>
<text fill="#ff0000" fill-opacity="1" stroke="none" xml:space="preserve" x="21" y="31" font-family="Arial" font-size="8" font-weight="700" font-style="normal" 
 >Système_élémentaire</text>
</g>

<g fill="none" stroke="#ff0000" stroke-opacity="1" stroke-width="1" stroke-linecap="square" stroke-linejoin="bevel" transform="matrix(1,0,0,1,0,0)"
font-family="Arial" font-size="8" font-weight="700" font-style="normal" 
>
<text fill="#ff0000" fill-opacity="1" stroke="none" xml:space="preserve" x="132" y="31" font-family="Arial" font-size="8" font-weight="700" font-style="normal" 
 >dom.se.TEP</text>
</g>

<g fill="none" stroke="#000000" stroke-opacity="1" stroke-width="1" stroke-linecap="square" stroke-linejoin="bevel" transform="matrix(1,0,0,1,0,0)"
font-family="Arial" font-size="8" font-weight="700" font-style="normal" 
>
<text fill="#000000" fill-opacity="1" stroke="none" xml:space="preserve" x="21" y="45" font-family="Arial" font-size="8" font-weight="700" font-style="normal" 
 >définition : </text>
</g>

<g fill="none" stroke="#000000" stroke-opacity="1" stroke-width="1" stroke-linecap="square" stroke-linejoin="bevel" transform="matrix(1,0,0,1,0,0)"
font-family="Arial" font-size="8" font-weight="400" font-style="normal" 
>
<text fill="#000000" fill-opacity="1" stroke="none" xml:space="preserve" x="132" y="45" font-family="Arial" font-size="8" font-weight="400" font-style="normal" 
 >Traitement des effluents primaires</text>
<path vector-effect="non-scaling-stroke" fill-rule="evenodd" d="M20,80 C20,78.3431 21.3431,77 23,77 L368,77 C369.657,77 371,78.3431 371,80 L371,102 C371,103.657 369.657,105 368,105 L23,105 C21.3431,105 20,103.657 20,102 L20,80"/>
<polyline fill="none" vector-effect="non-scaling-stroke" points="20,91 371,91 " />
</g>

<g fill="none" stroke="#ff0000" stroke-opacity="1" stroke-width="1" stroke-linecap="square" stroke-linejoin="bevel" transform="matrix(1,0,0,1,0,0)"
font-family="Arial" font-size="8" font-weight="700" font-style="normal" 
>
<text fill="#ff0000" fill-opacity="1" stroke="none" xml:space="preserve" x="21" y="88" font-family="Arial" font-size="8" font-weight="700" font-style="normal" 
 >Système_élémentaire</text>
</g>

<g fill="none" stroke="#ff0000" stroke-opacity="1" stroke-width="1" stroke-linecap="square" stroke-linejoin="bevel" transform="matrix(1,0,0,1,0,0)"
font-family="Arial" font-size="8" font-weight="700" font-style="normal" 
>
<text fill="#ff0000" fill-opacity="1" stroke="none" xml:space="preserve" x="132" y="88" font-family="Arial" font-size="8" font-weight="700" font-style="normal" 
 >dom.se.REA</text>
</g>

<g fill="none" stroke="#000000" stroke-opacity="1" stroke-width="1" stroke-linecap="square" stroke-linejoin="bevel" transform="matrix(1,0,0,1,0,0)"
font-family="Arial" font-size="8" font-weight="700" font-style="normal" 
>
<text fill="#000000" fill-opacity="1" stroke="none" xml:space="preserve" x="21" y="102" font-family="Arial" font-size="8" font-weight="700" font-style="normal" 
 >définition : </text>
</g>

<g fill="none" stroke="#000000" stroke-opacity="1" stroke-width="1" stroke-linecap="square" stroke-linejoin="bevel" transform="matrix(1,0,0,1,0,0)"
font-family="Arial" font-size="8" font-weight="400" font-style="normal" 
>
<text fill="#000000" fill-opacity="1" stroke="none" xml:space="preserve" x="132" y="102" font-family="Arial" font-size="8" font-weight="400" font-style="normal" 
 >Appoint d'eau au réacteur</text>
<path vector-effect="non-scaling-stroke" fill-rule="evenodd" d="M20,137 C20,135.343 21.3431,134 23,134 L368,134 C369.657,134 371,135.343 371,137 L371,159 C371,160.657 369.657,162 368,162 L23,162 C21.3431,162 20,160.657 20,159 L20,137"/>
<polyline fill="none" vector-effect="non-scaling-stroke" points="20,148 371,148 " />
</g>

<g fill="none" stroke="#ff0000" stroke-opacity="1" stroke-width="1" stroke-linecap="square" stroke-linejoin="bevel" transform="matrix(1,0,0,1,0,0)"
font-family="Arial" font-size="8" font-weight="700" font-style="normal" 
>
<text fill="#ff0000" fill-opacity="1" stroke="none" xml:space="preserve" x="21" y="145" font-family="Arial" font-size="8" font-weight="700" font-style="normal" 
 >Système_élémentaire</text>
</g>

<g fill="none" stroke="#ff0000" stroke-opacity="1" stroke-width="1" stroke-linecap="square" stroke-linejoin="bevel" transform="matrix(1,0,0,1,0,0)"
font-family="Arial" font-size="8" font-weight="700" font-style="normal" 
>
<text fill="#ff0000" fill-opacity="1" stroke="none" xml:space="preserve" x="132" y="145" font-family="Arial" font-size="8" font-weight="700" font-style="normal" 
 >dom.se.PTR</text>
</g>

<g fill="none" stroke="#000000" stroke-opacity="1" stroke-width="1" stroke-linecap="square" stroke-linejoin="bevel" transform="matrix(1,0,0,1,0,0)"
font-family="Arial" font-size="8" font-weight="700" font-style="normal" 
>
<text fill="#000000" fill-opacity="1" stroke="none" xml:space="preserve" x="21" y="159" font-family="Arial" font-size="8" font-weight="700" font-style="normal" 
 >définition : </text>
</g>

<g fill="none" stroke="#000000" stroke-opacity="1" stroke-width="1" stroke-linecap="square" stroke-linejoin="bevel" transform="matrix(1,0,0,1,0,0)"
font-family="Arial" font-size="8" font-weight="400" font-style="normal" 
>
<text fill="#000000" fill-opacity="1" stroke="none" xml:space="preserve" x="132" y="159" font-family="Arial" font-size="8" font-weight="400" font-style="normal" 
 >Refroidissement et conditionnement des piscines</text>
<path vector-effect="non-scaling-stroke" fill-rule="evenodd" d="M20,194 C20,192.343 21.3431,191 23,191 L368,191 C369.657,191 371,192.343 371,194 L371,216 C371,217.657 369.657,219 368,219 L23,219 C21.3431,219 20,217.657 20,216 L20,194"/>
<polyline fill="none" vector-effect="non-scaling-stroke" points="20,205 371,205 " />
</g>

<g fill="none" stroke="#ff0000" stroke-opacity="1" stroke-width="1" stroke-linecap="square" stroke-linejoin="bevel" transform="matrix(1,0,0,1,0,0)"
font-family="Arial" font-size="8" font-weight="700" font-style="normal" 
>
<text fill="#ff0000" fill-opacity="1" stroke="none" xml:space="preserve" x="21" y="202" font-family="Arial" font-size="8" font-weight="700" font-style="normal" 
 >Système_élémentaire</text>
</g>

<g fill="none" stroke="#ff0000" stroke-opacity="1" stroke-width="1" stroke-linecap="square" stroke-linejoin="bevel" transform="matrix(1,0,0,1,0,0)"
font-family="Arial" font-size="8" font-weight="700" font-style="normal" 
>
<text fill="#ff0000" fill-opacity="1" stroke="none" xml:space="preserve" x="132" y="202" font-family="Arial" font-size="8" font-weight="700" font-style="normal" 
 >dom.se.RRA</text>
</g>

<g fill="none" stroke="#000000" stroke-opacity="1" stroke-width="1" stroke-linecap="square" stroke-linejoin="bevel" transform="matrix(1,0,0,1,0,0)"
font-family="Arial" font-size="8" font-weight="700" font-style="normal" 
>
<text fill="#000000" fill-opacity="1" stroke="none" xml:space="preserve" x="21" y="216" font-family="Arial" font-size="8" font-weight="700" font-style="normal" 
 >définition : </text>
</g>

<g fill="none" stroke="#000000" stroke-opacity="1" stroke-width="1" stroke-linecap="square" stroke-linejoin="bevel" transform="matrix(1,0,0,1,0,0)"
font-family="Arial" font-size="8" font-weight="400" font-style="normal" 
>
<text fill="#000000" fill-opacity="1" stroke="none" xml:space="preserve" x="132" y="216" font-family="Arial" font-size="8" font-weight="400" font-style="normal" 
 >Refroidissement du réacteur à l'arrêt</text>
<path vector-effect="non-scaling-stroke" fill-rule="evenodd" d="M20,251 C20,249.343 21.3431,248 23,248 L368,248 C369.657,248 371,249.343 371,251 L371,273 C371,274.657 369.657,276 368,276 L23,276 C21.3431,276 20,274.657 20,273 L20,251"/>
<polyline fill="none" vector-effect="non-scaling-stroke" points="20,262 371,262 " />
</g>

<g fill="none" stroke="#ff0000" stroke-opacity="1" stroke-width="1" stroke-linecap="square" stroke-linejoin="bevel" transform="matrix(1,0,0,1,0,0)"
font-family="Arial" font-size="8" font-weight="700" font-style="normal" 
>
<text fill="#ff0000" fill-opacity="1" stroke="none" xml:space="preserve" x="21" y="259" font-family="Arial" font-size="8" font-weight="700" font-style="normal" 
 >Système_élémentaire</text>
</g>

<g fill="none" stroke="#ff0000" stroke-opacity="1" stroke-width="1" stroke-linecap="square" stroke-linejoin="bevel" transform="matrix(1,0,0,1,0,0)"
font-family="Arial" font-size="8" font-weight="700" font-style="normal" 
>
<text fill="#ff0000" fill-opacity="1" stroke="none" xml:space="preserve" x="132" y="259" font-family="Arial" font-size="8" font-weight="700" font-style="normal" 
 >dom.se.RCV</text>
</g>

<g fill="none" stroke="#000000" stroke-opacity="1" stroke-width="1" stroke-linecap="square" stroke-linejoin="bevel" transform="matrix(1,0,0,1,0,0)"
font-family="Arial" font-size="8" font-weight="700" font-style="normal" 
>
<text fill="#000000" fill-opacity="1" stroke="none" xml:space="preserve" x="21" y="273" font-family="Arial" font-size="8" font-weight="700" font-style="normal" 
 >définition : </text>
</g>

<g fill="none" stroke="#000000" stroke-opacity="1" stroke-width="1" stroke-linecap="square" stroke-linejoin="bevel" transform="matrix(1,0,0,1,0,0)"
font-family="Arial" font-size="8" font-weight="400" font-style="normal" 
>
<text fill="#000000" fill-opacity="1" stroke="none" xml:space="preserve" x="132" y="273" font-family="Arial" font-size="8" font-weight="400" font-style="normal" 
 >Contrôle chimique et volumétrique</text>
<path vector-effect="non-scaling-stroke" fill-rule="evenodd" d="M391,23 C391,21.3431 392.343,20 394,20 L535,20 C536.657,20 538,21.3431 538,23 L538,45 C538,46.6569 536.657,48 535,48 L394,48 C392.343,48 391,46.6569 391,45 L391,23"/>
<polyline fill="none" vector-effect="non-scaling-stroke" points="391,34 538,34 " />
</g>

<g fill="none" stroke="#ff0000" stroke-opacity="1" stroke-width="1" stroke-linecap="square" stroke-linejoin="bevel" transform="matrix(1,0,0,1,0,0)"
font-family="Arial" font-size="8" font-weight="700" font-style="normal" 
>
<text fill="#ff0000" fill-opacity="1" stroke="none" xml:space="preserve" x="392" y="31" font-family="Arial" font-size="8" font-weight="700" font-style="normal" 
 >Equipement</text>
</g>

<g fill="none" stroke="#ff0000" stroke-opacity="1" stroke-width="1" stroke-linecap="square" stroke-linejoin="bevel" transform="matrix(1,0,0,1,0,0)"
font-family="Arial" font-size="8" font-weight="700" font-style="normal" 
>
<text fill="#ff0000" fill-opacity="1" stroke="none" xml:space="preserve" x="462" y="31" font-family="Arial" font-size="8" font-weight="700" font-style="normal" 
 >dom.eq.PTR021PO</text>
</g>

<g fill="none" stroke="#000000" stroke-opacity="1" stroke-width="1" stroke-linecap="square" stroke-linejoin="bevel" transform="matrix(1,0,0,1,0,0)"
font-family="Arial" font-size="8" font-weight="700" font-style="normal" 
>
<text fill="#000000" fill-opacity="1" stroke="none" xml:space="preserve" x="392" y="45" font-family="Arial" font-size="8" font-weight="700" font-style="normal" 
 >catégorie : </text>
</g>

<g fill="none" stroke="#000000" stroke-opacity="1" stroke-width="1" stroke-linecap="square" stroke-linejoin="bevel" transform="matrix(1,0,0,1,0,0)"
font-family="Arial" font-size="8" font-weight="400" font-style="normal" 
>
<text fill="#000000" fill-opacity="1" stroke="none" xml:space="preserve" x="462" y="45" font-family="Arial" font-size="8" font-weight="400" font-style="normal" 
 >Pompe</text>
<path vector-effect="non-scaling-stroke" fill-rule="evenodd" d="M391,80 C391,78.3431 392.343,77 394,77 L535,77 C536.657,77 538,78.3431 538,80 L538,102 C538,103.657 536.657,105 535,105 L394,105 C392.343,105 391,103.657 391,102 L391,80"/>
<polyline fill="none" vector-effect="non-scaling-stroke" points="391,91 538,91 " />
</g>

<g fill="none" stroke="#ff0000" stroke-opacity="1" stroke-width="1" stroke-linecap="square" stroke-linejoin="bevel" transform="matrix(1,0,0,1,0,0)"
font-family="Arial" font-size="8" font-weight="700" font-style="normal" 
>
<text fill="#ff0000" fill-opacity="1" stroke="none" xml:space="preserve" x="392" y="88" font-family="Arial" font-size="8" font-weight="700" font-style="normal" 
 >Equipement</text>
</g>

<g fill="none" stroke="#ff0000" stroke-opacity="1" stroke-width="1" stroke-linecap="square" stroke-linejoin="bevel" transform="matrix(1,0,0,1,0,0)"
font-family="Arial" font-size="8" font-weight="700" font-style="normal" 
>
<text fill="#ff0000" fill-opacity="1" stroke="none" xml:space="preserve" x="462" y="88" font-family="Arial" font-size="8" font-weight="700" font-style="normal" 
 >dom.eq.PTR022PO</text>
</g>

<g fill="none" stroke="#000000" stroke-opacity="1" stroke-width="1" stroke-linecap="square" stroke-linejoin="bevel" transform="matrix(1,0,0,1,0,0)"
font-family="Arial" font-size="8" font-weight="700" font-style="normal" 
>
<text fill="#000000" fill-opacity="1" stroke="none" xml:space="preserve" x="392" y="102" font-family="Arial" font-size="8" font-weight="700" font-style="normal" 
 >catégorie : </text>
</g>

<g fill="none" stroke="#000000" stroke-opacity="1" stroke-width="1" stroke-linecap="square" stroke-linejoin="bevel" transform="matrix(1,0,0,1,0,0)"
font-family="Arial" font-size="8" font-weight="400" font-style="normal" 
>
<text fill="#000000" fill-opacity="1" stroke="none" xml:space="preserve" x="462" y="102" font-family="Arial" font-size="8" font-weight="400" font-style="normal" 
 >Pompe</text>
<path vector-effect="non-scaling-stroke" fill-rule="evenodd" d="M558,23 C558,21.3431 559.343,20 561,20 L896,20 C897.657,20 899,21.3431 899,23 L899,101 C899,102.657 897.657,104 896,104 L561,104 C559.343,104 558,102.657 558,101 L558,23"/>
<polyline fill="none" vector-effect="non-scaling-stroke" points="558,34 900,34 " />
</g>

<g fill="none" stroke="#ff0000" stroke-opacity="1" stroke-width="1" stroke-linecap="square" stroke-linejoin="bevel" transform="matrix(1,0,0,1,0,0)"
font-family="Arial" font-size="8" font-weight="700" font-style="normal" 
>
<text fill="#ff0000" fill-opacity="1" stroke="none" xml:space="preserve" x="559" y="31" font-family="Arial" font-size="8" font-weight="700" font-style="normal" 
 >Contexte_de_service</text>
</g>

<g fill="none" stroke="#000000" stroke-opacity="1" stroke-width="1" stroke-linecap="square" stroke-linejoin="bevel" transform="matrix(1,0,0,1,0,0)"
font-family="Arial" font-size="8" font-weight="700" font-style="normal" 
>
<text fill="#000000" fill-opacity="1" stroke="none" xml:space="preserve" x="559" y="45" font-family="Arial" font-size="8" font-weight="700" font-style="normal" 
 >terrain : </text>
</g>

<g fill="none" stroke="#000000" stroke-opacity="1" stroke-width="1" stroke-linecap="square" stroke-linejoin="bevel" transform="matrix(1,0,0,1,0,0)"
font-family="Arial" font-size="8" font-weight="400" font-style="normal" 
>
<text fill="#000000" fill-opacity="1" stroke="none" xml:space="preserve" x="686" y="45" font-family="Arial" font-size="8" font-weight="400" font-style="normal" 
 >true</text>
</g>

<g fill="none" stroke="#ff0000" stroke-opacity="1" stroke-width="1" stroke-linecap="square" stroke-linejoin="bevel" transform="matrix(1,0,0,1,0,0)"
font-family="Arial" font-size="8" font-weight="700" font-style="normal" 
>
<text fill="#ff0000" fill-opacity="1" stroke="none" xml:space="preserve" x="686" y="31" font-family="Arial" font-size="8" font-weight="700" font-style="normal" 
 >ctx.cs.DiagPTR021PO</text>
</g>

<g fill="none" stroke="#000000" stroke-opacity="1" stroke-width="1" stroke-linecap="square" stroke-linejoin="bevel" transform="matrix(1,0,0,1,0,0)"
font-family="Arial" font-size="8" font-weight="700" font-style="normal" 
>
<text fill="#000000" fill-opacity="1" stroke="none" xml:space="preserve" x="559" y="59" font-family="Arial" font-size="8" font-weight="700" font-style="normal" 
 >métier : </text>
</g>

<g fill="none" stroke="#000000" stroke-opacity="1" stroke-width="1" stroke-linecap="square" stroke-linejoin="bevel" transform="matrix(1,0,0,1,0,0)"
font-family="Arial" font-size="8" font-weight="400" font-style="normal" 
>
<text fill="#000000" fill-opacity="1" stroke="none" xml:space="preserve" x="686" y="59" font-family="Arial" font-size="8" font-weight="400" font-style="normal" 
 >chimie</text>
</g>

<g fill="none" stroke="#000000" stroke-opacity="1" stroke-width="1" stroke-linecap="square" stroke-linejoin="bevel" transform="matrix(1,0,0,1,0,0)"
font-family="Arial" font-size="8" font-weight="700" font-style="normal" 
>
<text fill="#000000" fill-opacity="1" stroke="none" xml:space="preserve" x="559" y="73" font-family="Arial" font-size="8" font-weight="700" font-style="normal" 
 >mode_de_fonctionnement : </text>
</g>

<g fill="none" stroke="#000000" stroke-opacity="1" stroke-width="1" stroke-linecap="square" stroke-linejoin="bevel" transform="matrix(1,0,0,1,0,0)"
font-family="Arial" font-size="8" font-weight="400" font-style="normal" 
>
<text fill="#000000" fill-opacity="1" stroke="none" xml:space="preserve" x="686" y="73" font-family="Arial" font-size="8" font-weight="400" font-style="normal" 
 >RCD</text>
</g>

<g fill="none" stroke="#000000" stroke-opacity="1" stroke-width="1" stroke-linecap="square" stroke-linejoin="bevel" transform="matrix(1,0,0,1,0,0)"
font-family="Arial" font-size="8" font-weight="700" font-style="normal" 
>
<text fill="#000000" fill-opacity="1" stroke="none" xml:space="preserve" x="559" y="87" font-family="Arial" font-size="8" font-weight="700" font-style="normal" 
 >définition : </text>
</g>

<g fill="none" stroke="#000000" stroke-opacity="1" stroke-width="1" stroke-linecap="square" stroke-linejoin="bevel" transform="matrix(1,0,0,1,0,0)"
font-family="Arial" font-size="8" font-weight="400" font-style="normal" 
>
<text fill="#000000" fill-opacity="1" stroke="none" xml:space="preserve" x="686" y="87" font-family="Arial" font-size="8" font-weight="400" font-style="normal" 
 >Mise à disposition de diagnostic PTR021PO</text>
</g>

<g fill="none" stroke="#000000" stroke-opacity="1" stroke-width="1" stroke-linecap="square" stroke-linejoin="bevel" transform="matrix(1,0,0,1,0,0)"
font-family="Arial" font-size="8" font-weight="700" font-style="normal" 
>
<text fill="#000000" fill-opacity="1" stroke="none" xml:space="preserve" x="559" y="101" font-family="Arial" font-size="8" font-weight="700" font-style="normal" 
 >catégorie_AP929 : </text>
</g>

<g fill="none" stroke="#000000" stroke-opacity="1" stroke-width="1" stroke-linecap="square" stroke-linejoin="bevel" transform="matrix(1,0,0,1,0,0)"
font-family="Arial" font-size="8" font-weight="400" font-style="normal" 
>
<text fill="#000000" fill-opacity="1" stroke="none" xml:space="preserve" x="686" y="101" font-family="Arial" font-size="8" font-weight="400" font-style="normal" 
 >exigence_de_conception</text>
<path vector-effect="non-scaling-stroke" fill-rule="evenodd" d="M558,136 C558,134.343 559.343,133 561,133 L896,133 C897.657,133 899,134.343 899,136 L899,214 C899,215.657 897.657,217 896,217 L561,217 C559.343,217 558,215.657 558,214 L558,136"/>
<polyline fill="none" vector-effect="non-scaling-stroke" points="558,147 900,147 " />
</g>

<g fill="none" stroke="#ff0000" stroke-opacity="1" stroke-width="1" stroke-linecap="square" stroke-linejoin="bevel" transform="matrix(1,0,0,1,0,0)"
font-family="Arial" font-size="8" font-weight="700" font-style="normal" 
>
<text fill="#ff0000" fill-opacity="1" stroke="none" xml:space="preserve" x="559" y="144" font-family="Arial" font-size="8" font-weight="700" font-style="normal" 
 >Contexte_de_service</text>
</g>

<g fill="none" stroke="#000000" stroke-opacity="1" stroke-width="1" stroke-linecap="square" stroke-linejoin="bevel" transform="matrix(1,0,0,1,0,0)"
font-family="Arial" font-size="8" font-weight="700" font-style="normal" 
>
<text fill="#000000" fill-opacity="1" stroke="none" xml:space="preserve" x="559" y="158" font-family="Arial" font-size="8" font-weight="700" font-style="normal" 
 >terrain : </text>
</g>

<g fill="none" stroke="#000000" stroke-opacity="1" stroke-width="1" stroke-linecap="square" stroke-linejoin="bevel" transform="matrix(1,0,0,1,0,0)"
font-family="Arial" font-size="8" font-weight="400" font-style="normal" 
>
<text fill="#000000" fill-opacity="1" stroke="none" xml:space="preserve" x="686" y="158" font-family="Arial" font-size="8" font-weight="400" font-style="normal" 
 >true</text>
</g>

<g fill="none" stroke="#ff0000" stroke-opacity="1" stroke-width="1" stroke-linecap="square" stroke-linejoin="bevel" transform="matrix(1,0,0,1,0,0)"
font-family="Arial" font-size="8" font-weight="700" font-style="normal" 
>
<text fill="#ff0000" fill-opacity="1" stroke="none" xml:space="preserve" x="686" y="144" font-family="Arial" font-size="8" font-weight="700" font-style="normal" 
 >ctx.cs.DiagPTR022PO</text>
</g>

<g fill="none" stroke="#000000" stroke-opacity="1" stroke-width="1" stroke-linecap="square" stroke-linejoin="bevel" transform="matrix(1,0,0,1,0,0)"
font-family="Arial" font-size="8" font-weight="700" font-style="normal" 
>
<text fill="#000000" fill-opacity="1" stroke="none" xml:space="preserve" x="559" y="172" font-family="Arial" font-size="8" font-weight="700" font-style="normal" 
 >métier : </text>
</g>

<g fill="none" stroke="#000000" stroke-opacity="1" stroke-width="1" stroke-linecap="square" stroke-linejoin="bevel" transform="matrix(1,0,0,1,0,0)"
font-family="Arial" font-size="8" font-weight="400" font-style="normal" 
>
<text fill="#000000" fill-opacity="1" stroke="none" xml:space="preserve" x="686" y="172" font-family="Arial" font-size="8" font-weight="400" font-style="normal" 
 >chimie</text>
</g>

<g fill="none" stroke="#000000" stroke-opacity="1" stroke-width="1" stroke-linecap="square" stroke-linejoin="bevel" transform="matrix(1,0,0,1,0,0)"
font-family="Arial" font-size="8" font-weight="700" font-style="normal" 
>
<text fill="#000000" fill-opacity="1" stroke="none" xml:space="preserve" x="559" y="186" font-family="Arial" font-size="8" font-weight="700" font-style="normal" 
 >mode_de_fonctionnement : </text>
</g>

<g fill="none" stroke="#000000" stroke-opacity="1" stroke-width="1" stroke-linecap="square" stroke-linejoin="bevel" transform="matrix(1,0,0,1,0,0)"
font-family="Arial" font-size="8" font-weight="400" font-style="normal" 
>
<text fill="#000000" fill-opacity="1" stroke="none" xml:space="preserve" x="686" y="186" font-family="Arial" font-size="8" font-weight="400" font-style="normal" 
 >RCD</text>
</g>

<g fill="none" stroke="#000000" stroke-opacity="1" stroke-width="1" stroke-linecap="square" stroke-linejoin="bevel" transform="matrix(1,0,0,1,0,0)"
font-family="Arial" font-size="8" font-weight="700" font-style="normal" 
>
<text fill="#000000" fill-opacity="1" stroke="none" xml:space="preserve" x="559" y="200" font-family="Arial" font-size="8" font-weight="700" font-style="normal" 
 >définition : </text>
</g>

<g fill="none" stroke="#000000" stroke-opacity="1" stroke-width="1" stroke-linecap="square" stroke-linejoin="bevel" transform="matrix(1,0,0,1,0,0)"
font-family="Arial" font-size="8" font-weight="400" font-style="normal" 
>
<text fill="#000000" fill-opacity="1" stroke="none" xml:space="preserve" x="686" y="200" font-family="Arial" font-size="8" font-weight="400" font-style="normal" 
 >Diagnostic PTR022PO</text>
</g>

<g fill="none" stroke="#000000" stroke-opacity="1" stroke-width="1" stroke-linecap="square" stroke-linejoin="bevel" transform="matrix(1,0,0,1,0,0)"
font-family="Arial" font-size="8" font-weight="700" font-style="normal" 
>
<text fill="#000000" fill-opacity="1" stroke="none" xml:space="preserve" x="559" y="214" font-family="Arial" font-size="8" font-weight="700" font-style="normal" 
 >catégorie_AP929 : </text>
</g>

<g fill="none" stroke="#000000" stroke-opacity="1" stroke-width="1" stroke-linecap="square" stroke-linejoin="bevel" transform="matrix(1,0,0,1,0,0)"
font-family="Arial" font-size="8" font-weight="400" font-style="normal" 
>
<text fill="#000000" fill-opacity="1" stroke="none" xml:space="preserve" x="686" y="214" font-family="Arial" font-size="8" font-weight="400" font-style="normal" 
 >exigence_de_conception</text>
<path vector-effect="non-scaling-stroke" fill-rule="evenodd" d="M920,23 C920,21.3431 921.343,20 923,20 L1125,20 C1126.66,20 1128,21.3431 1128,23 L1128,45 C1128,46.6569 1126.66,48 1125,48 L923,48 C921.343,48 920,46.6569 920,45 L920,23"/>
<polyline fill="none" vector-effect="non-scaling-stroke" points="920,34 1128,34 " />
</g>

<g fill="none" stroke="#ff0000" stroke-opacity="1" stroke-width="1" stroke-linecap="square" stroke-linejoin="bevel" transform="matrix(1,0,0,1,0,0)"
font-family="Arial" font-size="8" font-weight="700" font-style="normal" 
>
<text fill="#ff0000" fill-opacity="1" stroke="none" xml:space="preserve" x="921" y="31" font-family="Arial" font-size="8" font-weight="700" font-style="normal" 
 >Tranche</text>
</g>

<g fill="none" stroke="#ff0000" stroke-opacity="1" stroke-width="1" stroke-linecap="square" stroke-linejoin="bevel" transform="matrix(1,0,0,1,0,0)"
font-family="Arial" font-size="8" font-weight="700" font-style="normal" 
>
<text fill="#ff0000" fill-opacity="1" stroke="none" xml:space="preserve" x="991" y="31" font-family="Arial" font-size="8" font-weight="700" font-style="normal" 
 >dom.tr.LEGO</text>
</g>

<g fill="none" stroke="#000000" stroke-opacity="1" stroke-width="1" stroke-linecap="square" stroke-linejoin="bevel" transform="matrix(1,0,0,1,0,0)"
font-family="Arial" font-size="8" font-weight="700" font-style="normal" 
>
<text fill="#000000" fill-opacity="1" stroke="none" xml:space="preserve" x="921" y="45" font-family="Arial" font-size="8" font-weight="700" font-style="normal" 
 >définition : </text>
</g>

<g fill="none" stroke="#000000" stroke-opacity="1" stroke-width="1" stroke-linecap="square" stroke-linejoin="bevel" transform="matrix(1,0,0,1,0,0)"
font-family="Arial" font-size="8" font-weight="400" font-style="normal" 
>
<text fill="#000000" fill-opacity="1" stroke="none" xml:space="preserve" x="991" y="45" font-family="Arial" font-size="8" font-weight="400" font-style="normal" 
 >Centrale simulée CONNEXION</text>
</g>

<g fill="none" stroke="#0e32c8" stroke-opacity="1" stroke-width="1" stroke-linecap="square" stroke-linejoin="bevel" transform="matrix(1,0,0,1,0,0)"
font-family="Arial" font-size="8" font-weight="400" font-style="normal" 
>
<polyline fill="none" vector-effect="non-scaling-stroke" points="538,34 558,62 " />
<polyline fill="none" vector-effect="non-scaling-stroke" points="371,148 558,62 " />
<polyline fill="none" vector-effect="non-scaling-stroke" points="900,62 920,34 " />
<polyline fill="none" vector-effect="non-scaling-stroke" points="538,91 558,175 " />
<polyline fill="none" vector-effect="non-scaling-stroke" points="371,148 558,175 " />
<polyline fill="none" vector-effect="non-scaling-stroke" points="900,175 920,34 " />
</g>
</g>
</svg>
