<?xml version="1.0" encoding="UTF-8" standalone="no"?>
<svg width="705.556mm" height="143.933mm"
 viewBox="0 0 2000 408"
 xmlns="http://www.w3.org/2000/svg" xmlns:xlink="http://www.w3.org/1999/xlink"  version="1.2" baseProfile="tiny">
<title>SVG Generator Example Drawing</title>
<desc>Dessin svg pour une démonstration</desc>
<defs>
</defs>
<g fill="none" stroke="black" stroke-width="1" fill-rule="evenodd" stroke-linecap="square" stroke-linejoin="bevel" >

<path vector-effect="non-scaling-stroke" fill-rule="evenodd" d="M20,23 C20,21.3431 21.3431,20 23,20 L423,20 C424.657,20 426,21.3431 426,23 L426,65 C426,66.6569 424.657,68 423,68 L23,68 C21.3431,68 20,66.6569 20,65 L20,23"/>
<polyline fill="none" vector-effect="non-scaling-stroke" points="20,28 332,28 " />
<g fill="none" stroke="#ff0000" stroke-opacity="1" stroke-width="1" stroke-linecap="square" stroke-linejoin="bevel" transform="matrix(1,0,0,1,0,0)"
font-family="Arial" font-size="8" font-weight="700" font-style="normal" 
>
<text fill="#ff0000" fill-opacity="1" stroke="none" xml:space="preserve" x="21" y="26" font-family="Arial" font-size="8" font-weight="700" font-style="normal" 
 >Contexte_de_service</text>
</g>

<g fill="none" stroke="#ff0000" stroke-opacity="1" stroke-width="1" stroke-linecap="square" stroke-linejoin="bevel" transform="matrix(1,0,0,1,0,0)"
font-family="Arial" font-size="8" font-weight="700" font-style="normal" 
>
<text fill="#ff0000" fill-opacity="1" stroke="none" xml:space="preserve" x="229" y="26" font-family="Arial" font-size="8" font-weight="700" font-style="normal" 
 >ctx.cs.DiagPTR022PO</text>
</g>

<g fill="none" stroke="#000000" stroke-opacity="1" stroke-width="1" stroke-linecap="square" stroke-linejoin="bevel" transform="matrix(1,0,0,1,0,0)"
font-family="Arial" font-size="8" font-weight="700" font-style="normal" 
>
<text fill="#000000" fill-opacity="1" stroke="none" xml:space="preserve" x="21" y="34" font-family="Arial" font-size="8" font-weight="700" font-style="normal" 
 >Objet_identifié.définition : </text>
</g>

<g fill="none" stroke="#000000" stroke-opacity="1" stroke-width="1" stroke-linecap="square" stroke-linejoin="bevel" transform="matrix(1,0,0,1,0,0)"
font-family="Arial" font-size="8" font-weight="400" font-style="normal" 
>
<text fill="#000000" fill-opacity="1" stroke="none" xml:space="preserve" x="229" y="34" font-family="Arial" font-size="8" font-weight="400" font-style="normal" 
 >Diagnostic PTR022PO</text>
</g>

<g fill="none" stroke="#000000" stroke-opacity="1" stroke-width="1" stroke-linecap="square" stroke-linejoin="bevel" transform="matrix(1,0,0,1,0,0)"
font-family="Arial" font-size="8" font-weight="700" font-style="normal" 
>
<text fill="#000000" fill-opacity="1" stroke="none" xml:space="preserve" x="21" y="42" font-family="Arial" font-size="8" font-weight="700" font-style="normal" 
 >Objet_identifié.catégorie_AP929 : </text>
</g>

<g fill="none" stroke="#000000" stroke-opacity="1" stroke-width="1" stroke-linecap="square" stroke-linejoin="bevel" transform="matrix(1,0,0,1,0,0)"
font-family="Arial" font-size="8" font-weight="400" font-style="normal" 
>
<text fill="#000000" fill-opacity="1" stroke="none" xml:space="preserve" x="229" y="42" font-family="Arial" font-size="8" font-weight="400" font-style="normal" 
 >exigence_de_conception</text>
</g>

<g fill="none" stroke="#000000" stroke-opacity="1" stroke-width="1" stroke-linecap="square" stroke-linejoin="bevel" transform="matrix(1,0,0,1,0,0)"
font-family="Arial" font-size="8" font-weight="700" font-style="normal" 
>
<text fill="#000000" fill-opacity="1" stroke="none" xml:space="preserve" x="21" y="50" font-family="Arial" font-size="8" font-weight="700" font-style="normal" 
 >Contexte_de_service.terrain : </text>
</g>

<g fill="none" stroke="#000000" stroke-opacity="1" stroke-width="1" stroke-linecap="square" stroke-linejoin="bevel" transform="matrix(1,0,0,1,0,0)"
font-family="Arial" font-size="8" font-weight="400" font-style="normal" 
>
<text fill="#000000" fill-opacity="1" stroke="none" xml:space="preserve" x="229" y="50" font-family="Arial" font-size="8" font-weight="400" font-style="normal" 
 >true</text>
</g>

<g fill="none" stroke="#000000" stroke-opacity="1" stroke-width="1" stroke-linecap="square" stroke-linejoin="bevel" transform="matrix(1,0,0,1,0,0)"
font-family="Arial" font-size="8" font-weight="700" font-style="normal" 
>
<text fill="#000000" fill-opacity="1" stroke="none" xml:space="preserve" x="21" y="58" font-family="Arial" font-size="8" font-weight="700" font-style="normal" 
 >Contexte_de_service.métier : </text>
</g>

<g fill="none" stroke="#000000" stroke-opacity="1" stroke-width="1" stroke-linecap="square" stroke-linejoin="bevel" transform="matrix(1,0,0,1,0,0)"
font-family="Arial" font-size="8" font-weight="400" font-style="normal" 
>
<text fill="#000000" fill-opacity="1" stroke="none" xml:space="preserve" x="229" y="58" font-family="Arial" font-size="8" font-weight="400" font-style="normal" 
 >chimie</text>
</g>

<g fill="none" stroke="#000000" stroke-opacity="1" stroke-width="1" stroke-linecap="square" stroke-linejoin="bevel" transform="matrix(1,0,0,1,0,0)"
font-family="Arial" font-size="8" font-weight="700" font-style="normal" 
>
<text fill="#000000" fill-opacity="1" stroke="none" xml:space="preserve" x="21" y="66" font-family="Arial" font-size="8" font-weight="700" font-style="normal" 
 >Contexte_de_service.mode_de_fonctionnement : </text>
</g>

<g fill="none" stroke="#000000" stroke-opacity="1" stroke-width="1" stroke-linecap="square" stroke-linejoin="bevel" transform="matrix(1,0,0,1,0,0)"
font-family="Arial" font-size="8" font-weight="400" font-style="normal" 
>
<text fill="#000000" fill-opacity="1" stroke="none" xml:space="preserve" x="229" y="66" font-family="Arial" font-size="8" font-weight="400" font-style="normal" 
 >RCD</text>
<path vector-effect="non-scaling-stroke" fill-rule="evenodd" d="M20,95 C20,93.3431 21.3431,92 23,92 L423,92 C424.657,92 426,93.3431 426,95 L426,137 C426,138.657 424.657,140 423,140 L23,140 C21.3431,140 20,138.657 20,137 L20,95"/>
<polyline fill="none" vector-effect="non-scaling-stroke" points="20,100 426,100 " />
</g>

<g fill="none" stroke="#ff0000" stroke-opacity="1" stroke-width="1" stroke-linecap="square" stroke-linejoin="bevel" transform="matrix(1,0,0,1,0,0)"
font-family="Arial" font-size="8" font-weight="700" font-style="normal" 
>
<text fill="#ff0000" fill-opacity="1" stroke="none" xml:space="preserve" x="21" y="98" font-family="Arial" font-size="8" font-weight="700" font-style="normal" 
 >Contexte_de_service</text>
</g>

<g fill="none" stroke="#ff0000" stroke-opacity="1" stroke-width="1" stroke-linecap="square" stroke-linejoin="bevel" transform="matrix(1,0,0,1,0,0)"
font-family="Arial" font-size="8" font-weight="700" font-style="normal" 
>
<text fill="#ff0000" fill-opacity="1" stroke="none" xml:space="preserve" x="229" y="98" font-family="Arial" font-size="8" font-weight="700" font-style="normal" 
 >ctx.cs.DiagPTR021PO</text>
</g>

<g fill="none" stroke="#000000" stroke-opacity="1" stroke-width="1" stroke-linecap="square" stroke-linejoin="bevel" transform="matrix(1,0,0,1,0,0)"
font-family="Arial" font-size="8" font-weight="700" font-style="normal" 
>
<text fill="#000000" fill-opacity="1" stroke="none" xml:space="preserve" x="21" y="106" font-family="Arial" font-size="8" font-weight="700" font-style="normal" 
 >Objet_identifié.définition : </text>
</g>

<g fill="none" stroke="#000000" stroke-opacity="1" stroke-width="1" stroke-linecap="square" stroke-linejoin="bevel" transform="matrix(1,0,0,1,0,0)"
font-family="Arial" font-size="8" font-weight="400" font-style="normal" 
>
<text fill="#000000" fill-opacity="1" stroke="none" xml:space="preserve" x="229" y="106" font-family="Arial" font-size="8" font-weight="400" font-style="normal" 
 >Mise à disposition de diagnostic PTR021PO</text>
</g>

<g fill="none" stroke="#000000" stroke-opacity="1" stroke-width="1" stroke-linecap="square" stroke-linejoin="bevel" transform="matrix(1,0,0,1,0,0)"
font-family="Arial" font-size="8" font-weight="700" font-style="normal" 
>
<text fill="#000000" fill-opacity="1" stroke="none" xml:space="preserve" x="21" y="114" font-family="Arial" font-size="8" font-weight="700" font-style="normal" 
 >Objet_identifié.catégorie_AP929 : </text>
</g>

<g fill="none" stroke="#000000" stroke-opacity="1" stroke-width="1" stroke-linecap="square" stroke-linejoin="bevel" transform="matrix(1,0,0,1,0,0)"
font-family="Arial" font-size="8" font-weight="400" font-style="normal" 
>
<text fill="#000000" fill-opacity="1" stroke="none" xml:space="preserve" x="229" y="114" font-family="Arial" font-size="8" font-weight="400" font-style="normal" 
 >exigence_de_conception</text>
</g>

<g fill="none" stroke="#000000" stroke-opacity="1" stroke-width="1" stroke-linecap="square" stroke-linejoin="bevel" transform="matrix(1,0,0,1,0,0)"
font-family="Arial" font-size="8" font-weight="700" font-style="normal" 
>
<text fill="#000000" fill-opacity="1" stroke="none" xml:space="preserve" x="21" y="122" font-family="Arial" font-size="8" font-weight="700" font-style="normal" 
 >Contexte_de_service.terrain : </text>
</g>

<g fill="none" stroke="#000000" stroke-opacity="1" stroke-width="1" stroke-linecap="square" stroke-linejoin="bevel" transform="matrix(1,0,0,1,0,0)"
font-family="Arial" font-size="8" font-weight="400" font-style="normal" 
>
<text fill="#000000" fill-opacity="1" stroke="none" xml:space="preserve" x="229" y="122" font-family="Arial" font-size="8" font-weight="400" font-style="normal" 
 >true</text>
</g>

<g fill="none" stroke="#000000" stroke-opacity="1" stroke-width="1" stroke-linecap="square" stroke-linejoin="bevel" transform="matrix(1,0,0,1,0,0)"
font-family="Arial" font-size="8" font-weight="700" font-style="normal" 
>
<text fill="#000000" fill-opacity="1" stroke="none" xml:space="preserve" x="21" y="130" font-family="Arial" font-size="8" font-weight="700" font-style="normal" 
 >Contexte_de_service.métier : </text>
</g>

<g fill="none" stroke="#000000" stroke-opacity="1" stroke-width="1" stroke-linecap="square" stroke-linejoin="bevel" transform="matrix(1,0,0,1,0,0)"
font-family="Arial" font-size="8" font-weight="400" font-style="normal" 
>
<text fill="#000000" fill-opacity="1" stroke="none" xml:space="preserve" x="229" y="130" font-family="Arial" font-size="8" font-weight="400" font-style="normal" 
 >chimie</text>
</g>

<g fill="none" stroke="#000000" stroke-opacity="1" stroke-width="1" stroke-linecap="square" stroke-linejoin="bevel" transform="matrix(1,0,0,1,0,0)"
font-family="Arial" font-size="8" font-weight="700" font-style="normal" 
>
<text fill="#000000" fill-opacity="1" stroke="none" xml:space="preserve" x="21" y="138" font-family="Arial" font-size="8" font-weight="700" font-style="normal" 
 >Contexte_de_service.mode_de_fonctionnement : </text>
</g>

<g fill="none" stroke="#000000" stroke-opacity="1" stroke-width="1" stroke-linecap="square" stroke-linejoin="bevel" transform="matrix(1,0,0,1,0,0)"
font-family="Arial" font-size="8" font-weight="400" font-style="normal" 
>
<text fill="#000000" fill-opacity="1" stroke="none" xml:space="preserve" x="229" y="138" font-family="Arial" font-size="8" font-weight="400" font-style="normal" 
 >RCD</text>
<path vector-effect="non-scaling-stroke" fill-rule="evenodd" d="M446,23 C446,21.3431 447.343,20 449,20 L713,20 C714.657,20 716,21.3431 716,23 L716,33 C716,34.6569 714.657,36 713,36 L449,36 C447.343,36 446,34.6569 446,33 L446,23"/>
<polyline fill="none" vector-effect="non-scaling-stroke" points="446,28 716,28 " />
</g>

<g fill="none" stroke="#ff0000" stroke-opacity="1" stroke-width="1" stroke-linecap="square" stroke-linejoin="bevel" transform="matrix(1,0,0,1,0,0)"
font-family="Arial" font-size="8" font-weight="700" font-style="normal" 
>
<text fill="#ff0000" fill-opacity="1" stroke="none" xml:space="preserve" x="447" y="26" font-family="Arial" font-size="8" font-weight="700" font-style="normal" 
 >Tranche</text>
</g>

<g fill="none" stroke="#ff0000" stroke-opacity="1" stroke-width="1" stroke-linecap="square" stroke-linejoin="bevel" transform="matrix(1,0,0,1,0,0)"
font-family="Arial" font-size="8" font-weight="700" font-style="normal" 
>
<text fill="#ff0000" fill-opacity="1" stroke="none" xml:space="preserve" x="589" y="26" font-family="Arial" font-size="8" font-weight="700" font-style="normal" 
 >dom.tr.LEGO</text>
</g>

<g fill="none" stroke="#000000" stroke-opacity="1" stroke-width="1" stroke-linecap="square" stroke-linejoin="bevel" transform="matrix(1,0,0,1,0,0)"
font-family="Arial" font-size="8" font-weight="700" font-style="normal" 
>
<text fill="#000000" fill-opacity="1" stroke="none" xml:space="preserve" x="447" y="34" font-family="Arial" font-size="8" font-weight="700" font-style="normal" 
 >Objet_identifié.définition : </text>
</g>

<g fill="none" stroke="#000000" stroke-opacity="1" stroke-width="1" stroke-linecap="square" stroke-linejoin="bevel" transform="matrix(1,0,0,1,0,0)"
font-family="Arial" font-size="8" font-weight="400" font-style="normal" 
>
<text fill="#000000" fill-opacity="1" stroke="none" xml:space="preserve" x="589" y="34" font-family="Arial" font-size="8" font-weight="400" font-style="normal" 
 >Centrale simulée CONNEXION</text>
<path vector-effect="non-scaling-stroke" fill-rule="evenodd" d="M736,23 C736,21.3431 737.343,20 739,20 L1097,20 C1098.66,20 1100,21.3431 1100,23 L1100,33 C1100,34.6569 1098.66,36 1097,36 L739,36 C737.343,36 736,34.6569 736,33 L736,23"/>
<polyline fill="none" vector-effect="non-scaling-stroke" points="736,28 1100,28 " />
</g>

<g fill="none" stroke="#ff0000" stroke-opacity="1" stroke-width="1" stroke-linecap="square" stroke-linejoin="bevel" transform="matrix(1,0,0,1,0,0)"
font-family="Arial" font-size="8" font-weight="700" font-style="normal" 
>
<text fill="#ff0000" fill-opacity="1" stroke="none" xml:space="preserve" x="737" y="26" font-family="Arial" font-size="8" font-weight="700" font-style="normal" 
 >Système_élémentaire</text>
</g>

<g fill="none" stroke="#ff0000" stroke-opacity="1" stroke-width="1" stroke-linecap="square" stroke-linejoin="bevel" transform="matrix(1,0,0,1,0,0)"
font-family="Arial" font-size="8" font-weight="700" font-style="normal" 
>
<text fill="#ff0000" fill-opacity="1" stroke="none" xml:space="preserve" x="880" y="26" font-family="Arial" font-size="8" font-weight="700" font-style="normal" 
 >dom.se.PTR</text>
</g>

<g fill="none" stroke="#000000" stroke-opacity="1" stroke-width="1" stroke-linecap="square" stroke-linejoin="bevel" transform="matrix(1,0,0,1,0,0)"
font-family="Arial" font-size="8" font-weight="700" font-style="normal" 
>
<text fill="#000000" fill-opacity="1" stroke="none" xml:space="preserve" x="737" y="34" font-family="Arial" font-size="8" font-weight="700" font-style="normal" 
 >Objet_identifié.définition : </text>
</g>

<g fill="none" stroke="#000000" stroke-opacity="1" stroke-width="1" stroke-linecap="square" stroke-linejoin="bevel" transform="matrix(1,0,0,1,0,0)"
font-family="Arial" font-size="8" font-weight="400" font-style="normal" 
>
<text fill="#000000" fill-opacity="1" stroke="none" xml:space="preserve" x="880" y="34" font-family="Arial" font-size="8" font-weight="400" font-style="normal" 
 >Refroidissement et conditionnement des piscines</text>
<path vector-effect="non-scaling-stroke" fill-rule="evenodd" d="M736,63 C736,61.3431 737.343,60 739,60 L1097,60 C1098.66,60 1100,61.3431 1100,63 L1100,73 C1100,74.6569 1098.66,76 1097,76 L739,76 C737.343,76 736,74.6569 736,73 L736,63"/>
<polyline fill="none" vector-effect="non-scaling-stroke" points="736,68 1068,68 " />
</g>

<g fill="none" stroke="#ff0000" stroke-opacity="1" stroke-width="1" stroke-linecap="square" stroke-linejoin="bevel" transform="matrix(1,0,0,1,0,0)"
font-family="Arial" font-size="8" font-weight="700" font-style="normal" 
>
<text fill="#ff0000" fill-opacity="1" stroke="none" xml:space="preserve" x="737" y="66" font-family="Arial" font-size="8" font-weight="700" font-style="normal" 
 >Système_élémentaire</text>
</g>

<g fill="none" stroke="#ff0000" stroke-opacity="1" stroke-width="1" stroke-linecap="square" stroke-linejoin="bevel" transform="matrix(1,0,0,1,0,0)"
font-family="Arial" font-size="8" font-weight="700" font-style="normal" 
>
<text fill="#ff0000" fill-opacity="1" stroke="none" xml:space="preserve" x="880" y="66" font-family="Arial" font-size="8" font-weight="700" font-style="normal" 
 >dom.se.RRA</text>
</g>

<g fill="none" stroke="#000000" stroke-opacity="1" stroke-width="1" stroke-linecap="square" stroke-linejoin="bevel" transform="matrix(1,0,0,1,0,0)"
font-family="Arial" font-size="8" font-weight="700" font-style="normal" 
>
<text fill="#000000" fill-opacity="1" stroke="none" xml:space="preserve" x="737" y="74" font-family="Arial" font-size="8" font-weight="700" font-style="normal" 
 >Objet_identifié.définition : </text>
</g>

<g fill="none" stroke="#000000" stroke-opacity="1" stroke-width="1" stroke-linecap="square" stroke-linejoin="bevel" transform="matrix(1,0,0,1,0,0)"
font-family="Arial" font-size="8" font-weight="400" font-style="normal" 
>
<text fill="#000000" fill-opacity="1" stroke="none" xml:space="preserve" x="880" y="74" font-family="Arial" font-size="8" font-weight="400" font-style="normal" 
 >Refroidissement du réacteur à l'arrêt</text>
<path vector-effect="non-scaling-stroke" fill-rule="evenodd" d="M736,103 C736,101.343 737.343,100 739,100 L1097,100 C1098.66,100 1100,101.343 1100,103 L1100,113 C1100,114.657 1098.66,116 1097,116 L739,116 C737.343,116 736,114.657 736,113 L736,103"/>
<polyline fill="none" vector-effect="non-scaling-stroke" points="736,108 1002,108 " />
</g>

<g fill="none" stroke="#ff0000" stroke-opacity="1" stroke-width="1" stroke-linecap="square" stroke-linejoin="bevel" transform="matrix(1,0,0,1,0,0)"
font-family="Arial" font-size="8" font-weight="700" font-style="normal" 
>
<text fill="#ff0000" fill-opacity="1" stroke="none" xml:space="preserve" x="737" y="106" font-family="Arial" font-size="8" font-weight="700" font-style="normal" 
 >Système_élémentaire</text>
</g>

<g fill="none" stroke="#ff0000" stroke-opacity="1" stroke-width="1" stroke-linecap="square" stroke-linejoin="bevel" transform="matrix(1,0,0,1,0,0)"
font-family="Arial" font-size="8" font-weight="700" font-style="normal" 
>
<text fill="#ff0000" fill-opacity="1" stroke="none" xml:space="preserve" x="880" y="106" font-family="Arial" font-size="8" font-weight="700" font-style="normal" 
 >dom.se.REA</text>
</g>

<g fill="none" stroke="#000000" stroke-opacity="1" stroke-width="1" stroke-linecap="square" stroke-linejoin="bevel" transform="matrix(1,0,0,1,0,0)"
font-family="Arial" font-size="8" font-weight="700" font-style="normal" 
>
<text fill="#000000" fill-opacity="1" stroke="none" xml:space="preserve" x="737" y="114" font-family="Arial" font-size="8" font-weight="700" font-style="normal" 
 >Objet_identifié.définition : </text>
</g>

<g fill="none" stroke="#000000" stroke-opacity="1" stroke-width="1" stroke-linecap="square" stroke-linejoin="bevel" transform="matrix(1,0,0,1,0,0)"
font-family="Arial" font-size="8" font-weight="400" font-style="normal" 
>
<text fill="#000000" fill-opacity="1" stroke="none" xml:space="preserve" x="880" y="114" font-family="Arial" font-size="8" font-weight="400" font-style="normal" 
 >Appoint d'eau au réacteur</text>
<path vector-effect="non-scaling-stroke" fill-rule="evenodd" d="M736,143 C736,141.343 737.343,140 739,140 L1097,140 C1098.66,140 1100,141.343 1100,143 L1100,153 C1100,154.657 1098.66,156 1097,156 L739,156 C737.343,156 736,154.657 736,153 L736,143"/>
<polyline fill="none" vector-effect="non-scaling-stroke" points="736,148 1040,148 " />
</g>

<g fill="none" stroke="#ff0000" stroke-opacity="1" stroke-width="1" stroke-linecap="square" stroke-linejoin="bevel" transform="matrix(1,0,0,1,0,0)"
font-family="Arial" font-size="8" font-weight="700" font-style="normal" 
>
<text fill="#ff0000" fill-opacity="1" stroke="none" xml:space="preserve" x="737" y="146" font-family="Arial" font-size="8" font-weight="700" font-style="normal" 
 >Système_élémentaire</text>
</g>

<g fill="none" stroke="#ff0000" stroke-opacity="1" stroke-width="1" stroke-linecap="square" stroke-linejoin="bevel" transform="matrix(1,0,0,1,0,0)"
font-family="Arial" font-size="8" font-weight="700" font-style="normal" 
>
<text fill="#ff0000" fill-opacity="1" stroke="none" xml:space="preserve" x="880" y="146" font-family="Arial" font-size="8" font-weight="700" font-style="normal" 
 >dom.se.TEP</text>
</g>

<g fill="none" stroke="#000000" stroke-opacity="1" stroke-width="1" stroke-linecap="square" stroke-linejoin="bevel" transform="matrix(1,0,0,1,0,0)"
font-family="Arial" font-size="8" font-weight="700" font-style="normal" 
>
<text fill="#000000" fill-opacity="1" stroke="none" xml:space="preserve" x="737" y="154" font-family="Arial" font-size="8" font-weight="700" font-style="normal" 
 >Objet_identifié.définition : </text>
</g>

<g fill="none" stroke="#000000" stroke-opacity="1" stroke-width="1" stroke-linecap="square" stroke-linejoin="bevel" transform="matrix(1,0,0,1,0,0)"
font-family="Arial" font-size="8" font-weight="400" font-style="normal" 
>
<text fill="#000000" fill-opacity="1" stroke="none" xml:space="preserve" x="880" y="154" font-family="Arial" font-size="8" font-weight="400" font-style="normal" 
 >Traitement des effluents primaires</text>
<path vector-effect="non-scaling-stroke" fill-rule="evenodd" d="M736,183 C736,181.343 737.343,180 739,180 L1097,180 C1098.66,180 1100,181.343 1100,183 L1100,193 C1100,194.657 1098.66,196 1097,196 L739,196 C737.343,196 736,194.657 736,193 L736,183"/>
<polyline fill="none" vector-effect="non-scaling-stroke" points="736,188 1044,188 " />
</g>

<g fill="none" stroke="#ff0000" stroke-opacity="1" stroke-width="1" stroke-linecap="square" stroke-linejoin="bevel" transform="matrix(1,0,0,1,0,0)"
font-family="Arial" font-size="8" font-weight="700" font-style="normal" 
>
<text fill="#ff0000" fill-opacity="1" stroke="none" xml:space="preserve" x="737" y="186" font-family="Arial" font-size="8" font-weight="700" font-style="normal" 
 >Système_élémentaire</text>
</g>

<g fill="none" stroke="#ff0000" stroke-opacity="1" stroke-width="1" stroke-linecap="square" stroke-linejoin="bevel" transform="matrix(1,0,0,1,0,0)"
font-family="Arial" font-size="8" font-weight="700" font-style="normal" 
>
<text fill="#ff0000" fill-opacity="1" stroke="none" xml:space="preserve" x="880" y="186" font-family="Arial" font-size="8" font-weight="700" font-style="normal" 
 >dom.se.RCV</text>
</g>

<g fill="none" stroke="#000000" stroke-opacity="1" stroke-width="1" stroke-linecap="square" stroke-linejoin="bevel" transform="matrix(1,0,0,1,0,0)"
font-family="Arial" font-size="8" font-weight="700" font-style="normal" 
>
<text fill="#000000" fill-opacity="1" stroke="none" xml:space="preserve" x="737" y="194" font-family="Arial" font-size="8" font-weight="700" font-style="normal" 
 >Objet_identifié.définition : </text>
</g>

<g fill="none" stroke="#000000" stroke-opacity="1" stroke-width="1" stroke-linecap="square" stroke-linejoin="bevel" transform="matrix(1,0,0,1,0,0)"
font-family="Arial" font-size="8" font-weight="400" font-style="normal" 
>
<text fill="#000000" fill-opacity="1" stroke="none" xml:space="preserve" x="880" y="194" font-family="Arial" font-size="8" font-weight="400" font-style="normal" 
 >Contrôle chimique et volumétrique</text>
<path vector-effect="non-scaling-stroke" fill-rule="evenodd" d="M1120,23 C1120,21.3431 1121.34,20 1123,20 L1331,20 C1332.66,20 1334,21.3431 1334,23 L1334,33 C1334,34.6569 1332.66,36 1331,36 L1123,36 C1121.34,36 1120,34.6569 1120,33 L1120,23"/>
<polyline fill="none" vector-effect="non-scaling-stroke" points="1120,28 1335,28 " />
</g>

<g fill="none" stroke="#ff0000" stroke-opacity="1" stroke-width="1" stroke-linecap="square" stroke-linejoin="bevel" transform="matrix(1,0,0,1,0,0)"
font-family="Arial" font-size="8" font-weight="700" font-style="normal" 
>
<text fill="#ff0000" fill-opacity="1" stroke="none" xml:space="preserve" x="1121" y="26" font-family="Arial" font-size="8" font-weight="700" font-style="normal" 
 >Equipement</text>
</g>

<g fill="none" stroke="#ff0000" stroke-opacity="1" stroke-width="1" stroke-linecap="square" stroke-linejoin="bevel" transform="matrix(1,0,0,1,0,0)"
font-family="Arial" font-size="8" font-weight="700" font-style="normal" 
>
<text fill="#ff0000" fill-opacity="1" stroke="none" xml:space="preserve" x="1264" y="26" font-family="Arial" font-size="8" font-weight="700" font-style="normal" 
 >dom.eq.PTR022PO</text>
</g>

<g fill="none" stroke="#000000" stroke-opacity="1" stroke-width="1" stroke-linecap="square" stroke-linejoin="bevel" transform="matrix(1,0,0,1,0,0)"
font-family="Arial" font-size="8" font-weight="700" font-style="normal" 
>
<text fill="#000000" fill-opacity="1" stroke="none" xml:space="preserve" x="1121" y="34" font-family="Arial" font-size="8" font-weight="700" font-style="normal" 
 >Equipement.catégorie : </text>
</g>

<g fill="none" stroke="#000000" stroke-opacity="1" stroke-width="1" stroke-linecap="square" stroke-linejoin="bevel" transform="matrix(1,0,0,1,0,0)"
font-family="Arial" font-size="8" font-weight="400" font-style="normal" 
>
<text fill="#000000" fill-opacity="1" stroke="none" xml:space="preserve" x="1264" y="34" font-family="Arial" font-size="8" font-weight="400" font-style="normal" 
 >Pompe</text>
<path vector-effect="non-scaling-stroke" fill-rule="evenodd" d="M1120,63 C1120,61.3431 1121.34,60 1123,60 L1331,60 C1332.66,60 1334,61.3431 1334,63 L1334,73 C1334,74.6569 1332.66,76 1331,76 L1123,76 C1121.34,76 1120,74.6569 1120,73 L1120,63"/>
<polyline fill="none" vector-effect="non-scaling-stroke" points="1120,68 1335,68 " />
</g>

<g fill="none" stroke="#ff0000" stroke-opacity="1" stroke-width="1" stroke-linecap="square" stroke-linejoin="bevel" transform="matrix(1,0,0,1,0,0)"
font-family="Arial" font-size="8" font-weight="700" font-style="normal" 
>
<text fill="#ff0000" fill-opacity="1" stroke="none" xml:space="preserve" x="1121" y="66" font-family="Arial" font-size="8" font-weight="700" font-style="normal" 
 >Equipement</text>
</g>

<g fill="none" stroke="#ff0000" stroke-opacity="1" stroke-width="1" stroke-linecap="square" stroke-linejoin="bevel" transform="matrix(1,0,0,1,0,0)"
font-family="Arial" font-size="8" font-weight="700" font-style="normal" 
>
<text fill="#ff0000" fill-opacity="1" stroke="none" xml:space="preserve" x="1264" y="66" font-family="Arial" font-size="8" font-weight="700" font-style="normal" 
 >dom.eq.PTR021PO</text>
</g>

<g fill="none" stroke="#000000" stroke-opacity="1" stroke-width="1" stroke-linecap="square" stroke-linejoin="bevel" transform="matrix(1,0,0,1,0,0)"
font-family="Arial" font-size="8" font-weight="700" font-style="normal" 
>
<text fill="#000000" fill-opacity="1" stroke="none" xml:space="preserve" x="1121" y="74" font-family="Arial" font-size="8" font-weight="700" font-style="normal" 
 >Equipement.catégorie : </text>
</g>

<g fill="none" stroke="#000000" stroke-opacity="1" stroke-width="1" stroke-linecap="square" stroke-linejoin="bevel" transform="matrix(1,0,0,1,0,0)"
font-family="Arial" font-size="8" font-weight="400" font-style="normal" 
>
<text fill="#000000" fill-opacity="1" stroke="none" xml:space="preserve" x="1264" y="74" font-family="Arial" font-size="8" font-weight="400" font-style="normal" 
 >Pompe</text>
</g>

<g fill="none" stroke="#0e32c8" stroke-opacity="1" stroke-width="1" stroke-linecap="square" stroke-linejoin="bevel" transform="matrix(1,0,0,1,0,0)"
font-family="Arial" font-size="8" font-weight="400" font-style="normal" 
>
<polyline fill="none" vector-effect="non-scaling-stroke" points="426,116 1120,68 " />
<polyline fill="none" vector-effect="non-scaling-stroke" points="426,116 736,28 " />
<polyline fill="none" vector-effect="non-scaling-stroke" points="426,116 446,28 " />
<polyline fill="none" vector-effect="non-scaling-stroke" points="332,44 1120,28 " />
<polyline fill="none" vector-effect="non-scaling-stroke" points="332,44 736,28 " />
<polyline fill="none" vector-effect="non-scaling-stroke" points="332,44 446,28 " />
</g>
</g>
</svg>
