<?xml version="1.0" encoding="UTF-8" standalone="no"?>
<svg width="705.556mm" height="143.933mm"
 viewBox="0 0 2000 408"
 xmlns="http://www.w3.org/2000/svg" xmlns:xlink="http://www.w3.org/1999/xlink"  version="1.2" baseProfile="tiny">
<title>SVG Generator Example Drawing</title>
<desc>Dessin svg pour une démonstration</desc>
<defs>
</defs>
<g fill="none" stroke="black" stroke-width="1" fill-rule="evenodd" stroke-linecap="square" stroke-linejoin="bevel" >

<g fill="none" stroke="#ff0000" stroke-opacity="1" stroke-width="1" stroke-linecap="square" stroke-linejoin="bevel" transform="matrix(1,0,0,1,0,0)"
font-family="Arial" font-size="8" font-weight="700" font-style="normal" 
>
<text fill="#ff0000" fill-opacity="1" stroke="none" xml:space="preserve" x="20" y="28" font-family="Arial" font-size="8" font-weight="700" font-style="normal" 
 >Tranche</text>
</g>

<g fill="none" stroke="#000000" stroke-opacity="1" stroke-width="1" stroke-linecap="square" stroke-linejoin="bevel" transform="matrix(1,0,0,1,0,0)"
font-family="Arial" font-size="8" font-weight="400" font-style="normal" 
>
<path vector-effect="non-scaling-stroke" fill-rule="evenodd" d="M20,36 L71,36 L71,52 L20,52 L20,36"/>
</g>

<g fill="#a0a0a4" fill-opacity="1" stroke="none" transform="matrix(1,0,0,1,0,0)"
font-family="Arial" font-size="8" font-weight="400" font-style="normal" 
>
<path vector-effect="non-scaling-stroke" fill-rule="evenodd" d="M20,36 L71,36 L71,52 L20,52 L20,36"/>
</g>

<g fill="none" stroke="#000000" stroke-opacity="1" stroke-width="1" stroke-linecap="square" stroke-linejoin="bevel" transform="matrix(1,0,0,1,0,0)"
font-family="Arial" font-size="8" font-weight="400" font-style="normal" 
>
<text fill="#000000" fill-opacity="1" stroke="none" xml:space="preserve" x="35.5156" y="46.2344" font-family="Arial" font-size="8" font-weight="400" font-style="normal" 
 >name</text>
<path vector-effect="non-scaling-stroke" fill-rule="evenodd" d="M20,52 L71,52 L71,68 L20,68 L20,52"/>
<text fill="#000000" fill-opacity="1" stroke="none" xml:space="preserve" x="22.1875" y="62.2344" font-family="Arial" font-size="8" font-weight="400" font-style="normal" 
 >dom.tr.LEGO</text>
<path vector-effect="non-scaling-stroke" fill-rule="evenodd" d="M71,36 L201,36 L201,52 L71,52 L71,36"/>
</g>

<g fill="#a0a0a4" fill-opacity="1" stroke="none" transform="matrix(1,0,0,1,0,0)"
font-family="Arial" font-size="8" font-weight="400" font-style="normal" 
>
<path vector-effect="non-scaling-stroke" fill-rule="evenodd" d="M71,36 L201,36 L201,52 L71,52 L71,36"/>
</g>

<g fill="none" stroke="#000000" stroke-opacity="1" stroke-width="1" stroke-linecap="square" stroke-linejoin="bevel" transform="matrix(1,0,0,1,0,0)"
font-family="Arial" font-size="8" font-weight="400" font-style="normal" 
>
<text fill="#000000" fill-opacity="1" stroke="none" xml:space="preserve" x="93.4219" y="46.2344" font-family="Arial" font-size="8" font-weight="400" font-style="normal" 
 >Objet_identifié.définition</text>
<path vector-effect="non-scaling-stroke" fill-rule="evenodd" d="M71,52 L201,52 L201,68 L71,68 L71,52"/>
<text fill="#000000" fill-opacity="1" stroke="none" xml:space="preserve" x="80.7656" y="62.2344" font-family="Arial" font-size="8" font-weight="400" font-style="normal" 
 >Centrale simulée CONNEXION</text>
</g>

<g fill="none" stroke="#ff0000" stroke-opacity="1" stroke-width="1" stroke-linecap="square" stroke-linejoin="bevel" transform="matrix(1,0,0,1,0,0)"
font-family="Arial" font-size="8" font-weight="700" font-style="normal" 
>
<text fill="#ff0000" fill-opacity="1" stroke="none" xml:space="preserve" x="20" y="100" font-family="Arial" font-size="8" font-weight="700" font-style="normal" 
 >Système_élémentaire</text>
</g>

<g fill="none" stroke="#000000" stroke-opacity="1" stroke-width="1" stroke-linecap="square" stroke-linejoin="bevel" transform="matrix(1,0,0,1,0,0)"
font-family="Arial" font-size="8" font-weight="400" font-style="normal" 
>
<path vector-effect="non-scaling-stroke" fill-rule="evenodd" d="M20,108 L66,108 L66,124 L20,124 L20,108"/>
</g>

<g fill="#a0a0a4" fill-opacity="1" stroke="none" transform="matrix(1,0,0,1,0,0)"
font-family="Arial" font-size="8" font-weight="400" font-style="normal" 
>
<path vector-effect="non-scaling-stroke" fill-rule="evenodd" d="M20,108 L66,108 L66,124 L20,124 L20,108"/>
</g>

<g fill="none" stroke="#000000" stroke-opacity="1" stroke-width="1" stroke-linecap="square" stroke-linejoin="bevel" transform="matrix(1,0,0,1,0,0)"
font-family="Arial" font-size="8" font-weight="400" font-style="normal" 
>
<text fill="#000000" fill-opacity="1" stroke="none" xml:space="preserve" x="33.0156" y="118.234" font-family="Arial" font-size="8" font-weight="400" font-style="normal" 
 >name</text>
<path vector-effect="non-scaling-stroke" fill-rule="evenodd" d="M20,124 L66,124 L66,140 L20,140 L20,124"/>
<text fill="#000000" fill-opacity="1" stroke="none" xml:space="preserve" x="20.5781" y="134.234" font-family="Arial" font-size="8" font-weight="400" font-style="normal" 
 >dom.se.REA</text>
<path vector-effect="non-scaling-stroke" fill-rule="evenodd" d="M20,140 L66,140 L66,156 L20,156 L20,140"/>
<text fill="#000000" fill-opacity="1" stroke="none" xml:space="preserve" x="20.3594" y="150.234" font-family="Arial" font-size="8" font-weight="400" font-style="normal" 
 >dom.se.RRA</text>
<path vector-effect="non-scaling-stroke" fill-rule="evenodd" d="M20,156 L66,156 L66,172 L20,172 L20,156"/>
<text fill="#000000" fill-opacity="1" stroke="none" xml:space="preserve" x="21.0312" y="166.234" font-family="Arial" font-size="8" font-weight="400" font-style="normal" 
 >dom.se.TEP</text>
<path vector-effect="non-scaling-stroke" fill-rule="evenodd" d="M20,172 L66,172 L66,188 L20,188 L20,172"/>
<text fill="#000000" fill-opacity="1" stroke="none" xml:space="preserve" x="20.3594" y="182.234" font-family="Arial" font-size="8" font-weight="400" font-style="normal" 
 >dom.se.RCV</text>
<path vector-effect="non-scaling-stroke" fill-rule="evenodd" d="M20,188 L66,188 L66,204 L20,204 L20,188"/>
<text fill="#000000" fill-opacity="1" stroke="none" xml:space="preserve" x="20.8125" y="198.234" font-family="Arial" font-size="8" font-weight="400" font-style="normal" 
 >dom.se.PTR</text>
<path vector-effect="non-scaling-stroke" fill-rule="evenodd" d="M66,108 L285,108 L285,124 L66,124 L66,108"/>
</g>

<g fill="#a0a0a4" fill-opacity="1" stroke="none" transform="matrix(1,0,0,1,0,0)"
font-family="Arial" font-size="8" font-weight="400" font-style="normal" 
>
<path vector-effect="non-scaling-stroke" fill-rule="evenodd" d="M66,108 L285,108 L285,124 L66,124 L66,108"/>
</g>

<g fill="none" stroke="#000000" stroke-opacity="1" stroke-width="1" stroke-linecap="square" stroke-linejoin="bevel" transform="matrix(1,0,0,1,0,0)"
font-family="Arial" font-size="8" font-weight="400" font-style="normal" 
>
<text fill="#000000" fill-opacity="1" stroke="none" xml:space="preserve" x="132.922" y="118.234" font-family="Arial" font-size="8" font-weight="400" font-style="normal" 
 >Objet_identifié.définition</text>
<path vector-effect="non-scaling-stroke" fill-rule="evenodd" d="M66,124 L285,124 L285,140 L66,140 L66,124"/>
<text fill="#000000" fill-opacity="1" stroke="none" xml:space="preserve" x="111.078" y="134.234" font-family="Arial" font-size="8" font-weight="400" font-style="normal" 
 >Refroidissement du réacteur à l'arrêt</text>
<path vector-effect="non-scaling-stroke" fill-rule="evenodd" d="M66,140 L285,140 L285,156 L66,156 L66,140"/>
<text fill="#000000" fill-opacity="1" stroke="none" xml:space="preserve" x="88.75" y="150.234" font-family="Arial" font-size="8" font-weight="400" font-style="normal" 
 >Refroidissement et conditionnement des piscines</text>
<path vector-effect="non-scaling-stroke" fill-rule="evenodd" d="M66,156 L285,156 L285,172 L66,172 L66,156"/>
<text fill="#000000" fill-opacity="1" stroke="none" xml:space="preserve" x="129.922" y="166.234" font-family="Arial" font-size="8" font-weight="400" font-style="normal" 
 >Appoint d'eau au réacteur</text>
<path vector-effect="non-scaling-stroke" fill-rule="evenodd" d="M66,172 L285,172 L285,188 L66,188 L66,172"/>
<text fill="#000000" fill-opacity="1" stroke="none" xml:space="preserve" x="115.391" y="182.234" font-family="Arial" font-size="8" font-weight="400" font-style="normal" 
 >Traitement des effluents primaires</text>
<path vector-effect="non-scaling-stroke" fill-rule="evenodd" d="M66,188 L285,188 L285,204 L66,204 L66,188"/>
<text fill="#000000" fill-opacity="1" stroke="none" xml:space="preserve" x="114.953" y="198.234" font-family="Arial" font-size="8" font-weight="400" font-style="normal" 
 >Contrôle chimique et volumétrique</text>
</g>

<g fill="none" stroke="#ff0000" stroke-opacity="1" stroke-width="1" stroke-linecap="square" stroke-linejoin="bevel" transform="matrix(1,0,0,1,0,0)"
font-family="Arial" font-size="8" font-weight="700" font-style="normal" 
>
<text fill="#ff0000" fill-opacity="1" stroke="none" xml:space="preserve" x="20" y="236" font-family="Arial" font-size="8" font-weight="700" font-style="normal" 
 >Contexte_de_service</text>
</g>

<g fill="none" stroke="#000000" stroke-opacity="1" stroke-width="1" stroke-linecap="square" stroke-linejoin="bevel" transform="matrix(1,0,0,1,0,0)"
font-family="Arial" font-size="8" font-weight="400" font-style="normal" 
>
<path vector-effect="non-scaling-stroke" fill-rule="evenodd" d="M20,244 L108,244 L108,260 L20,260 L20,244"/>
</g>

<g fill="#a0a0a4" fill-opacity="1" stroke="none" transform="matrix(1,0,0,1,0,0)"
font-family="Arial" font-size="8" font-weight="400" font-style="normal" 
>
<path vector-effect="non-scaling-stroke" fill-rule="evenodd" d="M20,244 L108,244 L108,260 L20,260 L20,244"/>
</g>

<g fill="none" stroke="#000000" stroke-opacity="1" stroke-width="1" stroke-linecap="square" stroke-linejoin="bevel" transform="matrix(1,0,0,1,0,0)"
font-family="Arial" font-size="8" font-weight="400" font-style="normal" 
>
<text fill="#000000" fill-opacity="1" stroke="none" xml:space="preserve" x="54.0156" y="254.234" font-family="Arial" font-size="8" font-weight="400" font-style="normal" 
 >name</text>
<path vector-effect="non-scaling-stroke" fill-rule="evenodd" d="M20,260 L108,260 L108,276 L20,276 L20,260"/>
<text fill="#000000" fill-opacity="1" stroke="none" xml:space="preserve" x="24.0469" y="270.234" font-family="Arial" font-size="8" font-weight="400" font-style="normal" 
 >ctx.cs.DiagPTR021PO</text>
<path vector-effect="non-scaling-stroke" fill-rule="evenodd" d="M20,276 L108,276 L108,292 L20,292 L20,276"/>
<text fill="#000000" fill-opacity="1" stroke="none" xml:space="preserve" x="24.0469" y="286.234" font-family="Arial" font-size="8" font-weight="400" font-style="normal" 
 >ctx.cs.DiagPTR022PO</text>
<path vector-effect="non-scaling-stroke" fill-rule="evenodd" d="M108,244 L304,244 L304,260 L108,260 L108,244"/>
</g>

<g fill="#a0a0a4" fill-opacity="1" stroke="none" transform="matrix(1,0,0,1,0,0)"
font-family="Arial" font-size="8" font-weight="400" font-style="normal" 
>
<path vector-effect="non-scaling-stroke" fill-rule="evenodd" d="M108,244 L304,244 L304,260 L108,260 L108,244"/>
</g>

<g fill="none" stroke="#000000" stroke-opacity="1" stroke-width="1" stroke-linecap="square" stroke-linejoin="bevel" transform="matrix(1,0,0,1,0,0)"
font-family="Arial" font-size="8" font-weight="400" font-style="normal" 
>
<text fill="#000000" fill-opacity="1" stroke="none" xml:space="preserve" x="163.422" y="254.234" font-family="Arial" font-size="8" font-weight="400" font-style="normal" 
 >Objet_identifié.définition</text>
<path vector-effect="non-scaling-stroke" fill-rule="evenodd" d="M108,260 L304,260 L304,276 L108,276 L108,260"/>
<text fill="#000000" fill-opacity="1" stroke="none" xml:space="preserve" x="128.125" y="270.234" font-family="Arial" font-size="8" font-weight="400" font-style="normal" 
 >Mise à disposition de diagnostic PTR021PO</text>
<path vector-effect="non-scaling-stroke" fill-rule="evenodd" d="M108,276 L304,276 L304,292 L108,292 L108,276"/>
<text fill="#000000" fill-opacity="1" stroke="none" xml:space="preserve" x="165.844" y="286.234" font-family="Arial" font-size="8" font-weight="400" font-style="normal" 
 >Diagnostic PTR022PO</text>
<path vector-effect="non-scaling-stroke" fill-rule="evenodd" d="M304,244 L458,244 L458,260 L304,260 L304,244"/>
</g>

<g fill="#a0a0a4" fill-opacity="1" stroke="none" transform="matrix(1,0,0,1,0,0)"
font-family="Arial" font-size="8" font-weight="400" font-style="normal" 
>
<path vector-effect="non-scaling-stroke" fill-rule="evenodd" d="M304,244 L458,244 L458,260 L304,260 L304,244"/>
</g>

<g fill="none" stroke="#000000" stroke-opacity="1" stroke-width="1" stroke-linecap="square" stroke-linejoin="bevel" transform="matrix(1,0,0,1,0,0)"
font-family="Arial" font-size="8" font-weight="400" font-style="normal" 
>
<text fill="#000000" fill-opacity="1" stroke="none" xml:space="preserve" x="323.766" y="254.234" font-family="Arial" font-size="8" font-weight="400" font-style="normal" 
 >Objet_identifié.catégorie_AP929</text>
<path vector-effect="non-scaling-stroke" fill-rule="evenodd" d="M304,260 L458,260 L458,276 L304,276 L304,260"/>
<text fill="#000000" fill-opacity="1" stroke="none" xml:space="preserve" x="336.844" y="270.234" font-family="Arial" font-size="8" font-weight="400" font-style="normal" 
 >exigence_de_conception</text>
<path vector-effect="non-scaling-stroke" fill-rule="evenodd" d="M304,276 L458,276 L458,292 L304,292 L304,276"/>
<text fill="#000000" fill-opacity="1" stroke="none" xml:space="preserve" x="336.844" y="286.234" font-family="Arial" font-size="8" font-weight="400" font-style="normal" 
 >exigence_de_conception</text>
<path vector-effect="non-scaling-stroke" fill-rule="evenodd" d="M458,244 L583,244 L583,260 L458,260 L458,244"/>
</g>

<g fill="#a0a0a4" fill-opacity="1" stroke="none" transform="matrix(1,0,0,1,0,0)"
font-family="Arial" font-size="8" font-weight="400" font-style="normal" 
>
<path vector-effect="non-scaling-stroke" fill-rule="evenodd" d="M458,244 L583,244 L583,260 L458,260 L458,244"/>
</g>

<g fill="none" stroke="#000000" stroke-opacity="1" stroke-width="1" stroke-linecap="square" stroke-linejoin="bevel" transform="matrix(1,0,0,1,0,0)"
font-family="Arial" font-size="8" font-weight="400" font-style="normal" 
>
<text fill="#000000" fill-opacity="1" stroke="none" xml:space="preserve" x="470.578" y="254.234" font-family="Arial" font-size="8" font-weight="400" font-style="normal" 
 >Contexte_de_service.terrain</text>
<path vector-effect="non-scaling-stroke" fill-rule="evenodd" d="M458,260 L583,260 L583,276 L458,276 L458,260"/>
<text fill="#000000" fill-opacity="1" stroke="none" xml:space="preserve" x="513.625" y="270.234" font-family="Arial" font-size="8" font-weight="400" font-style="normal" 
 >true</text>
<path vector-effect="non-scaling-stroke" fill-rule="evenodd" d="M458,276 L583,276 L583,292 L458,292 L458,276"/>
<text fill="#000000" fill-opacity="1" stroke="none" xml:space="preserve" x="513.625" y="286.234" font-family="Arial" font-size="8" font-weight="400" font-style="normal" 
 >true</text>
<path vector-effect="non-scaling-stroke" fill-rule="evenodd" d="M584,244 L709,244 L709,260 L584,260 L584,244"/>
</g>

<g fill="#a0a0a4" fill-opacity="1" stroke="none" transform="matrix(1,0,0,1,0,0)"
font-family="Arial" font-size="8" font-weight="400" font-style="normal" 
>
<path vector-effect="non-scaling-stroke" fill-rule="evenodd" d="M584,244 L709,244 L709,260 L584,260 L584,244"/>
</g>

<g fill="none" stroke="#000000" stroke-opacity="1" stroke-width="1" stroke-linecap="square" stroke-linejoin="bevel" transform="matrix(1,0,0,1,0,0)"
font-family="Arial" font-size="8" font-weight="400" font-style="normal" 
>
<text fill="#000000" fill-opacity="1" stroke="none" xml:space="preserve" x="596.797" y="254.234" font-family="Arial" font-size="8" font-weight="400" font-style="normal" 
 >Contexte_de_service.métier</text>
<path vector-effect="non-scaling-stroke" fill-rule="evenodd" d="M584,260 L709,260 L709,276 L584,276 L584,260"/>
<text fill="#000000" fill-opacity="1" stroke="none" xml:space="preserve" x="634.969" y="270.234" font-family="Arial" font-size="8" font-weight="400" font-style="normal" 
 >chimie</text>
<path vector-effect="non-scaling-stroke" fill-rule="evenodd" d="M584,276 L709,276 L709,292 L584,292 L584,276"/>
<text fill="#000000" fill-opacity="1" stroke="none" xml:space="preserve" x="634.969" y="286.234" font-family="Arial" font-size="8" font-weight="400" font-style="normal" 
 >chimie</text>
<path vector-effect="non-scaling-stroke" fill-rule="evenodd" d="M710,244 L906,244 L906,260 L710,260 L710,244"/>
</g>

<g fill="#a0a0a4" fill-opacity="1" stroke="none" transform="matrix(1,0,0,1,0,0)"
font-family="Arial" font-size="8" font-weight="400" font-style="normal" 
>
<path vector-effect="non-scaling-stroke" fill-rule="evenodd" d="M710,244 L906,244 L906,260 L710,260 L710,244"/>
</g>

<g fill="none" stroke="#000000" stroke-opacity="1" stroke-width="1" stroke-linecap="square" stroke-linejoin="bevel" transform="matrix(1,0,0,1,0,0)"
font-family="Arial" font-size="8" font-weight="400" font-style="normal" 
>
<text fill="#000000" fill-opacity="1" stroke="none" xml:space="preserve" x="723.234" y="254.234" font-family="Arial" font-size="8" font-weight="400" font-style="normal" 
 >Contexte_de_service.mode_de_fonctionnement</text>
<path vector-effect="non-scaling-stroke" fill-rule="evenodd" d="M710,260 L906,260 L906,276 L710,276 L710,260"/>
<text fill="#000000" fill-opacity="1" stroke="none" xml:space="preserve" x="799.344" y="270.234" font-family="Arial" font-size="8" font-weight="400" font-style="normal" 
 >RCD</text>
<path vector-effect="non-scaling-stroke" fill-rule="evenodd" d="M710,276 L906,276 L906,292 L710,292 L710,276"/>
<text fill="#000000" fill-opacity="1" stroke="none" xml:space="preserve" x="799.344" y="286.234" font-family="Arial" font-size="8" font-weight="400" font-style="normal" 
 >RCD</text>
</g>

<g fill="none" stroke="#ff0000" stroke-opacity="1" stroke-width="1" stroke-linecap="square" stroke-linejoin="bevel" transform="matrix(1,0,0,1,0,0)"
font-family="Arial" font-size="8" font-weight="700" font-style="normal" 
>
<text fill="#ff0000" fill-opacity="1" stroke="none" xml:space="preserve" x="20" y="324" font-family="Arial" font-size="8" font-weight="700" font-style="normal" 
 >Equipement</text>
</g>

<g fill="none" stroke="#000000" stroke-opacity="1" stroke-width="1" stroke-linecap="square" stroke-linejoin="bevel" transform="matrix(1,0,0,1,0,0)"
font-family="Arial" font-size="8" font-weight="400" font-style="normal" 
>
<path vector-effect="non-scaling-stroke" fill-rule="evenodd" d="M20,332 L90,332 L90,348 L20,348 L20,332"/>
</g>

<g fill="#a0a0a4" fill-opacity="1" stroke="none" transform="matrix(1,0,0,1,0,0)"
font-family="Arial" font-size="8" font-weight="400" font-style="normal" 
>
<path vector-effect="non-scaling-stroke" fill-rule="evenodd" d="M20,332 L90,332 L90,348 L20,348 L20,332"/>
</g>

<g fill="none" stroke="#000000" stroke-opacity="1" stroke-width="1" stroke-linecap="square" stroke-linejoin="bevel" transform="matrix(1,0,0,1,0,0)"
font-family="Arial" font-size="8" font-weight="400" font-style="normal" 
>
<text fill="#000000" fill-opacity="1" stroke="none" xml:space="preserve" x="45.0156" y="342.234" font-family="Arial" font-size="8" font-weight="400" font-style="normal" 
 >name</text>
<path vector-effect="non-scaling-stroke" fill-rule="evenodd" d="M20,348 L90,348 L90,364 L20,364 L20,348"/>
<text fill="#000000" fill-opacity="1" stroke="none" xml:space="preserve" x="20.1562" y="358.234" font-family="Arial" font-size="8" font-weight="400" font-style="normal" 
 >dom.eq.PTR021PO</text>
<path vector-effect="non-scaling-stroke" fill-rule="evenodd" d="M20,364 L90,364 L90,380 L20,380 L20,364"/>
<text fill="#000000" fill-opacity="1" stroke="none" xml:space="preserve" x="20.1562" y="374.234" font-family="Arial" font-size="8" font-weight="400" font-style="normal" 
 >dom.eq.PTR022PO</text>
<path vector-effect="non-scaling-stroke" fill-rule="evenodd" d="M90,332 L188,332 L188,348 L90,348 L90,332"/>
</g>

<g fill="#a0a0a4" fill-opacity="1" stroke="none" transform="matrix(1,0,0,1,0,0)"
font-family="Arial" font-size="8" font-weight="400" font-style="normal" 
>
<path vector-effect="non-scaling-stroke" fill-rule="evenodd" d="M90,332 L188,332 L188,348 L90,348 L90,332"/>
</g>

<g fill="none" stroke="#000000" stroke-opacity="1" stroke-width="1" stroke-linecap="square" stroke-linejoin="bevel" transform="matrix(1,0,0,1,0,0)"
font-family="Arial" font-size="8" font-weight="400" font-style="normal" 
>
<text fill="#000000" fill-opacity="1" stroke="none" xml:space="preserve" x="100.172" y="342.234" font-family="Arial" font-size="8" font-weight="400" font-style="normal" 
 >Equipement.catégorie</text>
<path vector-effect="non-scaling-stroke" fill-rule="evenodd" d="M90,348 L188,348 L188,364 L90,364 L90,348"/>
<text fill="#000000" fill-opacity="1" stroke="none" xml:space="preserve" x="126.344" y="358.234" font-family="Arial" font-size="8" font-weight="400" font-style="normal" 
 >Pompe</text>
<path vector-effect="non-scaling-stroke" fill-rule="evenodd" d="M90,364 L188,364 L188,380 L90,380 L90,364"/>
<text fill="#000000" fill-opacity="1" stroke="none" xml:space="preserve" x="126.344" y="374.234" font-family="Arial" font-size="8" font-weight="400" font-style="normal" 
 >Pompe</text>
</g>
</g>
</svg>
