<?xml version="1.0" encoding="UTF-8" standalone="no"?>
<svg width="398.992mm" height="204.611mm"
 viewBox="0 0 1131 580"
 xmlns="http://www.w3.org/2000/svg" xmlns:xlink="http://www.w3.org/1999/xlink"  version="1.2" baseProfile="tiny">
<title>SVG Generator Example Drawing</title>
<desc>Dessin svg pour une démonstration</desc>
<defs>
</defs>
<g fill="none" stroke="black" stroke-width="1" fill-rule="evenodd" stroke-linecap="square" stroke-linejoin="bevel" >

<g fill="none" stroke="#000000" stroke-opacity="1" stroke-width="1" stroke-linecap="square" stroke-linejoin="bevel" transform="matrix(1,0,0,1,0,0)"
font-family="Arial" font-size="10" font-weight="700" font-style="normal" 
>
<text fill="#000000" fill-opacity="1" stroke="none" xml:space="preserve" x="20" y="344" font-family="Arial" font-size="10" font-weight="700" font-style="normal" 
 >Contexte_de_service</text>
</g>

<g fill="#a0a0a4" fill-opacity="1" stroke="none" transform="matrix(1,0,0,1,0,0)"
font-family="Arial" font-size="10" font-weight="400" font-style="normal" 
>
<path vector-effect="non-scaling-stroke" fill-rule="evenodd" d="M20,356 L153,356 L153,380 L20,380 L20,356"/>
</g>

<g fill="none" stroke="#000000" stroke-opacity="1" stroke-width="1" stroke-linecap="square" stroke-linejoin="bevel" transform="matrix(1,0,0,1,0,0)"
font-family="Arial" font-size="10" font-weight="400" font-style="normal" 
>
<path vector-effect="non-scaling-stroke" fill-rule="evenodd" d="M20,356 L153,356 L153,380 L20,380 L20,356"/>
<text fill="#000000" fill-opacity="1" stroke="none" xml:space="preserve" x="82.6094" y="371.047" font-family="Arial" font-size="10" font-weight="400" font-style="normal" 
 >id</text>
<path vector-effect="non-scaling-stroke" fill-rule="evenodd" d="M20,404 L153,404 L153,428 L20,428 L20,404"/>
<text fill="#000000" fill-opacity="1" stroke="none" xml:space="preserve" x="36.5625" y="419.047" font-family="Arial" font-size="10" font-weight="400" font-style="normal" 
 >ctx.cs.DiagPTR021PO</text>
<path vector-effect="non-scaling-stroke" fill-rule="evenodd" d="M20,380 L153,380 L153,404 L20,404 L20,380"/>
<text fill="#000000" fill-opacity="1" stroke="none" xml:space="preserve" x="36.5625" y="395.047" font-family="Arial" font-size="10" font-weight="400" font-style="normal" 
 >ctx.cs.DiagPTR022PO</text>
</g>

<g fill="#a0a0a4" fill-opacity="1" stroke="none" transform="matrix(1,0,0,1,0,0)"
font-family="Arial" font-size="10" font-weight="400" font-style="normal" 
>
<path vector-effect="non-scaling-stroke" fill-rule="evenodd" d="M153,356 L202,356 L202,380 L153,380 L153,356"/>
</g>

<g fill="none" stroke="#000000" stroke-opacity="1" stroke-width="1" stroke-linecap="square" stroke-linejoin="bevel" transform="matrix(1,0,0,1,0,0)"
font-family="Arial" font-size="10" font-weight="400" font-style="normal" 
>
<path vector-effect="non-scaling-stroke" fill-rule="evenodd" d="M153,356 L202,356 L202,380 L153,380 L153,356"/>
<text fill="#000000" fill-opacity="1" stroke="none" xml:space="preserve" x="163.359" y="371.047" font-family="Arial" font-size="10" font-weight="400" font-style="normal" 
 >terrain</text>
<path vector-effect="non-scaling-stroke" fill-rule="evenodd" d="M153,404 L202,404 L202,428 L153,428 L153,404"/>
<text fill="#000000" fill-opacity="1" stroke="none" xml:space="preserve" x="168.906" y="419.047" font-family="Arial" font-size="10" font-weight="400" font-style="normal" 
 >true</text>
<path vector-effect="non-scaling-stroke" fill-rule="evenodd" d="M153,380 L202,380 L202,404 L153,404 L153,380"/>
<text fill="#000000" fill-opacity="1" stroke="none" xml:space="preserve" x="168.906" y="395.047" font-family="Arial" font-size="10" font-weight="400" font-style="normal" 
 >true</text>
</g>

<g fill="#a0a0a4" fill-opacity="1" stroke="none" transform="matrix(1,0,0,1,0,0)"
font-family="Arial" font-size="10" font-weight="400" font-style="normal" 
>
<path vector-effect="non-scaling-stroke" fill-rule="evenodd" d="M202,356 L251,356 L251,380 L202,380 L202,356"/>
</g>

<g fill="none" stroke="#000000" stroke-opacity="1" stroke-width="1" stroke-linecap="square" stroke-linejoin="bevel" transform="matrix(1,0,0,1,0,0)"
font-family="Arial" font-size="10" font-weight="400" font-style="normal" 
>
<path vector-effect="non-scaling-stroke" fill-rule="evenodd" d="M202,356 L251,356 L251,380 L202,380 L202,356"/>
<text fill="#000000" fill-opacity="1" stroke="none" xml:space="preserve" x="212.625" y="371.047" font-family="Arial" font-size="10" font-weight="400" font-style="normal" 
 >métier</text>
<path vector-effect="non-scaling-stroke" fill-rule="evenodd" d="M202,404 L251,404 L251,428 L202,428 L202,404"/>
<text fill="#000000" fill-opacity="1" stroke="none" xml:space="preserve" x="212.062" y="419.047" font-family="Arial" font-size="10" font-weight="400" font-style="normal" 
 >chimie</text>
<path vector-effect="non-scaling-stroke" fill-rule="evenodd" d="M202,380 L251,380 L251,404 L202,404 L202,380"/>
<text fill="#000000" fill-opacity="1" stroke="none" xml:space="preserve" x="212.062" y="395.047" font-family="Arial" font-size="10" font-weight="400" font-style="normal" 
 >chimie</text>
</g>

<g fill="#a0a0a4" fill-opacity="1" stroke="none" transform="matrix(1,0,0,1,0,0)"
font-family="Arial" font-size="10" font-weight="400" font-style="normal" 
>
<path vector-effect="non-scaling-stroke" fill-rule="evenodd" d="M251,356 L405,356 L405,380 L251,380 L251,356"/>
</g>

<g fill="none" stroke="#000000" stroke-opacity="1" stroke-width="1" stroke-linecap="square" stroke-linejoin="bevel" transform="matrix(1,0,0,1,0,0)"
font-family="Arial" font-size="10" font-weight="400" font-style="normal" 
>
<path vector-effect="non-scaling-stroke" fill-rule="evenodd" d="M251,356 L405,356 L405,380 L251,380 L251,356"/>
<text fill="#000000" fill-opacity="1" stroke="none" xml:space="preserve" x="270.312" y="371.047" font-family="Arial" font-size="10" font-weight="400" font-style="normal" 
 >mode_de_fonctionnement</text>
<path vector-effect="non-scaling-stroke" fill-rule="evenodd" d="M251,404 L405,404 L405,428 L251,428 L251,404"/>
<text fill="#000000" fill-opacity="1" stroke="none" xml:space="preserve" x="317.172" y="419.047" font-family="Arial" font-size="10" font-weight="400" font-style="normal" 
 >RCD</text>
<path vector-effect="non-scaling-stroke" fill-rule="evenodd" d="M251,380 L405,380 L405,404 L251,404 L251,380"/>
<text fill="#000000" fill-opacity="1" stroke="none" xml:space="preserve" x="317.172" y="395.047" font-family="Arial" font-size="10" font-weight="400" font-style="normal" 
 >RCD</text>
</g>

<g fill="#a0a0a4" fill-opacity="1" stroke="none" transform="matrix(1,0,0,1,0,0)"
font-family="Arial" font-size="10" font-weight="400" font-style="normal" 
>
<path vector-effect="non-scaling-stroke" fill-rule="evenodd" d="M405,356 L699,356 L699,380 L405,380 L405,356"/>
</g>

<g fill="none" stroke="#000000" stroke-opacity="1" stroke-width="1" stroke-linecap="square" stroke-linejoin="bevel" transform="matrix(1,0,0,1,0,0)"
font-family="Arial" font-size="10" font-weight="400" font-style="normal" 
>
<path vector-effect="non-scaling-stroke" fill-rule="evenodd" d="M405,356 L699,356 L699,380 L405,380 L405,356"/>
<text fill="#000000" fill-opacity="1" stroke="none" xml:space="preserve" x="532.031" y="371.047" font-family="Arial" font-size="10" font-weight="400" font-style="normal" 
 >définition</text>
<path vector-effect="non-scaling-stroke" fill-rule="evenodd" d="M405,404 L699,404 L699,428 L405,428 L405,404"/>
<text fill="#000000" fill-opacity="1" stroke="none" xml:space="preserve" x="454.656" y="419.047" font-family="Arial" font-size="10" font-weight="400" font-style="normal" 
 >Mise à disposition de diagnostic PTR021PO</text>
<path vector-effect="non-scaling-stroke" fill-rule="evenodd" d="M405,380 L699,380 L699,404 L405,404 L405,380"/>
<text fill="#000000" fill-opacity="1" stroke="none" xml:space="preserve" x="501.797" y="395.047" font-family="Arial" font-size="10" font-weight="400" font-style="normal" 
 >Diagnostic PTR022PO</text>
</g>

<g fill="#a0a0a4" fill-opacity="1" stroke="none" transform="matrix(1,0,0,1,0,0)"
font-family="Arial" font-size="10" font-weight="400" font-style="normal" 
>
<path vector-effect="non-scaling-stroke" fill-rule="evenodd" d="M699,356 L853,356 L853,380 L699,380 L699,356"/>
</g>

<g fill="none" stroke="#000000" stroke-opacity="1" stroke-width="1" stroke-linecap="square" stroke-linejoin="bevel" transform="matrix(1,0,0,1,0,0)"
font-family="Arial" font-size="10" font-weight="400" font-style="normal" 
>
<path vector-effect="non-scaling-stroke" fill-rule="evenodd" d="M699,356 L853,356 L853,380 L699,380 L699,356"/>
<text fill="#000000" fill-opacity="1" stroke="none" xml:space="preserve" x="737.719" y="371.047" font-family="Arial" font-size="10" font-weight="400" font-style="normal" 
 >catégorie_AP929</text>
<path vector-effect="non-scaling-stroke" fill-rule="evenodd" d="M699,404 L853,404 L853,428 L699,428 L699,404"/>
<text fill="#000000" fill-opacity="1" stroke="none" xml:space="preserve" x="720.797" y="419.047" font-family="Arial" font-size="10" font-weight="400" font-style="normal" 
 >exigence_de_conception</text>
<path vector-effect="non-scaling-stroke" fill-rule="evenodd" d="M699,380 L853,380 L853,404 L699,404 L699,380"/>
<text fill="#000000" fill-opacity="1" stroke="none" xml:space="preserve" x="720.797" y="395.047" font-family="Arial" font-size="10" font-weight="400" font-style="normal" 
 >exigence_de_conception</text>
</g>

<g fill="none" stroke="#000000" stroke-opacity="1" stroke-width="1" stroke-linecap="square" stroke-linejoin="bevel" transform="matrix(1,0,0,1,0,0)"
font-family="Arial" font-size="10" font-weight="700" font-style="normal" 
>
<text fill="#000000" fill-opacity="1" stroke="none" xml:space="preserve" x="20" y="476" font-family="Arial" font-size="10" font-weight="700" font-style="normal" 
 >Equipement</text>
</g>

<g fill="#a0a0a4" fill-opacity="1" stroke="none" transform="matrix(1,0,0,1,0,0)"
font-family="Arial" font-size="10" font-weight="400" font-style="normal" 
>
<path vector-effect="non-scaling-stroke" fill-rule="evenodd" d="M20,488 L125,488 L125,512 L20,512 L20,488"/>
</g>

<g fill="none" stroke="#000000" stroke-opacity="1" stroke-width="1" stroke-linecap="square" stroke-linejoin="bevel" transform="matrix(1,0,0,1,0,0)"
font-family="Arial" font-size="10" font-weight="400" font-style="normal" 
>
<path vector-effect="non-scaling-stroke" fill-rule="evenodd" d="M20,488 L125,488 L125,512 L20,512 L20,488"/>
<text fill="#000000" fill-opacity="1" stroke="none" xml:space="preserve" x="68.6094" y="503.047" font-family="Arial" font-size="10" font-weight="400" font-style="normal" 
 >id</text>
<path vector-effect="non-scaling-stroke" fill-rule="evenodd" d="M20,536 L125,536 L125,560 L20,560 L20,536"/>
<text fill="#000000" fill-opacity="1" stroke="none" xml:space="preserve" x="28.9531" y="551.047" font-family="Arial" font-size="10" font-weight="400" font-style="normal" 
 >dom.eq.PTR021PO</text>
<path vector-effect="non-scaling-stroke" fill-rule="evenodd" d="M20,512 L125,512 L125,536 L20,536 L20,512"/>
<text fill="#000000" fill-opacity="1" stroke="none" xml:space="preserve" x="28.9531" y="527.047" font-family="Arial" font-size="10" font-weight="400" font-style="normal" 
 >dom.eq.PTR022PO</text>
</g>

<g fill="#a0a0a4" fill-opacity="1" stroke="none" transform="matrix(1,0,0,1,0,0)"
font-family="Arial" font-size="10" font-weight="400" font-style="normal" 
>
<path vector-effect="non-scaling-stroke" fill-rule="evenodd" d="M125,488 L195,488 L195,512 L125,512 L125,488"/>
</g>

<g fill="none" stroke="#000000" stroke-opacity="1" stroke-width="1" stroke-linecap="square" stroke-linejoin="bevel" transform="matrix(1,0,0,1,0,0)"
font-family="Arial" font-size="10" font-weight="400" font-style="normal" 
>
<path vector-effect="non-scaling-stroke" fill-rule="evenodd" d="M125,488 L195,488 L195,512 L125,512 L125,488"/>
<text fill="#000000" fill-opacity="1" stroke="none" xml:space="preserve" x="139.469" y="503.047" font-family="Arial" font-size="10" font-weight="400" font-style="normal" 
 >catégorie</text>
<path vector-effect="non-scaling-stroke" fill-rule="evenodd" d="M125,536 L195,536 L195,560 L125,560 L125,536"/>
<text fill="#000000" fill-opacity="1" stroke="none" xml:space="preserve" x="144.188" y="551.047" font-family="Arial" font-size="10" font-weight="400" font-style="normal" 
 >Pompe</text>
<path vector-effect="non-scaling-stroke" fill-rule="evenodd" d="M125,512 L195,512 L195,536 L125,536 L125,512"/>
<text fill="#000000" fill-opacity="1" stroke="none" xml:space="preserve" x="144.188" y="527.047" font-family="Arial" font-size="10" font-weight="400" font-style="normal" 
 >Pompe</text>
</g>

<g fill="none" stroke="#000000" stroke-opacity="1" stroke-width="1" stroke-linecap="square" stroke-linejoin="bevel" transform="matrix(1,0,0,1,0,0)"
font-family="Arial" font-size="10" font-weight="700" font-style="normal" 
>
<text fill="#000000" fill-opacity="1" stroke="none" xml:space="preserve" x="712" y="62" font-family="Arial" font-size="10" font-weight="700" font-style="normal" 
 >Système_élémentaire</text>
</g>

<g fill="#a0a0a4" fill-opacity="1" stroke="none" transform="matrix(1,0,0,1,0,0)"
font-family="Arial" font-size="10" font-weight="400" font-style="normal" 
>
<path vector-effect="non-scaling-stroke" fill-rule="evenodd" d="M712,74 L782,74 L782,98 L712,98 L712,74"/>
</g>

<g fill="none" stroke="#000000" stroke-opacity="1" stroke-width="1" stroke-linecap="square" stroke-linejoin="bevel" transform="matrix(1,0,0,1,0,0)"
font-family="Arial" font-size="10" font-weight="400" font-style="normal" 
>
<path vector-effect="non-scaling-stroke" fill-rule="evenodd" d="M712,74 L782,74 L782,98 L712,98 L712,74"/>
<text fill="#000000" fill-opacity="1" stroke="none" xml:space="preserve" x="743.109" y="89.0469" font-family="Arial" font-size="10" font-weight="400" font-style="normal" 
 >id</text>
<path vector-effect="non-scaling-stroke" fill-rule="evenodd" d="M712,122 L782,122 L782,146 L712,146 L712,122"/>
<text fill="#000000" fill-opacity="1" stroke="none" xml:space="preserve" x="719.266" y="137.047" font-family="Arial" font-size="10" font-weight="400" font-style="normal" 
 >dom.se.PTR</text>
<path vector-effect="non-scaling-stroke" fill-rule="evenodd" d="M712,170 L782,170 L782,194 L712,194 L712,170"/>
<text fill="#000000" fill-opacity="1" stroke="none" xml:space="preserve" x="718.703" y="185.047" font-family="Arial" font-size="10" font-weight="400" font-style="normal" 
 >dom.se.RCV</text>
<path vector-effect="non-scaling-stroke" fill-rule="evenodd" d="M712,146 L782,146 L782,170 L712,170 L712,146"/>
<text fill="#000000" fill-opacity="1" stroke="none" xml:space="preserve" x="718.984" y="161.047" font-family="Arial" font-size="10" font-weight="400" font-style="normal" 
 >dom.se.REA</text>
<path vector-effect="non-scaling-stroke" fill-rule="evenodd" d="M712,98 L782,98 L782,122 L712,122 L712,98"/>
<text fill="#000000" fill-opacity="1" stroke="none" xml:space="preserve" x="718.703" y="113.047" font-family="Arial" font-size="10" font-weight="400" font-style="normal" 
 >dom.se.RRA</text>
<path vector-effect="non-scaling-stroke" fill-rule="evenodd" d="M712,194 L782,194 L782,218 L712,218 L712,194"/>
<text fill="#000000" fill-opacity="1" stroke="none" xml:space="preserve" x="719.547" y="209.047" font-family="Arial" font-size="10" font-weight="400" font-style="normal" 
 >dom.se.TEP</text>
</g>

<g fill="#a0a0a4" fill-opacity="1" stroke="none" transform="matrix(1,0,0,1,0,0)"
font-family="Arial" font-size="10" font-weight="400" font-style="normal" 
>
<path vector-effect="non-scaling-stroke" fill-rule="evenodd" d="M782,74 L1111,74 L1111,98 L782,98 L782,74"/>
</g>

<g fill="none" stroke="#000000" stroke-opacity="1" stroke-width="1" stroke-linecap="square" stroke-linejoin="bevel" transform="matrix(1,0,0,1,0,0)"
font-family="Arial" font-size="10" font-weight="400" font-style="normal" 
>
<path vector-effect="non-scaling-stroke" fill-rule="evenodd" d="M782,74 L1111,74 L1111,98 L782,98 L782,74"/>
<text fill="#000000" fill-opacity="1" stroke="none" xml:space="preserve" x="926.531" y="89.0469" font-family="Arial" font-size="10" font-weight="400" font-style="normal" 
 >définition</text>
<path vector-effect="non-scaling-stroke" fill-rule="evenodd" d="M782,122 L1111,122 L1111,146 L782,146 L782,122"/>
<text fill="#000000" fill-opacity="1" stroke="none" xml:space="preserve" x="838.047" y="137.047" font-family="Arial" font-size="10" font-weight="400" font-style="normal" 
 >Refroidissement et conditionnement des piscines</text>
<path vector-effect="non-scaling-stroke" fill-rule="evenodd" d="M782,170 L1111,170 L1111,194 L782,194 L782,170"/>
<text fill="#000000" fill-opacity="1" stroke="none" xml:space="preserve" x="870.781" y="185.047" font-family="Arial" font-size="10" font-weight="400" font-style="normal" 
 >Contrôle chimique et volumétrique</text>
<path vector-effect="non-scaling-stroke" fill-rule="evenodd" d="M782,146 L1111,146 L1111,170 L782,170 L782,146"/>
<text fill="#000000" fill-opacity="1" stroke="none" xml:space="preserve" x="889.531" y="161.047" font-family="Arial" font-size="10" font-weight="400" font-style="normal" 
 >Appoint d'eau au réacteur</text>
<path vector-effect="non-scaling-stroke" fill-rule="evenodd" d="M782,98 L1111,98 L1111,122 L782,122 L782,98"/>
<text fill="#000000" fill-opacity="1" stroke="none" xml:space="preserve" x="865.953" y="113.047" font-family="Arial" font-size="10" font-weight="400" font-style="normal" 
 >Refroidissement du réacteur à l'arrêt</text>
<path vector-effect="non-scaling-stroke" fill-rule="evenodd" d="M782,194 L1111,194 L1111,218 L782,218 L782,194"/>
<text fill="#000000" fill-opacity="1" stroke="none" xml:space="preserve" x="871.344" y="209.047" font-family="Arial" font-size="10" font-weight="400" font-style="normal" 
 >Traitement des effluents primaires</text>
</g>

<g fill="none" stroke="#000000" stroke-opacity="1" stroke-width="1" stroke-linecap="square" stroke-linejoin="bevel" transform="matrix(1,0,0,1,0,0)"
font-family="Arial" font-size="10" font-weight="700" font-style="normal" 
>
<text fill="#000000" fill-opacity="1" stroke="none" xml:space="preserve" x="20" y="236" font-family="Arial" font-size="10" font-weight="700" font-style="normal" 
 >Tranche</text>
</g>

<g fill="#a0a0a4" fill-opacity="1" stroke="none" transform="matrix(1,0,0,1,0,0)"
font-family="Arial" font-size="10" font-weight="400" font-style="normal" 
>
<path vector-effect="non-scaling-stroke" fill-rule="evenodd" d="M20,248 L97,248 L97,272 L20,272 L20,248"/>
</g>

<g fill="none" stroke="#000000" stroke-opacity="1" stroke-width="1" stroke-linecap="square" stroke-linejoin="bevel" transform="matrix(1,0,0,1,0,0)"
font-family="Arial" font-size="10" font-weight="400" font-style="normal" 
>
<path vector-effect="non-scaling-stroke" fill-rule="evenodd" d="M20,248 L97,248 L97,272 L20,272 L20,248"/>
<text fill="#000000" fill-opacity="1" stroke="none" xml:space="preserve" x="54.6094" y="263.047" font-family="Arial" font-size="10" font-weight="400" font-style="normal" 
 >id</text>
<path vector-effect="non-scaling-stroke" fill-rule="evenodd" d="M20,272 L97,272 L97,296 L20,296 L20,272"/>
<text fill="#000000" fill-opacity="1" stroke="none" xml:space="preserve" x="29.3906" y="287.047" font-family="Arial" font-size="10" font-weight="400" font-style="normal" 
 >dom.tr.LEGO</text>
</g>

<g fill="#a0a0a4" fill-opacity="1" stroke="none" transform="matrix(1,0,0,1,0,0)"
font-family="Arial" font-size="10" font-weight="400" font-style="normal" 
>
<path vector-effect="non-scaling-stroke" fill-rule="evenodd" d="M97,248 L286,248 L286,272 L97,272 L97,248"/>
</g>

<g fill="none" stroke="#000000" stroke-opacity="1" stroke-width="1" stroke-linecap="square" stroke-linejoin="bevel" transform="matrix(1,0,0,1,0,0)"
font-family="Arial" font-size="10" font-weight="400" font-style="normal" 
>
<path vector-effect="non-scaling-stroke" fill-rule="evenodd" d="M97,248 L286,248 L286,272 L97,272 L97,248"/>
<text fill="#000000" fill-opacity="1" stroke="none" xml:space="preserve" x="171.531" y="263.047" font-family="Arial" font-size="10" font-weight="400" font-style="normal" 
 >définition</text>
<path vector-effect="non-scaling-stroke" fill-rule="evenodd" d="M97,272 L286,272 L286,296 L97,296 L97,272"/>
<text fill="#000000" fill-opacity="1" stroke="none" xml:space="preserve" x="122.422" y="287.047" font-family="Arial" font-size="10" font-weight="400" font-style="normal" 
 >Centrale simulée CONNEXION</text>
</g>

<g fill="none" stroke="#0e32c8" stroke-opacity="1" stroke-width="1" stroke-linecap="square" stroke-linejoin="bevel" transform="matrix(1,0,0,1,0,0)"
font-family="Arial" font-size="10" font-weight="400" font-style="normal" 
>
<polyline fill="none" vector-effect="non-scaling-stroke" points="436,428 107,536 " />
<polyline fill="none" vector-effect="non-scaling-stroke" points="436,404 911,146 " />
<polyline fill="none" vector-effect="non-scaling-stroke" points="436,404 153,296 " />
<polyline fill="none" vector-effect="non-scaling-stroke" points="436,404 107,512 " />
<polyline fill="none" vector-effect="non-scaling-stroke" points="436,380 911,146 " />
<polyline fill="none" vector-effect="non-scaling-stroke" points="436,380 153,296 " />
</g>
</g>
</svg>
